STARTFONT 2.1
COMMENT
COMMENT Converted from OpenType font "c:\Users\Martin\Dropbox\Code\EEZ\psu-firmware\tools\font_tools\fonts\ttf\Oswald-Medium.ttf" by "otf2bdf.exe 3.0".
COMMENT
FONT -FreeType-Oswald-Medium-R-Normal--53-380-100-100-P-220-ISO10646-1
SIZE 38 100 100
FONTBOUNDINGBOX 108 77 -5 -18
STARTPROPERTIES 19
FOUNDRY "FreeType"
FAMILY_NAME "Oswald"
WEIGHT_NAME "Medium"
SLANT "R"
SETWIDTH_NAME "Normal"
ADD_STYLE_NAME ""
PIXEL_SIZE 53
POINT_SIZE 380
RESOLUTION_X 100
RESOLUTION_Y 100
SPACING "P"
AVERAGE_WIDTH 220
CHARSET_REGISTRY "ISO10646"
CHARSET_ENCODING "1"
FONT_ASCENT 57
FONT_DESCENT 14
COPYRIGHT "Copyright (c) 2010-13 by Vernon Adams"
_OTF_FONTFILE "c:\Users\Martin\Dropbox\Code\EEZ\psu-firmware\tools\font_tools\fonts\ttf\Oswald-Medium.ttf"
_OTF_PSNAME "Oswald-Medium"
ENDPROPERTIES
CHARS 554
STARTCHAR 0020
ENCODING 32
SWIDTH 246 0
DWIDTH 13 0
BBX 0 0 0 0
BITMAP
ENDCHAR
STARTCHAR 0021
ENCODING 33
SWIDTH 227 0
DWIDTH 12 0
BBX 8 43 2 0
BITMAP
7F
7F
7F
7E
7E
7E
7E
7E
7E
7E
7E
7E
7E
7E
7C
3C
3C
3C
3C
3C
3C
3C
3C
3C
3C
38
38
38
38
38
18
18
18
00
00
00
FE
FE
FE
FE
FE
FE
FE
ENDCHAR
STARTCHAR 0022
ENCODING 34
SWIDTH 378 0
DWIDTH 20 0
BBX 15 14 3 29
BITMAP
FE7E
FC7E
FC7E
FC7E
FC7E
F87C
F87C
F87C
F87C
F87C
F878
F078
F078
F078
ENDCHAR
STARTCHAR 0023
ENCODING 35
SWIDTH 511 0
DWIDTH 27 0
BBX 23 43 2 0
BITMAP
03F0FC
03F0FC
03F0FC
03F0FC
03F0FC
03F0FC
07E0FC
07E0FC
07E1F8
07E1F8
07E1F8
07E1F8
07E1F8
FFFFFE
FFFFFE
FFFFFE
FFFFFE
FFFFFE
0FC3F0
0FC3F0
1F83F0
1F83F0
1F87E0
FFFFFE
FFFFFE
FFFFFE
FFFFFE
FFFFFE
3F07E0
3F0FC0
3F0FC0
3F0FC0
3F0FC0
3F0FC0
3E0FC0
7E0FC0
7E0FC0
7E1F80
7E1F80
7E1F80
7E1F80
7E1F80
FC1F80
ENDCHAR
STARTCHAR 0024
ENCODING 36
SWIDTH 492 0
DWIDTH 26 0
BBX 22 53 2 -5
BITMAP
003000
003000
003000
003000
003800
07FF00
1FFFC0
3FFFE0
7FFFE0
7FFFF0
FFFFF0
FF07F8
FE03F8
FE03F8
FE01F8
FE01FC
FE01F0
FF0000
FF0000
FF8000
7FC000
7FE000
3FF800
1FFC00
0FFE00
07FF00
03FF80
01FFC0
007FE0
003FF0
001FF0
000FF8
0007F8
0003FC
3C03FC
FE01FC
FE01FC
FE01FC
FE01FC
FF01FC
FF03FC
7F87FC
7FFFF8
3FFFF8
3FFFF0
1FFFE0
07FFC0
01FF00
001800
001800
001800
001800
001800
ENDCHAR
STARTCHAR 0025
ENCODING 37
SWIDTH 966 0
DWIDTH 51 0
BBX 47 43 2 0
BITMAP
03F8001F0000
1FFE001F0000
3FFF803F0000
3FFF803E0000
7FFFC03E0000
7F1FC03E0000
FE0FC07C0000
FE0FE07C0000
FC0FE07C0000
FC07E0FC0000
FC07E0F80000
FC07E0F80000
FC07E0F80000
FC07E1F00000
FC0FE1F00000
FC0FE1F00000
FE0FE3F00000
7E0FC3E00000
7F1FC3E00000
7FFFC3E03F80
3FFF87C0FFF0
1FFF07C1FFF8
0FFE07C3FFFC
03F807C7FFFC
00000F87F1FE
00000F87E0FE
00000F87E07E
00001F87E07E
00001F0FE07E
00001F0FE07E
00001F0FE07E
00003E0FE07E
00003E0FE07E
00003E0FE07E
00007E07E07E
00007C07E07E
00007C07E0FE
00007C07F1FC
0000F803FFFC
0000F803FFFC
0000F801FFF8
0001F800FFF0
0001F0003F80
ENDCHAR
STARTCHAR 0026
ENCODING 38
SWIDTH 587 0
DWIDTH 31 0
BBX 26 45 3 -1
BITMAP
00200000
03FE0000
0FFF8000
1FFFC000
1FFFE000
3FFFE000
3F87E000
3F07F000
7F07F000
7F07F000
7F07F000
7F07F000
3F07E000
3F0FE000
3F8FE000
3F8FC000
1F9F8000
1FDF8000
0FFF0000
0FFE0000
07FC0000
03F80000
07F80000
0FF81FC0
1FF81FC0
1FFC1F80
3FFC1F80
7F7E1F80
7F7F1F80
FE3F1F80
FE3FBF00
FE1FBF00
FC1FFF00
FC0FFE00
FC07FE00
FC07FC00
FC03FC00
FE07FE00
FE0FFFC0
7FFFFFC0
7FFFFFC0
3FFF9FC0
1FFF0FC0
0FFC07C0
00400080
ENDCHAR
STARTCHAR 0027
ENCODING 39
SWIDTH 322 0
DWIDTH 17 0
BBX 6 14 4 29
BITMAP
FC
F8
F8
F8
F8
F8
F8
F0
F0
F0
F0
F0
F0
E0
ENDCHAR
STARTCHAR 0028
ENCODING 40
SWIDTH 322 0
DWIDTH 17 0
BBX 12 54 4 -11
BITMAP
0010
01E0
07E0
0FE0
1FE0
1FE0
3F80
3F00
7F00
7F00
7E00
7E00
FE00
FE00
FE00
FE00
FE00
FE00
FC00
FC00
FC00
FC00
FC00
FC00
FC00
FC00
FC00
FC00
FC00
FC00
FC00
FC00
FC00
FC00
FC00
FC00
FE00
FE00
FE00
FE00
FE00
FE00
FE00
7E00
7E00
7F00
3F00
3F80
3FC0
1FE0
1FE0
0FE0
03E0
00E0
ENDCHAR
STARTCHAR 0029
ENCODING 41
SWIDTH 284 0
DWIDTH 15 0
BBX 12 54 1 -11
BITMAP
8000
7800
7E00
7F00
7F80
7F80
1FC0
1FC0
0FC0
0FE0
0FE0
07E0
07E0
07F0
07F0
07F0
07F0
07F0
07F0
07F0
07F0
07F0
07F0
07F0
07F0
07F0
07F0
07F0
07F0
07F0
07F0
07F0
07F0
07F0
07F0
07F0
07F0
07F0
07F0
07F0
07F0
07F0
07E0
07E0
0FE0
0FE0
0FC0
1FC0
3FC0
7F80
7F00
7E00
7C00
7000
ENDCHAR
STARTCHAR 002A
ENCODING 42
SWIDTH 416 0
DWIDTH 22 0
BBX 19 19 2 24
BITMAP
01F000
01F000
01F000
01F000
31F0C0
79F3C0
7EFFC0
FFFFE0
7FFFC0
0FFE00
03F800
03FC00
07FC00
0FBE00
1F9F00
3F1F80
1F0F00
060C00
020800
ENDCHAR
STARTCHAR 002B
ENCODING 43
SWIDTH 435 0
DWIDTH 23 0
BBX 21 22 1 11
BITMAP
00F800
00F800
00F800
00F800
00F800
00F800
00F800
00F800
FFFFF8
FFFFF8
FFFFF8
FFFFF8
FFFFF8
00F800
00F800
00F800
00F800
00F800
00F800
00F800
00F800
00F800
ENDCHAR
STARTCHAR 002C
ENCODING 44
SWIDTH 208 0
DWIDTH 11 0
BBX 7 14 2 -8
BITMAP
FE
FE
FE
FE
FE
FE
FE
0E
0E
1E
3C
FC
78
60
ENDCHAR
STARTCHAR 002D
ENCODING 45
SWIDTH 360 0
DWIDTH 19 0
BBX 13 5 3 15
BITMAP
FFF8
FFF8
FFF8
FFF8
FFF8
ENDCHAR
STARTCHAR 002E
ENCODING 46
SWIDTH 208 0
DWIDTH 11 0
BBX 7 7 2 0
BITMAP
FE
FE
FE
FE
FE
FE
FE
ENDCHAR
STARTCHAR 002F
ENCODING 47
SWIDTH 397 0
DWIDTH 21 0
BBX 17 43 2 0
BITMAP
000F80
000F80
001F00
001F00
001F00
003F00
003E00
003E00
003E00
007C00
007C00
007C00
00FC00
00F800
00F800
00F800
01F000
01F000
01F000
01F000
03E000
03E000
03E000
07C000
07C000
07C000
07C000
0F8000
0F8000
0F8000
1F0000
1F0000
1F0000
1F0000
3E0000
3E0000
3E0000
7E0000
7C0000
7C0000
7C0000
F80000
F80000
ENDCHAR
STARTCHAR 0030
ENCODING 48
SWIDTH 511 0
DWIDTH 27 0
BBX 23 45 2 -1
BITMAP
001000
03FF80
07FFC0
1FFFF0
1FFFF0
3FFFF8
3FFFF8
7F83FC
7F01FC
7F01FC
7F01FE
FF01FE
FF01FE
FF01FE
FF01FE
FF01FE
FF01FE
FF01FE
FF01FE
FF01FE
FF01FE
FF01FE
FF01FE
FF01FE
FF01FE
FF01FE
FF01FE
FF01FE
FF01FE
FF01FE
FF01FE
FF01FE
FF01FE
FF01FE
7F01FE
7F01FC
7F81FC
7F83FC
3FFFF8
3FFFF8
1FFFF0
0FFFE0
07FFC0
03FF80
001000
ENDCHAR
STARTCHAR 0031
ENCODING 49
SWIDTH 511 0
DWIDTH 27 0
BBX 14 43 5 0
BITMAP
00FC
01FC
07FC
1FFC
7FFC
FFFC
FFFC
FFFC
FFFC
E3FC
03FC
03FC
03FC
03FC
03FC
03FC
03FC
03FC
03FC
03FC
03FC
03FC
03FC
03FC
03FC
03FC
03FC
03FC
03FC
03FC
03FC
03FC
03FC
03FC
03FC
03FC
03FC
03FC
03FC
03FC
03FC
03FC
03FC
ENDCHAR
STARTCHAR 0032
ENCODING 50
SWIDTH 511 0
DWIDTH 27 0
BBX 23 44 2 0
BITMAP
001000
01FF80
07FFE0
0FFFF0
1FFFF8
3FFFF8
3FFFFC
7F83FC
7F81FE
7F01FE
7F01FE
7F00FE
7F01FE
7F01FE
7F01FE
0001FC
0003FC
0003FC
0007F8
0007F8
000FF0
001FF0
001FE0
003FC0
003FC0
007F80
00FF00
00FF00
01FE00
03FC00
03FC00
07F800
0FF000
0FF000
1FE000
1FC000
3FC000
7F8000
7FFFFC
FFFFFC
FFFFFC
FFFFFC
FFFFFC
FFFFFC
ENDCHAR
STARTCHAR 0033
ENCODING 51
SWIDTH 492 0
DWIDTH 26 0
BBX 23 45 2 -1
BITMAP
001000
03FF80
0FFFE0
1FFFF0
3FFFF8
3FFFF8
7FFFFC
7F83FC
FF01FC
FF01FC
FF01FE
FF01FE
FF01FE
FF01FC
0001FC
0001FC
0003FC
0007F8
007FF0
007FE0
007FC0
007FC0
007FF0
007FF0
0007F8
0003FC
0003FC
0001FC
0001FC
0001FC
0001FE
FF01FE
FF01FE
FF01FC
FF01FC
FF01FC
7F01FC
7F83FC
7FFFF8
3FFFF8
3FFFF0
1FFFE0
0FFFC0
03FF80
001000
ENDCHAR
STARTCHAR 0034
ENCODING 52
SWIDTH 511 0
DWIDTH 27 0
BBX 24 43 2 0
BITMAP
001FE0
003FE0
003FE0
003FE0
007FE0
007FE0
00FFE0
00FFE0
01FFE0
01FFE0
03FFE0
03EFE0
03EFE0
07EFE0
07CFE0
0FCFE0
0FCFE0
1F8FE0
1F8FE0
3F8FE0
3F0FE0
3F0FE0
7E0FE0
7E0FE0
FE0FE0
FC0FE0
FFFFFF
FFFFFF
FFFFFF
FFFFFF
FFFFFF
FFFFFF
000FE0
000FE0
000FE0
000FE0
000FE0
000FE0
000FE0
000FE0
000FE0
000FE0
000FE0
ENDCHAR
STARTCHAR 0035
ENCODING 53
SWIDTH 492 0
DWIDTH 26 0
BBX 22 44 3 -1
BITMAP
7FFFF0
7FFFF0
7FFFF0
7FFFF0
7FFFF0
7FFFF0
7FFFF0
7E0000
7E0000
7E0000
7E0000
7E0000
7E0000
FC0000
FC0000
FC7F00
FDFFC0
FFFFE0
FFFFF0
FFFFF0
FF8FF8
FF03F8
FE03F8
FE03F8
0003F8
0003FC
0001FC
0001FC
0001FC
0001FC
0001FC
FE01FC
FE03F8
FE03F8
FE03F8
FE03F8
FF03F8
FF07F0
7FFFF0
7FFFE0
3FFFE0
1FFF80
07FF00
002000
ENDCHAR
STARTCHAR 0036
ENCODING 54
SWIDTH 511 0
DWIDTH 27 0
BBX 22 45 3 -1
BITMAP
002000
03FF00
0FFFC0
1FFFE0
3FFFF0
3FFFF0
7FFFF8
7F83F8
FF03F8
FF03FC
FE01FC
FE01FC
FE0000
FE0000
FE0000
FE0000
FE0000
FE0000
FE3F00
FEFFC0
FFFFE0
FFFFF0
FFFFF8
FF87F8
FF03F8
FE03FC
FE03FC
FE01FC
FE01FC
FE01FC
FE01FC
FE01FC
FE01FC
FE01FC
FE03FC
FE03FC
FF03F8
7F07F8
7FFFF8
3FFFF0
3FFFF0
1FFFE0
0FFFC0
03FF00
002000
ENDCHAR
STARTCHAR 0037
ENCODING 55
SWIDTH 435 0
DWIDTH 23 0
BBX 19 43 2 0
BITMAP
FFFFE0
FFFFE0
FFFFE0
FFFFE0
FFFFE0
001FC0
001FC0
001FC0
001FC0
003F80
003F80
003F80
003F80
003F00
007F00
007F00
007F00
007F00
00FE00
00FE00
00FE00
00FE00
00FC00
01FC00
01FC00
01FC00
01F800
03F800
03F800
03F800
03F800
03F000
07F000
07F000
07F000
07E000
0FE000
0FE000
0FE000
0FC000
0FC000
1FC000
1FC000
ENDCHAR
STARTCHAR 0038
ENCODING 56
SWIDTH 511 0
DWIDTH 27 0
BBX 22 45 2 -1
BITMAP
001000
03FF00
0FFFC0
1FFFE0
1FFFF0
3FFFF0
3F87F8
7F03F8
7F03F8
7F01FC
7F01FC
7F01FC
7F01FC
7F01FC
7F03FC
7F03F8
7F03F8
3F83F8
3FC7F0
1FFFF0
0FFFE0
07FFC0
0FFFC0
1FFFF0
3FFFF0
7F87F8
7F03F8
7F01FC
FF01FC
FE01FC
FE01FC
FE01FC
FE01FC
FE01FC
FE01FC
FE01FC
7F01FC
7F03FC
7F83F8
3FFFF8
3FFFF0
1FFFF0
0FFFC0
03FF80
001000
ENDCHAR
STARTCHAR 0039
ENCODING 57
SWIDTH 511 0
DWIDTH 27 0
BBX 23 45 2 -1
BITMAP
001000
03FF00
07FFC0
0FFFE0
1FFFF0
3FFFF8
3FFFF8
7F83F8
7F03FC
7F01FC
7F01FC
FF01FC
FF01FE
FF01FE
FF01FE
FF01FE
FF01FE
FF01FE
FF01FE
7F01FE
7F81FE
7F87FE
3FFFFE
3FFFFE
1FFFFE
0FFDFE
03F9FE
0001FE
0001FE
0001FE
0001FE
0001FE
0001FC
7F01FC
7F01FC
7F01FC
7F03FC
7F83F8
7FFFF8
3FFFF8
3FFFF0
1FFFE0
0FFFC0
03FF00
001000
ENDCHAR
STARTCHAR 003A
ENCODING 58
SWIDTH 227 0
DWIDTH 12 0
BBX 7 24 3 4
BITMAP
FE
FE
FE
FE
FE
FE
FE
00
00
00
00
00
00
00
00
00
00
FE
FE
FE
FE
FE
FE
FE
ENDCHAR
STARTCHAR 003B
ENCODING 59
SWIDTH 246 0
DWIDTH 13 0
BBX 7 35 3 -4
BITMAP
FE
FE
FE
FE
FE
FE
FE
00
00
00
00
00
00
00
00
00
00
00
00
00
00
FE
FE
FE
FE
FE
FE
FE
0E
0E
1E
3E
7C
78
40
ENDCHAR
STARTCHAR 003C
ENCODING 60
SWIDTH 378 0
DWIDTH 20 0
BBX 16 29 2 3
BITMAP
0001
0002
0006
001E
003E
00FE
01FE
07FE
0FFC
3FF0
7FE0
FF80
FF00
FE00
F800
FC00
FF00
FF80
FFC0
3FF0
1FF8
07FC
03FE
00FE
007E
001E
000E
0006
0001
ENDCHAR
STARTCHAR 003D
ENCODING 61
SWIDTH 435 0
DWIDTH 23 0
BBX 17 15 3 14
BITMAP
FFFF80
FFFF80
FFFF80
FFFF80
FFFF80
000000
000000
000000
000000
000000
FFFF80
FFFF80
FFFF80
FFFF80
FFFF80
ENDCHAR
STARTCHAR 003E
ENCODING 62
SWIDTH 378 0
DWIDTH 20 0
BBX 17 29 2 3
BITMAP
800000
400000
700000
780000
7E0000
7F0000
7FC000
7FE000
1FF800
0FFC00
03FF00
01FF80
00FF80
003F80
001F80
003F80
007F80
00FF80
03FF00
07FE00
1FF800
3FF000
7FC000
7F8000
7E0000
7C0000
700000
600000
400000
ENDCHAR
STARTCHAR 003F
ENCODING 63
SWIDTH 492 0
DWIDTH 26 0
BBX 22 44 2 0
BITMAP
002000
07FF00
0FFFC0
1FFFE0
3FFFF0
7FFFF8
7FFFF8
7F07F8
FF03FC
FE01FC
FE01FC
FE01FC
7E01FC
7C01FC
4003FC
0003F8
0003F8
0007F8
0007F0
000FF0
001FE0
003FC0
003FC0
007F80
00FF00
01FE00
03FC00
03F800
03F000
03F000
03F000
03F000
03F000
000000
000000
000000
000000
07F800
07F800
07F800
07F800
07F800
07F800
07F800
ENDCHAR
STARTCHAR 0040
ENCODING 64
SWIDTH 947 0
DWIDTH 50 0
BBX 44 50 3 -8
BITMAP
00000FFC0000
0000FFFF8000
0007FFFFF000
000FFFFFF800
003FFFFFFC00
007FF007FE00
00FF8000FF00
01FE00003F80
03FC00001FC0
07F800000FC0
0FF0000007E0
0FE007CFC7E0
1FC01FEF83E0
1F807FFF83F0
3F80FFFF81F0
3F00FFFF81F0
3F01FE1F81F0
7F03FC1F81F0
7E03F83F81F0
7E07F03F01F0
7E07F03F01F0
7E07E03F01F0
FC0FE03F01F0
FC0FE03F01F0
FC0FC03F01F0
FC0FC07F01F0
FC0FC07E01F0
FC0FC07E03E0
FC0FC07E03E0
FC0FC07E07E0
FC0FE0FE07C0
FC0FE1FE0FC0
FC0FFFFE1F80
FC07FFFE7F00
7E07FFFFFE00
7E03FF3FFC00
7E01FE1FF800
7F00780FE000
3F0000000000
3F8000000000
1FC000000000
1FE000000000
0FF000000000
07FC00008000
03FFC00F8000
01FFFFFF8000
007FFFFF8000
003FFFFFC000
000FFFFF8000
0000FFF00000
ENDCHAR
STARTCHAR 0041
ENCODING 65
SWIDTH 530 0
DWIDTH 28 0
BBX 26 43 1 0
BITMAP
007F8000
007F8000
007F8000
007FC000
00FFC000
00FFC000
00FFC000
00FFC000
01FFE000
01FFE000
01FFE000
01FFE000
01F7F000
03F7F000
03F7F000
03F3F000
03F3F000
03F3F800
07F3F800
07E3F800
07E3F800
07E1FC00
0FE1FC00
0FE1FC00
0FE1FC00
0FC1FC00
0FC1FE00
1FC0FE00
1FFFFE00
1FFFFE00
1FFFFE00
3FFFFF00
3FFFFF00
3F807F00
3F807F00
3F807F80
7F807F80
7F007F80
7F007F80
7F003F80
FF003FC0
FF003FC0
FE003FC0
ENDCHAR
STARTCHAR 0042
ENCODING 66
SWIDTH 549 0
DWIDTH 29 0
BBX 25 43 3 0
BITMAP
FFFF0000
FFFFC000
FFFFF000
FFFFF800
FFFFFC00
FF07FC00
FF01FE00
FF00FE00
FF00FE00
FF00FE00
FF00FE00
FF00FE00
FF00FE00
FF00FE00
FF00FE00
FF00FE00
FF01FC00
FF07FC00
FFFFF800
FFFFE000
FFFFC000
FFFFF800
FFFFFC00
FF03FE00
FF01FE00
FF00FF00
FF00FF00
FF007F00
FF007F00
FF007F80
FF007F80
FF007F80
FF007F00
FF007F00
FF007F00
FF00FF00
FF01FF00
FF03FE00
FFFFFE00
FFFFFC00
FFFFF800
FFFFE000
FFFF8000
ENDCHAR
STARTCHAR 0043
ENCODING 67
SWIDTH 549 0
DWIDTH 29 0
BBX 23 45 3 -1
BITMAP
001000
03FFC0
0FFFE0
1FFFF0
3FFFF8
7FFFFC
7FFFFC
FF81FE
FF01FE
FF00FE
FF00FE
FE00FE
FE00FE
FE00FE
FE00FE
FE00FE
FE00FE
FE0000
FE0000
FE0000
FE0000
FE0000
FE0000
FE0000
FE0000
FE0000
FE0000
FE0000
FE00FE
FE00FE
FE00FE
FE00FE
FE00FE
FE00FE
FF00FE
FF00FE
FF01FE
7F81FE
7FFFFC
7FFFFC
3FFFF8
1FFFF0
0FFFE0
03FF80
001000
ENDCHAR
STARTCHAR 0044
ENCODING 68
SWIDTH 549 0
DWIDTH 29 0
BBX 24 43 3 0
BITMAP
FFFE00
FFFFE0
FFFFF0
FFFFF8
FFFFFC
FF07FC
FF01FE
FF01FE
FF00FE
FF00FF
FF00FF
FF00FF
FF00FF
FF00FF
FF00FF
FF00FF
FF00FF
FF00FF
FF00FF
FF00FF
FF00FF
FF00FF
FF00FF
FF00FF
FF00FF
FF00FF
FF00FF
FF00FF
FF00FF
FF00FF
FF00FF
FF00FF
FF00FF
FF00FE
FF01FE
FF01FE
FF01FE
FF07FC
FFFFFC
FFFFF8
FFFFF0
FFFFC0
FFFF00
ENDCHAR
STARTCHAR 0045
ENCODING 69
SWIDTH 435 0
DWIDTH 23 0
BBX 18 43 3 0
BITMAP
FFFFC0
FFFFC0
FFFFC0
FFFFC0
FFFFC0
FF0000
FF0000
FF0000
FF0000
FF0000
FF0000
FF0000
FF0000
FF0000
FF0000
FF0000
FF0000
FF0000
FFFF00
FFFF00
FFFF00
FFFF00
FFFF00
FF0000
FF0000
FF0000
FF0000
FF0000
FF0000
FF0000
FF0000
FF0000
FF0000
FF0000
FF0000
FF0000
FF0000
FF0000
FFFFC0
FFFFC0
FFFFC0
FFFFC0
FFFFC0
ENDCHAR
STARTCHAR 0046
ENCODING 70
SWIDTH 416 0
DWIDTH 22 0
BBX 18 43 3 0
BITMAP
FFFFC0
FFFFC0
FFFFC0
FFFFC0
FFFFC0
FF0000
FF0000
FF0000
FF0000
FF0000
FF0000
FF0000
FF0000
FF0000
FF0000
FF0000
FF0000
FF0000
FFFF00
FFFF00
FFFF00
FFFF00
FFFF00
FF0000
FF0000
FF0000
FF0000
FF0000
FF0000
FF0000
FF0000
FF0000
FF0000
FF0000
FF0000
FF0000
FF0000
FF0000
FF0000
FF0000
FF0000
FF0000
FF0000
ENDCHAR
STARTCHAR 0047
ENCODING 71
SWIDTH 568 0
DWIDTH 30 0
BBX 24 45 3 -1
BITMAP
001000
03FFC0
0FFFF0
1FFFF8
3FFFFC
7FFFFC
7FFFFE
7F81FE
FF00FE
FF00FE
FF00FE
FF00FF
FE00FF
FE00FF
FE00FF
FE0000
FE0000
FE0000
FE0000
FE0000
FE0000
FE0000
FE0FFF
FE0FFF
FE0FFF
FE0FFF
FE0FFF
FE007F
FE007F
FE007F
FE007F
FE007F
FE007F
FF007F
FF00FF
FF00FF
FF00FF
7F81FF
7FFFFF
7FFFFF
3FFFFF
1FFFBF
0FFF1F
03FE1F
002000
ENDCHAR
STARTCHAR 0048
ENCODING 72
SWIDTH 587 0
DWIDTH 31 0
BBX 25 43 3 0
BITMAP
FF007F80
FF007F80
FF007F80
FF007F80
FF007F80
FF007F80
FF007F80
FF007F80
FF007F80
FF007F80
FF007F80
FF007F80
FF007F80
FF007F80
FF007F80
FF007F80
FF007F80
FF007F80
FFFFFF80
FFFFFF80
FFFFFF80
FFFFFF80
FFFFFF80
FF007F80
FF007F80
FF007F80
FF007F80
FF007F80
FF007F80
FF007F80
FF007F80
FF007F80
FF007F80
FF007F80
FF007F80
FF007F80
FF007F80
FF007F80
FF007F80
FF007F80
FF007F80
FF007F80
FF007F80
ENDCHAR
STARTCHAR 0049
ENCODING 73
SWIDTH 284 0
DWIDTH 15 0
BBX 8 43 3 0
BITMAP
FF
FF
FF
FF
FF
FF
FF
FF
FF
FF
FF
FF
FF
FF
FF
FF
FF
FF
FF
FF
FF
FF
FF
FF
FF
FF
FF
FF
FF
FF
FF
FF
FF
FF
FF
FF
FF
FF
FF
FF
FF
FF
FF
ENDCHAR
STARTCHAR 004A
ENCODING 74
SWIDTH 322 0
DWIDTH 17 0
BBX 14 44 0 -1
BITMAP
03FC
03FC
03FC
03FC
03FC
03FC
03FC
03FC
03FC
03FC
03FC
03FC
03FC
03FC
03FC
03FC
03FC
03FC
03FC
03FC
03FC
03FC
03FC
03FC
03FC
03FC
03FC
03FC
03FC
03FC
03FC
03FC
03FC
03FC
03FC
03FC
03FC
07FC
FFF8
FFF8
FFF0
FFE0
FFC0
F000
ENDCHAR
STARTCHAR 004B
ENCODING 75
SWIDTH 530 0
DWIDTH 28 0
BBX 25 43 3 0
BITMAP
FF007F00
FF00FE00
FF00FE00
FF01FC00
FF01FC00
FF03FC00
FF03F800
FF07F800
FF07F000
FF0FF000
FF0FE000
FF1FE000
FF1FE000
FF3FC000
FF3FC000
FF3F8000
FF7F8000
FF7F8000
FFFF0000
FFFF0000
FFFF0000
FFFF8000
FFFF8000
FFBF8000
FFBFC000
FF3FC000
FF1FE000
FF1FE000
FF1FE000
FF0FF000
FF0FF000
FF07F800
FF07F800
FF07F800
FF03FC00
FF03FC00
FF03FE00
FF01FE00
FF01FE00
FF00FF00
FF00FF00
FF00FF80
FF007F80
ENDCHAR
STARTCHAR 004C
ENCODING 76
SWIDTH 416 0
DWIDTH 22 0
BBX 18 43 3 0
BITMAP
FF0000
FF0000
FF0000
FF0000
FF0000
FF0000
FF0000
FF0000
FF0000
FF0000
FF0000
FF0000
FF0000
FF0000
FF0000
FF0000
FF0000
FF0000
FF0000
FF0000
FF0000
FF0000
FF0000
FF0000
FF0000
FF0000
FF0000
FF0000
FF0000
FF0000
FF0000
FF0000
FF0000
FF0000
FF0000
FF0000
FF0000
FF0000
FFFFC0
FFFFC0
FFFFC0
FFFFC0
FFFFC0
ENDCHAR
STARTCHAR 004D
ENCODING 77
SWIDTH 682 0
DWIDTH 36 0
BBX 30 43 3 0
BITMAP
7F8003F8
7F8003F8
7F8007F8
7FC007F8
7FC007F8
7FC007F8
7FC00FF8
7FC00FF8
7FE00FF8
7FE00FF8
7FE00FF8
7FE01FF8
7FE01FFC
7FF01FFC
7FF01EFC
7FF03EFC
7FF03EFC
7FF03EFC
7FF83EFC
7CF87CFC
FCF87CFC
FCF87CFC
FCF87CFC
FCFC7CFC
FC7CF8FC
FC7CF8FC
FC7CF8FC
FC7EF8FC
FC3FF0FC
FC3FF0FC
FC3FF0FC
FC3FF0FC
FC3FF0FC
FC1FE0FC
FC1FE0FC
FC1FE0FC
FC1FE0FC
FC0FE0FC
FC0FC0FC
FC0FC0FC
FC0FC0FC
FC07C0FC
FC07C0FC
ENDCHAR
STARTCHAR 004E
ENCODING 78
SWIDTH 549 0
DWIDTH 29 0
BBX 23 43 3 0
BITMAP
FC00FE
FC00FE
FE00FE
FE00FE
FF00FE
FF00FE
FF00FE
FF80FE
FF80FE
FFC0FE
FFC0FE
FFE0FE
FFE0FE
FFE0FE
FFF0FE
FFF0FE
FFF8FE
FFF8FE
FFFCFE
FFFCFE
FEFCFE
FEFEFE
FE7EFE
FE7FFE
FE7FFE
FE3FFE
FE3FFE
FE1FFE
FE1FFE
FE0FFE
FE0FFE
FE0FFE
FE07FE
FE07FE
FE03FE
FE03FE
FE01FE
FE01FE
FE00FE
FE00FE
FE00FE
FE007E
FE007E
ENDCHAR
STARTCHAR 004F
ENCODING 79
SWIDTH 568 0
DWIDTH 30 0
BBX 24 45 3 -1
BITMAP
001000
03FFC0
0FFFF0
1FFFF8
3FFFFC
7FFFFC
7FFFFE
FF81FE
FF00FF
FF00FF
FF00FF
FE00FF
FE00FF
FE00FF
FE00FF
FE00FF
FE00FF
FE00FF
FE00FF
FE00FF
FE00FF
FE00FF
FE00FF
FE00FF
FE00FF
FE00FF
FE00FF
FE00FF
FE00FF
FE00FF
FE00FF
FE00FF
FE00FF
FE00FF
FF00FF
FF00FF
FF00FF
7F81FE
7FFFFE
7FFFFC
3FFFFC
1FFFF8
0FFFF0
03FFC0
001000
ENDCHAR
STARTCHAR 0050
ENCODING 80
SWIDTH 511 0
DWIDTH 27 0
BBX 24 43 3 0
BITMAP
FFFF00
FFFFE0
FFFFF0
FFFFF8
FFFFFC
FF03FC
FF01FE
FF00FE
FF00FE
FF00FE
FF00FE
FF00FF
FF00FF
FF00FE
FF00FE
FF00FE
FF00FE
FF01FE
FF07FC
FFFFFC
FFFFF8
FFFFF0
FFFFE0
FFFF00
FF0000
FF0000
FF0000
FF0000
FF0000
FF0000
FF0000
FF0000
FF0000
FF0000
FF0000
FF0000
FF0000
FF0000
FF0000
FF0000
FF0000
FF0000
FF0000
ENDCHAR
STARTCHAR 0051
ENCODING 81
SWIDTH 568 0
DWIDTH 30 0
BBX 24 53 3 -9
BITMAP
001000
03FFC0
0FFFF0
1FFFF8
3FFFFC
7FFFFC
7FFFFE
FF81FE
FF00FF
FF00FF
FF00FF
FE00FF
FE00FF
FE00FF
FE00FF
FE00FF
FE00FF
FE00FF
FE00FF
FE00FF
FE00FF
FE00FF
FE00FF
FE00FF
FE00FF
FE00FF
FE00FF
FE00FF
FE00FF
FE00FF
FE00FF
FE00FF
FE00FF
FE00FF
FF00FF
FF00FF
FF00FF
7F81FE
7FFFFE
7FFFFC
3FFFFC
1FFFF8
0FFFE0
03FFE0
0017E0
0007F0
0003F8
0001FC
0000FC
00007C
00003C
000018
000008
ENDCHAR
STARTCHAR 0052
ENCODING 82
SWIDTH 549 0
DWIDTH 29 0
BBX 25 43 3 0
BITMAP
FFFF0000
FFFFE000
FFFFF000
FFFFF800
FFFFFC00
FF07FE00
FF01FE00
FF00FE00
FF00FE00
FF00FF00
FF00FF00
FF00FF00
FF00FF00
FF00FF00
FF00FE00
FF00FE00
FF01FE00
FF07FE00
FFFFFC00
FFFFF800
FFFFF000
FFFFE000
FFFFE000
FF0FE000
FF0FE000
FF0FF000
FF0FF000
FF07F000
FF07F800
FF07F800
FF07F800
FF03F800
FF03FC00
FF03FC00
FF03FC00
FF01FE00
FF01FE00
FF01FE00
FF01FE00
FF00FF00
FF00FF00
FF00FF00
FF00FF80
ENDCHAR
STARTCHAR 0053
ENCODING 83
SWIDTH 492 0
DWIDTH 26 0
BBX 23 45 2 -1
BITMAP
001000
03FF00
0FFFC0
1FFFE0
3FFFF0
7FFFF0
7FEFF8
7F03F8
FF03F8
FF01FC
FE01FC
FF01FC
FF01F8
FF0100
7F8000
7FC000
7FE000
3FF000
3FF800
1FFC00
0FFE00
07FF00
03FF80
01FFC0
007FE0
003FF0
001FF8
000FF8
0007FC
0003FC
0603FC
FE01FE
FE01FE
FE01FE
FE01FE
7F01FE
7F01FE
7F83FC
3FFFFC
3FFFF8
1FFFF8
0FFFF0
07FFE0
01FF80
000800
ENDCHAR
STARTCHAR 0054
ENCODING 84
SWIDTH 416 0
DWIDTH 22 0
BBX 22 43 0 0
BITMAP
FFFFFC
FFFFFC
FFFFFC
FFFFFC
FFFFFC
FFFFFC
01FE00
01FE00
01FE00
01FE00
01FE00
01FE00
01FE00
01FE00
01FE00
01FE00
01FE00
01FE00
01FE00
01FE00
01FE00
01FE00
01FE00
01FE00
01FE00
01FE00
01FE00
01FE00
01FE00
01FE00
01FE00
01FE00
01FE00
01FE00
01FE00
01FE00
01FE00
01FE00
01FE00
01FE00
01FE00
01FE00
01FE00
ENDCHAR
STARTCHAR 0055
ENCODING 85
SWIDTH 568 0
DWIDTH 30 0
BBX 24 44 3 -1
BITMAP
FE00FF
FE00FF
FE00FF
FE00FF
FE00FF
FE00FF
FE00FF
FE00FF
FE00FF
FE00FF
FE00FF
FE00FF
FE00FF
FE00FF
FE00FF
FE00FF
FE00FF
FE00FF
FE00FF
FE00FF
FE00FF
FE00FF
FE00FF
FE00FF
FE00FF
FE00FF
FE00FF
FE00FF
FE00FF
FE00FF
FE00FF
FE00FF
FF00FF
FF00FF
FF00FF
7F01FE
7F81FE
7FFFFE
3FFFFC
3FFFFC
1FFFF8
0FFFF0
03FFC0
001000
ENDCHAR
STARTCHAR 0056
ENCODING 86
SWIDTH 511 0
DWIDTH 27 0
BBX 25 43 1 0
BITMAP
FE003F80
FE003F80
FF003F80
FF007F80
7F007F00
7F007F00
7F007F00
7F807F00
7F807E00
3F80FE00
3F80FE00
3F80FE00
3FC0FE00
1FC0FC00
1FC0FC00
1FC1FC00
1FC1FC00
1FC1FC00
0FE1F800
0FE1F800
0FE3F800
0FE3F800
0FE3F800
07F3F000
07F3F000
07F3F000
07F7F000
03F7F000
03FFE000
03FFE000
03FFE000
03FFE000
01FFE000
01FFC000
01FFC000
01FFC000
00FFC000
00FFC000
00FF8000
00FF8000
00FF8000
007F8000
007F8000
ENDCHAR
STARTCHAR 0057
ENCODING 87
SWIDTH 720 0
DWIDTH 38 0
BBX 34 43 2 0
BITMAP
FC01F00FC0
FE01F00FC0
FE03F00FC0
FE03F01FC0
FE03F01FC0
7E03F81FC0
7E03F81F80
7E07F81F80
7E07F81F80
7F07F81F80
7F07FC1F80
7F07FC3F80
3F07FC3F80
3F0FFC3F00
3F0FFC3F00
3F0FFC3F00
3F0FFE3F00
3F8FFE3F00
3F9F7E3F00
1F9F3E7F00
1F9F3E7E00
1F9F3F7E00
1F9F3F7E00
1F9E3F7E00
1FBE1F7E00
1FFE1F7E00
0FFE1FFE00
0FFE1FFC00
0FFE1FFC00
0FFC1FFC00
0FFC0FFC00
0FFC0FFC00
0FFC0FFC00
07FC0FFC00
07F80FF800
07F807F800
07F807F800
07F807F800
07F807F800
07F007F800
03F007F800
03F003F000
03F003F000
ENDCHAR
STARTCHAR 0058
ENCODING 88
SWIDTH 492 0
DWIDTH 26 0
BBX 25 43 1 0
BITMAP
FE007F00
FF007F00
7F007E00
7F80FE00
3F80FE00
3F80FC00
3FC1FC00
1FC1F800
1FE3F800
0FE3F800
0FE3F000
07F7F000
07F7F000
07FFE000
03FFE000
03FFC000
01FFC000
01FFC000
01FF8000
00FF8000
00FF0000
00FF0000
01FF0000
01FF8000
01FF8000
03FFC000
03FFC000
07FFE000
07FFE000
07EFE000
0FEFF000
0FE7F000
0FC7F800
1FC3F800
1F83FC00
3F83FC00
3F81FC00
3F01FE00
7F00FE00
7E00FF00
FE007F00
FE007F80
FC007F80
ENDCHAR
STARTCHAR 0059
ENCODING 89
SWIDTH 492 0
DWIDTH 26 0
BBX 25 43 0 0
BITMAP
FF003F80
7F003F80
7F803F80
7F807F00
3F807F00
3FC07F00
3FC0FE00
1FC0FE00
1FE0FE00
1FE1FC00
0FE1FC00
0FF1F800
0FF1F800
07F3F800
07F3F000
07FBF000
03FFF000
03FFE000
03FFE000
01FFE000
01FFC000
01FFC000
00FFC000
00FF8000
00FF8000
007F8000
007F0000
007F8000
007F8000
007F8000
007F8000
007F8000
007F8000
007F8000
007F8000
007F8000
007F8000
007F8000
007F8000
007F8000
007F8000
007F8000
007F8000
ENDCHAR
STARTCHAR 005A
ENCODING 90
SWIDTH 435 0
DWIDTH 23 0
BBX 19 43 2 0
BITMAP
FFFFE0
FFFFE0
FFFFE0
FFFFE0
FFFFE0
000FE0
001FC0
001FC0
003FC0
003F80
003F80
007F80
007F00
007F00
00FE00
00FE00
00FE00
01FC00
01FC00
01FC00
03F800
03F800
07F800
07F000
07F000
0FF000
0FE000
0FE000
1FE000
1FC000
1FC000
3FC000
3F8000
3F8000
7F8000
7F0000
FF0000
FE0000
FFFFE0
FFFFE0
FFFFE0
FFFFE0
FFFFE0
ENDCHAR
STARTCHAR 005B
ENCODING 91
SWIDTH 341 0
DWIDTH 18 0
BBX 13 52 3 -9
BITMAP
FFF8
FFF8
FFF8
FC00
FC00
FC00
FC00
FC00
FC00
FC00
FC00
FC00
FC00
FC00
FC00
FC00
FC00
FC00
FC00
FC00
FC00
FC00
FC00
FC00
FC00
FC00
FC00
FC00
FC00
FC00
FC00
FC00
FC00
FC00
FC00
FC00
FC00
FC00
FC00
FC00
FC00
FC00
FC00
FC00
FC00
FC00
FC00
FC00
FC00
FFF8
FFF8
FFF8
ENDCHAR
STARTCHAR 005C
ENCODING 92
SWIDTH 397 0
DWIDTH 21 0
BBX 17 43 2 0
BITMAP
F80000
F80000
7C0000
7C0000
7C0000
7C0000
3E0000
3E0000
3E0000
1F0000
1F0000
1F0000
1F0000
0F8000
0F8000
0F8000
07C000
07C000
07C000
07C000
03E000
03E000
03E000
01F000
01F000
01F000
01F000
00F800
00F800
00F800
007C00
007C00
007C00
007C00
003E00
003E00
003E00
003F00
001F00
001F00
001F00
000F80
000F80
ENDCHAR
STARTCHAR 005D
ENCODING 93
SWIDTH 322 0
DWIDTH 17 0
BBX 13 52 1 -9
BITMAP
FFF8
FFF8
FFF8
03F8
03F8
03F8
03F8
03F8
03F8
03F8
03F8
03F8
03F8
03F8
03F8
03F8
03F8
03F8
03F8
03F8
03F8
03F8
03F8
03F8
03F8
03F8
03F8
03F8
03F8
03F8
03F8
03F8
03F8
03F8
03F8
03F8
03F8
03F8
03F8
03F8
03F8
03F8
03F8
03F8
03F8
03F8
03F8
03F8
03F8
FFF8
FFF8
FFF8
ENDCHAR
STARTCHAR 005E
ENCODING 94
SWIDTH 473 0
DWIDTH 25 0
BBX 21 18 2 25
BITMAP
01FC00
01FC00
03FE00
03FE00
07FE00
07FF00
07FF00
0FDF80
0F9F80
1F9FC0
1F8FC0
3F0FE0
3F07E0
7F07E0
7E07F0
7E03F0
FC03F8
FC03F8
ENDCHAR
STARTCHAR 005F
ENCODING 95
SWIDTH 360 0
DWIDTH 19 0
BBX 19 5 0 -7
BITMAP
FFFFE0
FFFFE0
FFFFE0
FFFFE0
FFFFE0
ENDCHAR
STARTCHAR 0060
ENCODING 96
SWIDTH 303 0
DWIDTH 16 0
BBX 10 11 3 32
BITMAP
FE00
7E00
7F00
3F00
3F00
1F80
1F80
0F80
0780
07C0
03C0
ENDCHAR
STARTCHAR 0061
ENCODING 97
SWIDTH 454 0
DWIDTH 24 0
BBX 20 31 2 0
BITMAP
01FC00
0FFF00
1FFF80
3FFFC0
3FFFE0
7F9FE0
7F0FE0
7F0FE0
7F0FE0
FE0FE0
000FE0
000FE0
003FE0
00FFE0
03FFE0
0FFFE0
1FEFE0
3FCFE0
7F8FE0
7F0FE0
FE0FE0
FE0FE0
FE0FE0
FE0FE0
FE0FE0
FF1FE0
7FFFF0
7FF7F0
3FF7F0
1FE7F0
0F87F0
ENDCHAR
STARTCHAR 0062
ENCODING 98
SWIDTH 473 0
DWIDTH 25 0
BBX 20 43 3 0
BITMAP
FE0000
FE0000
FE0000
FE0000
FE0000
FE0000
FE0000
FE0000
FE0000
FE0000
FE0000
FE0000
FE1F00
FE7F80
FFFFC0
FFFFE0
FFFFE0
FF0FE0
FE0FF0
FE07F0
FE07F0
FE07F0
FE07F0
FE07F0
FE07F0
FE07F0
FE07F0
FE07F0
FE07F0
FE07F0
FE07F0
FE07F0
FE07F0
FE07F0
FE07F0
FE07F0
FE0FF0
FF0FE0
FFFFE0
FFFFE0
FFFFC0
FEFF80
FE3E00
ENDCHAR
STARTCHAR 0063
ENCODING 99
SWIDTH 435 0
DWIDTH 23 0
BBX 19 31 2 0
BITMAP
03FC00
0FFF00
1FFF80
3FFFC0
7FFFC0
7F9FE0
7F0FE0
FF0FE0
FE0FE0
FE07E0
FE07E0
FE07E0
FE0000
FE0000
FE0000
FE0000
FE0000
FE0000
FE0000
FE07E0
FE07E0
FE07E0
FE0FE0
7F0FE0
7F0FE0
7F8FE0
7FFFC0
3FFFC0
1FFF80
0FFF00
03FC00
ENDCHAR
STARTCHAR 0064
ENCODING 100
SWIDTH 473 0
DWIDTH 25 0
BBX 20 43 2 0
BITMAP
0007F0
0007F0
0007F0
0007F0
0007F0
0007F0
0007F0
0007F0
0007F0
0007F0
0007F0
0007F0
07C7F0
1FF7F0
3FFFF0
3FFFF0
7FFFF0
7F8FF0
7F07F0
7F07F0
FF07F0
FF07F0
FF07F0
FF07F0
FF07F0
FF07F0
FF07F0
FF07F0
FF07F0
FF07F0
FF07F0
FF07F0
FF07F0
FF07F0
FF07F0
FF07F0
7F07F0
7F8FF0
7FFFF0
3FFFF0
3FFFF0
1FF7F0
07C7F0
ENDCHAR
STARTCHAR 0065
ENCODING 101
SWIDTH 454 0
DWIDTH 24 0
BBX 20 31 2 0
BITMAP
03FC00
0FFF00
1FFF80
3FFFC0
7FFFC0
7F9FE0
7F0FE0
7F0FE0
FE07E0
FE07E0
FE07E0
FE07E0
FFFFF0
FFFFF0
FFFFF0
FFFFF0
FE0000
FE0000
FE0000
FE0000
FE07E0
FE07E0
FE07E0
7F0FE0
7F0FE0
7F0FE0
7FFFE0
3FFFC0
1FFF80
0FFF00
03FC00
ENDCHAR
STARTCHAR 0066
ENCODING 102
SWIDTH 303 0
DWIDTH 16 0
BBX 15 41 1 1
BITMAP
01FE
07FE
0FFE
0FFE
0FFE
1FE0
1FE0
1FE0
1FC0
1FC0
FFFE
FFFE
FFFE
FFFE
FFFE
1FC0
1FC0
1FC0
1FC0
1FC0
1FC0
1FC0
1FC0
1FC0
1FC0
1FC0
1FC0
1FC0
1FC0
1FC0
1FC0
1FC0
1FC0
1FC0
1FC0
1FC0
1FC0
1FC0
1FC0
1FC0
1FC0
ENDCHAR
STARTCHAR 0067
ENCODING 103
SWIDTH 473 0
DWIDTH 25 0
BBX 24 41 1 -9
BITMAP
000002
01FC0E
07FF1E
0FFFBF
1FFFFF
1FFFFC
3F87F0
3F87E0
3F03F0
7F03F0
7F03F0
7F03F0
7F03F0
7F03F0
7F03F0
3F03F0
3F87F0
3F87F0
1FFFE0
1FFFE0
0FFFC0
0FFF80
1EFE00
3E0000
7E0000
7F8000
7FFF80
7FFFE0
3FFFF8
0FFFF8
1FFFFC
3F01FC
7E00FC
7E007C
FE00FC
FF01FC
FFFFFC
FFFFF8
7FFFF8
3FFFE0
07FF80
ENDCHAR
STARTCHAR 0068
ENCODING 104
SWIDTH 473 0
DWIDTH 25 0
BBX 20 43 3 0
BITMAP
FE0000
FE0000
FE0000
FE0000
FE0000
FE0000
FE0000
FE0000
FE0000
FE0000
FE0000
FE0000
FE0F80
FE7FC0
FEFFE0
FFFFE0
FFFFF0
FF8FF0
FF0FF0
FE07F0
FE07F0
FE07F0
FE07F0
FE07F0
FE07F0
FE07F0
FE07F0
FE07F0
FE07F0
FE07F0
FE07F0
FE07F0
FE07F0
FE07F0
FE07F0
FE07F0
FE07F0
FE07F0
FE07F0
FE07F0
FE07F0
FE07F0
FE07F0
ENDCHAR
STARTCHAR 0069
ENCODING 105
SWIDTH 246 0
DWIDTH 13 0
BBX 7 41 3 0
BITMAP
FE
FE
FE
FE
FE
FE
00
00
00
00
FE
FE
FE
FE
FE
FE
FE
FE
FE
FE
FE
FE
FE
FE
FE
FE
FE
FE
FE
FE
FE
FE
FE
FE
FE
FE
FE
FE
FE
FE
FE
ENDCHAR
STARTCHAR 006A
ENCODING 106
SWIDTH 246 0
DWIDTH 13 0
BBX 12 50 -1 -8
BITMAP
0FF0
0FF0
0FF0
0FF0
0FF0
0FF0
0000
0000
0000
0000
0000
0FF0
0FF0
0FF0
0FF0
0FF0
0FF0
0FF0
0FF0
0FF0
0FF0
0FF0
0FF0
0FF0
0FF0
0FF0
0FF0
0FF0
0FF0
0FF0
0FF0
0FF0
0FF0
0FF0
0FF0
0FF0
0FF0
0FF0
0FF0
0FF0
0FF0
0FF0
0FF0
0FF0
1FE0
FFE0
FFE0
FFC0
FF80
FE00
ENDCHAR
STARTCHAR 006B
ENCODING 107
SWIDTH 492 0
DWIDTH 26 0
BBX 23 43 3 0
BITMAP
FE0000
FE0000
FE0000
FE0000
FE0000
FE0000
FE0000
FE0000
FE0000
FE0000
FE0000
FE0000
FE01FE
FE03FC
FE07F8
FE07F0
FE0FF0
FE1FE0
FE1FE0
FE3FC0
FE3F80
FE7F80
FEFF00
FEFF00
FFFE00
FFFE00
FFFF00
FFFF00
FFBF80
FF3F80
FF3F80
FE1FC0
FE1FC0
FE1FE0
FE0FE0
FE0FF0
FE0FF0
FE07F0
FE07F8
FE03F8
FE03FC
FE03FC
FE01FC
ENDCHAR
STARTCHAR 006C
ENCODING 108
SWIDTH 246 0
DWIDTH 13 0
BBX 7 43 3 0
BITMAP
FE
FE
FE
FE
FE
FE
FE
FE
FE
FE
FE
FE
FE
FE
FE
FE
FE
FE
FE
FE
FE
FE
FE
FE
FE
FE
FE
FE
FE
FE
FE
FE
FE
FE
FE
FE
FE
FE
FE
FE
FE
FE
FE
ENDCHAR
STARTCHAR 006D
ENCODING 109
SWIDTH 720 0
DWIDTH 38 0
BBX 32 31 3 0
BITMAP
FE1F00F8
FE7FC3FE
FFFFCFFE
FFFFFFFF
FFFFFFFF
FF8FFC7F
FE0FF07F
FE07F03F
FE07F03F
FE07F03F
FE07F03F
FE07F03F
FE07F03F
FE07F03F
FE07F03F
FE07F03F
FE07F03F
FE07F03F
FE07F03F
FE07F03F
FE07F03F
FE07F03F
FE07F03F
FE07F03F
FE07F03F
FE07F03F
FE07F03F
FE07F03F
FE07F03F
FE07F03F
FE07F03F
ENDCHAR
STARTCHAR 006E
ENCODING 110
SWIDTH 473 0
DWIDTH 25 0
BBX 20 31 3 0
BITMAP
FE0F80
FE7FC0
FEFFE0
FFFFE0
FFFFE0
FF8FE0
FE0FF0
FE0FF0
FE0FF0
FE0FF0
FE0FF0
FE0FF0
FE0FF0
FE0FF0
FE0FF0
FE0FF0
FE0FF0
FE0FF0
FE0FF0
FE0FF0
FE0FF0
FE0FF0
FE0FF0
FE0FF0
FE0FF0
FE0FF0
FE0FF0
FE0FF0
FE0FF0
FE0FF0
FE0FF0
ENDCHAR
STARTCHAR 006F
ENCODING 111
SWIDTH 454 0
DWIDTH 24 0
BBX 20 31 2 0
BITMAP
03FC00
0FFF00
1FFF80
3FFFC0
7FFFE0
7F9FE0
7F0FE0
FF0FF0
FE07F0
FE07F0
FE07F0
FE07F0
FE07F0
FE07F0
FE07F0
FE07F0
FE07F0
FE07F0
FE07F0
FE07F0
FE07F0
FE07F0
FE07F0
FF0FF0
7F0FE0
7F9FE0
7FFFE0
3FFFC0
1FFF80
0FFF00
03FC00
ENDCHAR
STARTCHAR 0070
ENCODING 112
SWIDTH 473 0
DWIDTH 25 0
BBX 20 41 3 -10
BITMAP
FE3F00
FEFF80
FFFFC0
FFFFE0
FFFFE0
FF1FE0
FE0FF0
FE07F0
FE07F0
FE07F0
FE07F0
FE07F0
FE07F0
FE07F0
FE07F0
FE07F0
FE07F0
FE07F0
FE07F0
FE07F0
FE07F0
FE07F0
FE07F0
FE0FF0
FE0FF0
FF0FE0
FFFFE0
FFFFC0
FFFFC0
FEFF80
FE3E00
FE0000
FE0000
FE0000
FE0000
FE0000
FE0000
FE0000
FE0000
FE0000
FE0000
ENDCHAR
STARTCHAR 0071
ENCODING 113
SWIDTH 473 0
DWIDTH 25 0
BBX 20 41 2 -10
BITMAP
07C7F0
1FF7F0
3FFFF0
3FFFF0
7FFFF0
7F8FF0
7F07F0
7F07F0
FF07F0
FF07F0
FF07F0
FF07F0
FF07F0
FF07F0
FF07F0
FF07F0
FF07F0
FF07F0
FF07F0
FF07F0
FF07F0
FF07F0
FF07F0
FF07F0
7F07F0
7F8FF0
7FFFF0
3FFFF0
3FFFF0
1FF7F0
07C7F0
0007F0
0007F0
0007F0
0007F0
0007F0
0007F0
0007F0
0007F0
0007F0
0007F0
ENDCHAR
STARTCHAR 0072
ENCODING 114
SWIDTH 341 0
DWIDTH 18 0
BBX 15 31 3 0
BITMAP
FE1E
FE3E
FE7E
FEFE
FFFE
FFFE
FFFE
FFC2
FF80
FF00
FE00
FE00
FE00
FE00
FE00
FE00
FE00
FE00
FE00
FE00
FE00
FE00
FE00
FE00
FE00
FE00
FE00
FE00
FE00
FE00
FE00
ENDCHAR
STARTCHAR 0073
ENCODING 115
SWIDTH 397 0
DWIDTH 21 0
BBX 19 31 1 0
BITMAP
03F800
0FFE00
1FFF00
3FFF00
3FFF80
7F1FC0
7F0FC0
7E07C0
7F0780
7F0600
7F8000
3FC000
3FF000
1FF800
0FFC00
07FE00
03FF00
01FF80
007FC0
003FC0
001FE0
0C0FE0
7C0FE0
FC0FE0
7E0FE0
7F1FE0
7FFFC0
3FFFC0
1FFF80
0FFE00
03F800
ENDCHAR
STARTCHAR 0074
ENCODING 116
SWIDTH 341 0
DWIDTH 18 0
BBX 15 40 1 0
BITMAP
1FC0
1FC0
1FC0
1FC0
1FC0
1FC0
1FC0
1FC0
1FC0
FFFE
FFFE
FFFE
FFFE
FFFE
1FC0
1FC0
1FC0
1FC0
1FC0
1FC0
1FC0
1FC0
1FC0
1FC0
1FC0
1FC0
1FC0
1FC0
1FC0
1FC0
1FC0
1FC0
1FC0
1FE0
1FFE
0FFE
0FFE
07FE
07FE
01FE
ENDCHAR
STARTCHAR 0075
ENCODING 117
SWIDTH 473 0
DWIDTH 25 0
BBX 19 31 3 0
BITMAP
FE0FE0
FE0FE0
FE0FE0
FE0FE0
FE0FE0
FE0FE0
FE0FE0
FE0FE0
FE0FE0
FE0FE0
FE0FE0
FE0FE0
FE0FE0
FE0FE0
FE0FE0
FE0FE0
FE0FE0
FE0FE0
FE0FE0
FE0FE0
FE0FE0
FE0FE0
FE0FE0
FE0FE0
FE0FE0
FE3FE0
FFFFE0
FFFFE0
FFEFE0
7FCFE0
3F0FE0
ENDCHAR
STARTCHAR 0076
ENCODING 118
SWIDTH 397 0
DWIDTH 21 0
BBX 20 31 1 0
BITMAP
FE07F0
FE07F0
FE0FE0
FE0FE0
7E0FE0
7F0FE0
7F0FE0
7F0FC0
7F0FC0
3F0FC0
3F1FC0
3F1FC0
3F9F80
3F9F80
3F9F80
1F9F80
1F9F80
1FBF00
1FFF00
1FFF00
0FFF00
0FFF00
0FFF00
0FFE00
0FFE00
07FE00
07FE00
07FE00
07FC00
07FC00
03FC00
ENDCHAR
STARTCHAR 0077
ENCODING 119
SWIDTH 606 0
DWIDTH 32 0
BBX 29 31 1 0
BITMAP
FC0FC0F8
FC0FC1F8
FE0FC1F8
FE0FC1F8
7E1FC1F0
7E1FC1F0
7E1FE1F0
7E1FE1F0
7E1FE3F0
7F1FE3F0
3F3FE3F0
3F3FE3E0
3F3FF3E0
3F3FF3E0
3F3DF7E0
3F3DF7E0
1F3CF7E0
1FFCF7C0
1FFCFFC0
1FF8FFC0
1FF8FFC0
1FF8FFC0
0FF87FC0
0FF87FC0
0FF07F80
0FF07F80
0FF07F80
0FF03F80
07F03F80
07E03F80
07E03F00
ENDCHAR
STARTCHAR 0078
ENCODING 120
SWIDTH 416 0
DWIDTH 22 0
BBX 22 31 0 0
BITMAP
7F01F8
7F03F8
3F83F0
3F83F0
1FC7E0
1FC7E0
0FEFC0
0FEFC0
0FFFC0
07FF80
07FF80
03FF00
03FF00
01FE00
01FE00
01FE00
01FE00
03FF00
03FF00
07FF00
07FF80
0FFF80
0FDFC0
0FDFC0
1F8FE0
1F8FE0
3F8FF0
3F07F0
7F07F8
7E03F8
FE03FC
ENDCHAR
STARTCHAR 0079
ENCODING 121
SWIDTH 416 0
DWIDTH 22 0
BBX 22 39 0 -8
BITMAP
FF03FC
7F03F8
7F03F8
7F03F8
7F03F8
3F83F0
3F87F0
3F87F0
3F87F0
1F87F0
1FC7E0
1FC7E0
1FC7E0
0FCFE0
0FCFC0
0FEFC0
0FEFC0
07EFC0
07EF80
07FF80
03FF80
03FF80
03FF80
03FF00
01FF00
01FF00
01FF00
01FE00
00FE00
00FE00
00FE00
00FE00
00FC00
01FC00
1FFC00
1FF800
1FF000
1FE000
1F0000
ENDCHAR
STARTCHAR 007A
ENCODING 122
SWIDTH 378 0
DWIDTH 20 0
BBX 16 31 2 0
BITMAP
7FFF
7FFF
7FFF
7FFF
7FFF
00FF
00FE
00FE
01FC
01FC
03FC
03F8
03F8
07F0
07F0
0FE0
0FE0
1FE0
1FC0
1FC0
3F80
3F80
7F80
7F00
7F00
FE00
FFFF
FFFF
FFFF
FFFF
FFFF
ENDCHAR
STARTCHAR 007B
ENCODING 123
SWIDTH 341 0
DWIDTH 18 0
BBX 15 54 2 -11
BITMAP
001E
03FE
07FE
07FE
0FFE
0FFE
0FE0
0FE0
0FE0
0FE0
0FE0
0FE0
0FE0
0FE0
0FE0
0FE0
0FE0
0FE0
0FE0
1FE0
1FE0
1FE0
1FC0
1FC0
3FC0
FF80
FF80
FE00
FF80
FF80
3FC0
1FC0
1FC0
1FE0
1FE0
1FE0
0FE0
0FE0
0FE0
0FE0
0FE0
0FE0
0FE0
0FE0
0FE0
0FE0
0FE0
0FE0
0FF0
0FFE
0FFE
07FE
03FE
01FE
ENDCHAR
STARTCHAR 007C
ENCODING 124
SWIDTH 246 0
DWIDTH 13 0
BBX 6 51 4 -8
BITMAP
FC
FC
FC
FC
FC
FC
FC
FC
FC
FC
FC
FC
FC
FC
FC
FC
FC
FC
FC
FC
FC
FC
FC
FC
FC
FC
FC
FC
FC
FC
FC
FC
FC
FC
FC
FC
FC
FC
FC
FC
FC
FC
FC
FC
FC
FC
FC
FC
FC
FC
FC
ENDCHAR
STARTCHAR 007D
ENCODING 125
SWIDTH 360 0
DWIDTH 19 0
BBX 15 54 2 -11
BITMAP
F000
FF00
FFC0
FFC0
FFE0
FFE0
0FE0
0FE0
0FE0
0FE0
0FE0
0FE0
0FE0
0FE0
0FE0
0FE0
0FE0
0FE0
0FE0
0FE0
0FE0
0FE0
0FE0
07F0
07F0
07FE
03FE
00FE
03FE
07FE
07F0
07F0
0FE0
0FE0
0FE0
0FE0
0FE0
0FE0
0FE0
0FE0
0FE0
0FE0
0FE0
0FE0
0FE0
0FE0
0FE0
0FE0
1FE0
FFE0
FFE0
FFC0
FF80
FE00
ENDCHAR
STARTCHAR 007E
ENCODING 126
SWIDTH 473 0
DWIDTH 25 0
BBX 21 8 2 19
BITMAP
0F8000
1FE060
3FF8F0
FFFFF8
FFFFF0
78FFE0
203FC0
000F80
ENDCHAR
STARTCHAR 00A0
ENCODING 160
SWIDTH 246 0
DWIDTH 13 0
BBX 0 0 0 0
BITMAP
ENDCHAR
STARTCHAR 00A1
ENCODING 161
SWIDTH 227 0
DWIDTH 12 0
BBX 8 43 2 -9
BITMAP
7F
7F
7F
7F
7F
7F
7F
00
00
00
18
18
18
18
1C
1C
1C
1C
3C
3C
3C
3C
3C
3C
3C
3C
3C
3C
3C
7E
7E
7E
7E
7E
7E
7E
7E
7E
7E
7E
FE
FE
FE
ENDCHAR
STARTCHAR 00A2
ENCODING 162
SWIDTH 416 0
DWIDTH 22 0
BBX 19 41 2 -5
BITMAP
00C000
00C000
00C000
00C000
00C000
03FC00
0FFF00
1FFF80
3FFFC0
7FFFC0
7F9FE0
7F0FE0
FF0FE0
FE0FE0
FE0FE0
FE0FE0
FE0FE0
FE0000
FE0000
FE0000
FE0000
FE0000
FE0000
FE0000
FE0FE0
FE0FE0
FE0FE0
FE0FE0
FF0FE0
7F0FE0
7F1FE0
7FFFC0
3FFFC0
1FFF80
0FFF00
03FC00
00C000
00C000
00C000
00C000
00C000
ENDCHAR
STARTCHAR 00A3
ENCODING 163
SWIDTH 435 0
DWIDTH 23 0
BBX 22 44 0 0
BITMAP
000400
007FC0
01FFE0
03FFF0
07FFF8
07FFF8
07FFF8
0FF1FC
0FE0FC
0FE0FC
0FE0FC
0FE0FC
0FE0FC
0FE000
0FE000
0FE000
0FE000
0FE000
0FE000
0FE000
0FE000
FFFF80
FFFF80
FFFF80
FFFF80
FFFF80
0FE000
0FE000
0FE000
0FE000
0FE000
0FE000
0FE000
0FE000
0FE000
0FE000
0FE000
0FE000
0FFFFC
3FFFFC
FFFFFC
FFFFFC
FFFFFC
FFFFFC
ENDCHAR
STARTCHAR 00A4
ENCODING 164
SWIDTH 549 0
DWIDTH 29 0
BBX 25 24 2 10
BITMAP
C0000080
607F8100
31FFE600
1FC0FC00
0F003800
1E001C00
1C000E00
38000E00
38000600
30000700
30000700
30000700
30000700
30000700
30000700
38000600
38000E00
1C001E00
0E001C00
0F007800
1FC1F400
31FFE200
607F0100
C0000080
ENDCHAR
STARTCHAR 00A5
ENCODING 165
SWIDTH 473 0
DWIDTH 25 0
BBX 25 43 0 0
BITMAP
FF003F80
7F003F80
7F003F00
7F807F00
3F807F00
3F807F00
3FC0FE00
1FC0FE00
1FC0FE00
1FC1FC00
0FE1FC00
0FE1FC00
0FE1F800
07F3F800
07F3F800
07F3F000
03F7F000
03FFF000
03FFE000
01FFE000
01FFE000
01FFC000
01FFC000
00FFC000
00FFC000
07FFF800
07FFF800
07FFF800
07FFF800
007F8000
007F8000
007F8000
007F8000
07FFF800
07FFF800
07FFF800
07FFF800
007F8000
007F8000
007F8000
007F8000
007F8000
007F8000
ENDCHAR
STARTCHAR 00A6
ENCODING 166
SWIDTH 208 0
DWIDTH 11 0
BBX 5 52 3 -9
BITMAP
F8
F8
F8
F8
F8
F8
F8
F8
F8
F8
F8
F8
F8
F8
F8
F8
F8
F8
F8
F8
F8
F8
00
00
00
00
00
00
00
00
F8
F8
F8
F8
F8
F8
F8
F8
F8
F8
F8
F8
F8
F8
F8
F8
F8
F8
F8
F8
F8
F8
ENDCHAR
STARTCHAR 00A7
ENCODING 167
SWIDTH 454 0
DWIDTH 24 0
BBX 20 44 2 0
BITMAP
004000
07FC00
1FFF00
3FFF80
7FFFC0
7FFFC0
FF0FE0
FE07E0
FE03F0
FE0380
7F0000
7F8000
3FE000
1FF800
0FFC00
0FFF00
1FFF80
3FFFC0
7FFFC0
7F1FE0
7E0FE0
FE07E0
FE07E0
7E07E0
7F87E0
7FEFE0
3FFFC0
1FFF80
0FFF00
03FF00
00FF80
007FC0
001FE0
000FE0
0007E0
3C07E0
FC07E0
7E07E0
7F0FE0
3FFFE0
3FFFC0
1FFF80
0FFF00
01FC00
ENDCHAR
STARTCHAR 00A8
ENCODING 168
SWIDTH 416 0
DWIDTH 22 0
BBX 16 7 3 36
BITMAP
FC3F
FC3F
FC3F
FC3F
FC3F
FC3F
FC3F
ENDCHAR
STARTCHAR 00A9
ENCODING 169
SWIDTH 871 0
DWIDTH 46 0
BBX 42 45 2 -1
BITMAP
0000FFC00000
0007FFFC0000
003F807F0000
007C00078000
01F00001E000
03C00000F000
078000003800
07007FC01C00
0E01FFF01C00
1C07FFF80E00
1C0FFFFC0700
380FFFFE0700
381FF1FE0300
701FE0FE0380
701FC0FE0180
601FC0FE0180
E03FC0FE01C0
E03FC0FE01C0
E03FC00000C0
E03FC00000C0
E03FC00000C0
E03FC00000C0
E03FC00000C0
E03FC00000C0
E03FC00000C0
E03FC0FE00C0
E03FC0FE01C0
E03FC0FE01C0
601FC0FE01C0
701FC0FE0180
701FE0FE0380
701FE1FE0380
380FFFFC0300
380FFFFC0700
1C07FFF80E00
1E03FFF00E00
0E007FC01C00
070000003800
038000007000
01E00000E000
00F80003C000
007E001F8000
001FFFFE0000
0003FFF00000
000004000000
ENDCHAR
STARTCHAR 00AA
ENCODING 170
SWIDTH 473 0
DWIDTH 25 0
BBX 17 27 4 16
BITMAP
004000
07FC00
1FFE00
3FFF00
3FFF00
7FFF00
7E3F80
7E1F80
7E1F80
FE1F80
001F80
001F80
00FF80
07FF80
1FDF80
3F9F80
7E1F80
FE1F80
FC1F80
FC1F80
FC3F80
FE7F80
FFFF80
FFFF80
7FDF80
7F9F80
1F1F80
ENDCHAR
STARTCHAR 00AB
ENCODING 171
SWIDTH 473 0
DWIDTH 25 0
BBX 20 27 2 2
BITMAP
008010
008010
018030
038070
038070
0780F0
0F81F0
1F83F0
3F07F0
3F07E0
7E0FC0
FC1F80
F81F00
F81F00
F81F00
FC1F80
7E0FC0
7F07E0
3F07E0
1F83F0
0F81F0
0780F0
0780F0
038070
018030
008010
008010
ENDCHAR
STARTCHAR 00AC
ENCODING 172
SWIDTH 435 0
DWIDTH 23 0
BBX 19 12 2 13
BITMAP
FFFFE0
FFFFE0
FFFFE0
FFFFE0
FFFFE0
0000E0
0000E0
0000E0
0000E0
0000E0
0000E0
0000E0
ENDCHAR
STARTCHAR 00AD
ENCODING 173
SWIDTH 360 0
DWIDTH 19 0
BBX 13 5 3 22
BITMAP
FFF8
FFF8
FFF8
FFF8
FFF8
ENDCHAR
STARTCHAR 00AE
ENCODING 174
SWIDTH 890 0
DWIDTH 47 0
BBX 42 45 3 -1
BITMAP
000008000000
0003FFF00000
001FFFFC0000
007FF3FF0000
00FC001FC000
03F00007E000
07C00001F000
0F800000F800
0F0000007800
1E0FFF803C00
3C0FFFE01E00
3C0FFFF00E00
780FFFF80F00
780FC3FC0700
700FC1FC0700
F00FC0FC0780
E00FC0FC0380
E00FC0FC0380
E00FC0FC0380
E00FC1F803C0
E00FC3F803C0
E00FFFF003C0
E00FFFE003C0
E00FFFC003C0
E00FCFC003C0
E00FC7E003C0
E00FC7E00380
E00FC3F00380
E00FC3F00380
F00FC3F00780
700FC1F80780
700FC1F80700
780FC1F80F00
380FC0FC0E00
3C0FC0FC1E00
1E0FC0FE3C00
0F0000007800
0F800000F800
07C00001F000
03E00003E000
00FC001FC000
007FE1FF0000
001FFFFC0000
0007FFF00000
000008000000
ENDCHAR
STARTCHAR 00AF
ENCODING 175
SWIDTH 246 0
DWIDTH 13 0
BBX 12 4 1 39
BITMAP
FFF0
FFF0
FFF0
FFF0
ENDCHAR
STARTCHAR 00B0
ENCODING 176
SWIDTH 492 0
DWIDTH 26 0
BBX 20 19 3 25
BITMAP
002000
07FE00
0FFF80
3FFFC0
3FFFE0
7E07E0
7C03F0
7C01F0
F801F0
F801F0
F801F0
F801F0
7C03F0
7E03E0
7F0FE0
3FFFC0
1FFF80
0FFF00
01FC00
ENDCHAR
STARTCHAR 00B1
ENCODING 177
SWIDTH 416 0
DWIDTH 22 0
BBX 16 25 3 0
BITMAP
03E0
03E0
03E0
03E0
03E0
FFFF
FFFF
FFFF
FFFF
FFFF
03E0
03E0
03E0
03E0
03E0
03E0
0000
0000
0000
0000
FFFF
FFFF
FFFF
FFFF
FFFF
ENDCHAR
STARTCHAR 00B2
ENCODING 178
SWIDTH 435 0
DWIDTH 23 0
BBX 16 31 4 16
BITMAP
07F0
1FFC
3FFE
3FFE
7E3F
7E1F
7C1F
FC1F
FC1F
FC1F
001F
003F
003F
007E
00FE
00FC
01F8
01F8
03F0
07E0
07E0
0FC0
1F80
1F80
3F00
7E00
7E00
FFFF
FFFF
FFFF
FFFF
ENDCHAR
STARTCHAR 00B3
ENCODING 179
SWIDTH 435 0
DWIDTH 23 0
BBX 17 32 4 17
BITMAP
07F000
1FFC00
3FFE00
7FFF00
7FFF00
FE3F00
FC1F80
FC1F80
FC1F80
FC1F80
FC1F80
001F00
001F00
003E00
03FE00
03F800
03FE00
03FE00
003F00
001F00
001F80
FC1F80
FC1F80
FC1F80
FC1F80
FC1F80
FE3F00
7FFF00
7FFF00
3FFE00
1FFC00
07F000
ENDCHAR
STARTCHAR 00B4
ENCODING 180
SWIDTH 303 0
DWIDTH 16 0
BBX 10 11 3 32
BITMAP
1FC0
1FC0
3F80
3F00
3F00
3E00
7E00
7C00
7C00
F800
F000
ENDCHAR
STARTCHAR 00B5
ENCODING 181
SWIDTH 473 0
DWIDTH 25 0
BBX 20 40 2 -9
BITMAP
FF07F0
FF07F0
FF07F0
FF07F0
FF07F0
FF07F0
FF07F0
FF07F0
FF07F0
FF07F0
FF07F0
FF07F0
FF07F0
FF07F0
FF07F0
FF07F0
FF07F0
FF07F0
FF07F0
FF07F0
FF07F0
FF07F0
FF07F0
FF07F0
FF07F0
FF1FF0
FFFFF0
FFFFF0
FFFFF0
FFE7F0
7FC7F0
7F0000
7F0000
7F0000
7F0000
7F0000
7F0000
7F0000
7F0000
7F0000
ENDCHAR
STARTCHAR 00B6
ENCODING 182
SWIDTH 511 0
DWIDTH 27 0
BBX 21 48 2 -5
BITMAP
03FFF8
1FFFF8
3FFFF8
7FFFF8
7FF878
FFF878
FFF878
FFF878
FFF878
FFF878
FFF878
FFF878
7FF878
7FF878
3FF878
0FF878
00F878
00F878
00F878
00F878
00F878
00F878
00F878
00F878
00F878
00F878
00F878
00F878
00F878
00F878
00F878
00F878
00F878
00F878
00F878
00F878
00F878
00F878
00F878
00F878
00F878
00F878
00F878
00F878
00F878
00F878
00F878
00F878
ENDCHAR
STARTCHAR 00B7
ENCODING 183
SWIDTH 189 0
DWIDTH 10 0
BBX 7 7 2 16
BITMAP
FE
FE
FE
FE
FE
FE
FE
ENDCHAR
STARTCHAR 00B8
ENCODING 184
SWIDTH 265 0
DWIDTH 14 0
BBX 11 14 2 -14
BITMAP
3800
3800
3800
3800
3F00
3FC0
07E0
03E0
03E0
07E0
FFE0
FFE0
FFC0
7F00
ENDCHAR
STARTCHAR 00B9
ENCODING 185
SWIDTH 435 0
DWIDTH 23 0
BBX 10 31 5 16
BITMAP
03C0
07C0
3FC0
FFC0
FFC0
FFC0
FFC0
07C0
07C0
07C0
07C0
07C0
07C0
07C0
07C0
07C0
07C0
07C0
07C0
07C0
07C0
07C0
07C0
07C0
07C0
07C0
07C0
07C0
07C0
07C0
07C0
ENDCHAR
STARTCHAR 00BA
ENCODING 186
SWIDTH 473 0
DWIDTH 25 0
BBX 17 28 4 16
BITMAP
008000
0FF800
3FFC00
7FFE00
7FFF00
FFFF00
FC3F80
FC1F80
FC1F80
FC1F80
FC1F80
FC1F80
FC1F80
FC1F80
FC1F80
FC1F80
FC1F80
FC1F80
FC1F80
FC1F80
FC1F80
FC3F80
FE3F00
FFFF00
7FFF00
3FFE00
1FFC00
07F000
ENDCHAR
STARTCHAR 00BB
ENCODING 187
SWIDTH 492 0
DWIDTH 26 0
BBX 21 27 3 2
BITMAP
801000
801000
C01800
E01C00
F01E00
F01F00
F81F00
FC1F80
FE0FC0
7F0FE0
3F07F0
1F83F0
0FC1F8
07C0F8
0FC1F8
1F83F0
3F07E0
7F0FE0
7E0FC0
FC1F80
F81F00
F01E00
F01E00
E01C00
C01800
801000
801000
ENDCHAR
STARTCHAR 00BC
ENCODING 188
SWIDTH 757 0
DWIDTH 40 0
BBX 34 43 3 0
BITMAP
070003E000
0F0007C000
1F0007C000
3F000F8000
FF000F8000
FF000F0000
FF001F0000
DF001F0000
1F001E0000
1F003E0000
1F003C0000
1F007C0000
1F007C0000
1F00780000
1F00F80000
1F00F00000
1F01F00000
1F01F00000
1F01E00000
1F03E00000
1F03C01E00
0003C01E00
0007C03E00
0007803E00
000F807E00
000F00FE00
000F00FE00
001F01DE00
001E01DE00
001E039E00
003C039E00
003C071E00
007C0F1E00
00780E1E00
00780FFFC0
00F00FFFC0
00F00FFFC0
01F0001E00
01E0001E00
01E0001E00
03C0001E00
03C0001E00
07C0001E00
ENDCHAR
STARTCHAR 00BD
ENCODING 189
SWIDTH 757 0
DWIDTH 40 0
BBX 35 43 2 0
BITMAP
030001E000
070003E000
0F0003C000
3F0003C000
7F00078000
FF00078000
FF000F8000
FF000F0000
1F000F0000
1F001E0000
1F001E0000
1F003E0000
1F003C0000
1F003C0000
1F00780000
1F00780000
1F00780000
1F00F00000
1F00F00000
1F01E00000
1F01E00000
0001E03F00
0003C0FF80
0003C1FFC0
000781F3C0
000781E3E0
000783E3E0
000F03E3E0
000F0003E0
001E0003E0
001E0007C0
001E0007C0
003C000F80
003C001F80
0078003F00
0078003E00
0078007C00
00F000F800
00F000F800
01E001F000
01E001FFE0
01E001FFE0
03C001FFE0
ENDCHAR
STARTCHAR 00BE
ENCODING 190
SWIDTH 757 0
DWIDTH 40 0
BBX 35 44 3 0
BITMAP
0400000000
3F8001F000
7FC001E000
FFE003E000
F1E003E000
F1E007C000
F1E007C000
01E0078000
01E00F8000
03E00F8000
0FC00F0000
0F001F0000
0FC01E0000
03E03E0000
01E03E0000
01E03C0000
F1E07C0000
F1E0780000
FFE0F80000
7FC0F80000
1F00F00000
0001F00F80
0001E00F80
0001E01F80
0003E01F80
0003C03F80
0007C03F80
0007807F80
000780EF80
000F80EF80
000F01CF80
001F01CF80
001E038F80
001E038F80
003E070F80
003C07FFE0
003C07FFE0
007807FFE0
0078000F80
00F8000F80
00F0000F80
00F0000F80
01E0000F80
01E0000F80
ENDCHAR
STARTCHAR 00BF
ENCODING 191
SWIDTH 530 0
DWIDTH 28 0
BBX 22 43 3 -9
BITMAP
003F80
003F80
003F80
003F80
003F80
003F80
003F80
000000
000000
000000
000000
003F80
003F80
003F80
003F80
003F80
003F80
007F80
00FF00
01FE00
03FC00
07F800
0FF000
1FE000
1FC000
3FC000
3F8000
7F8000
7F0000
7F0008
7F00FC
FF01FC
FF01FC
FF01FC
7F01FC
7F01FC
7FC3FC
7FFFF8
3FFFF8
1FFFF0
0FFFE0
07FFC0
00FF00
ENDCHAR
STARTCHAR 00C0
ENCODING 192
SWIDTH 530 0
DWIDTH 28 0
BBX 26 57 1 0
BITMAP
07F00000
03F80000
03F80000
01F80000
01F80000
00FC0000
007C0000
007C0000
003E0000
003E0000
001E0000
00000000
00000000
00000000
007F8000
007F8000
007F8000
007FC000
00FFC000
00FFC000
00FFC000
00FFC000
01FFE000
01FFE000
01FFE000
01FFE000
01F7F000
03F7F000
03F7F000
03F3F000
03F3F000
03F3F800
07F3F800
07E3F800
07E3F800
07E1FC00
0FE1FC00
0FE1FC00
0FE1FC00
0FC1FC00
0FC1FE00
1FC0FE00
1FFFFE00
1FFFFE00
1FFFFE00
3FFFFF00
3FFFFF00
3F807F00
3F807F00
3F807F80
7F807F80
7F007F80
7F007F80
7F003F80
FF003FC0
FF003FC0
FE003FC0
ENDCHAR
STARTCHAR 00C1
ENCODING 193
SWIDTH 530 0
DWIDTH 28 0
BBX 26 57 1 0
BITMAP
0003F800
0003F000
0007F000
0007E000
0007E000
000FC000
000FC000
000F8000
000F0000
001F0000
001E0000
00000000
00000000
00000000
007F8000
007F8000
007F8000
007FC000
00FFC000
00FFC000
00FFC000
00FFC000
01FFE000
01FFE000
01FFE000
01FFE000
01F7F000
03F7F000
03F7F000
03F3F000
03F3F000
03F3F800
07F3F800
07E3F800
07E3F800
07E1FC00
0FE1FC00
0FE1FC00
0FE1FC00
0FC1FC00
0FC1FE00
1FC0FE00
1FFFFE00
1FFFFE00
1FFFFE00
3FFFFF00
3FFFFF00
3F807F00
3F807F00
3F807F80
7F807F80
7F007F80
7F007F80
7F003F80
FF003FC0
FF003FC0
FE003FC0
ENDCHAR
STARTCHAR 00C2
ENCODING 194
SWIDTH 530 0
DWIDTH 28 0
BBX 26 56 1 0
BITMAP
003F0000
007F8000
007F8000
00FFC000
00FFC000
01F3E000
01F3E000
03E1F000
03E1F000
07C1F800
00000000
00000000
00000000
007F8000
007F8000
007F8000
007FC000
00FFC000
00FFC000
00FFC000
00FFC000
01FFE000
01FFE000
01FFE000
01FFE000
01F7F000
03F7F000
03F7F000
03F3F000
03F3F000
03F3F800
07F3F800
07E3F800
07E3F800
07E1FC00
0FE1FC00
0FE1FC00
0FE1FC00
0FC1FC00
0FC1FE00
1FC0FE00
1FFFFE00
1FFFFE00
1FFFFE00
3FFFFF00
3FFFFF00
3F807F00
3F807F00
3F807F80
7F807F80
7F007F80
7F007F80
7F003F80
FF003FC0
FF003FC0
FE003FC0
ENDCHAR
STARTCHAR 00C3
ENCODING 195
SWIDTH 530 0
DWIDTH 28 0
BBX 26 54 1 0
BITMAP
00800000
03F07800
07FC7800
07FFF800
0FFFF000
0FFFF000
0F0FF000
0F03E000
00000000
00000000
00000000
007F8000
007F8000
007F8000
007FC000
00FFC000
00FFC000
00FFC000
00FFC000
01FFE000
01FFE000
01FFE000
01FFE000
01F7F000
03F7F000
03F7F000
03F3F000
03F3F000
03F3F800
07F3F800
07E3F800
07E3F800
07E1FC00
0FE1FC00
0FE1FC00
0FE1FC00
0FC1FC00
0FC1FE00
1FC0FE00
1FFFFE00
1FFFFE00
1FFFFE00
3FFFFF00
3FFFFF00
3F807F00
3F807F00
3F807F80
7F807F80
7F007F80
7F007F80
7F003F80
FF003FC0
FF003FC0
FE003FC0
ENDCHAR
STARTCHAR 00C4
ENCODING 196
SWIDTH 530 0
DWIDTH 28 0
BBX 26 54 1 0
BITMAP
07E1F800
07E1F800
07E1F800
07E1F800
07E1F800
07E1F800
07E1F800
00000000
00000000
00000000
00000000
007F8000
007F8000
007F8000
007FC000
00FFC000
00FFC000
00FFC000
00FFC000
01FFE000
01FFE000
01FFE000
01FFE000
01F7F000
03F7F000
03F7F000
03F3F000
03F3F000
03F3F800
07F3F800
07E3F800
07E3F800
07E1FC00
0FE1FC00
0FE1FC00
0FE1FC00
0FC1FC00
0FC1FE00
1FC0FE00
1FFFFE00
1FFFFE00
1FFFFE00
3FFFFF00
3FFFFF00
3F807F00
3F807F00
3F807F80
7F807F80
7F007F80
7F007F80
7F003F80
FF003FC0
FF003FC0
FE003FC0
ENDCHAR
STARTCHAR 00C5
ENCODING 197
SWIDTH 530 0
DWIDTH 28 0
BBX 26 56 1 0
BITMAP
00040000
007F8000
00FFC000
00FFE000
01E1E000
01C0E000
01C0E000
01E0E000
01E1E000
00FFC000
007FC000
003F0000
00000000
007F8000
007F8000
007F8000
007FC000
00FFC000
00FFC000
00FFC000
00FFC000
01FFE000
01FFE000
01FFE000
01FFE000
01F7F000
03F7F000
03F7F000
03F3F000
03F3F000
03F3F800
07F3F800
07E3F800
07E3F800
07E1FC00
0FE1FC00
0FE1FC00
0FE1FC00
0FC1FC00
0FC1FE00
1FC0FE00
1FFFFE00
1FFFFE00
1FFFFE00
3FFFFF00
3FFFFF00
3F807F00
3F807F00
3F807F80
7F807F80
7F007F80
7F007F80
7F003F80
FF003FC0
FF003FC0
FE003FC0
ENDCHAR
STARTCHAR 00C6
ENCODING 198
SWIDTH 663 0
DWIDTH 35 0
BBX 36 43 -2 0
BITMAP
00001FFFF0
00003FFFF0
00003FFFF0
00003FFFF0
00007FFFF0
00007FC000
0000FFC000
0000FFC000
0001FFC000
0001FFC000
0003FFC000
0003FFC000
0003FFC000
0007FFC000
0007FFC000
000FDFC000
000FDFC000
001F9FC000
001F9FFF80
003F9FFF80
003F1FFF80
003F1FFF80
007F1FFF80
007E1FC000
00FE1FC000
00FC1FC000
01FC1FC000
01FC1FC000
03FFFFC000
03FFFFC000
03FFFFC000
07FFFFC000
07FFFFC000
0FF01FC000
0FE01FC000
1FE01FC000
1FC01FC000
3FC01FC000
3F801FFFF0
7F801FFFF0
7F801FFFF0
7F001FFFF0
FF001FFFF0
ENDCHAR
STARTCHAR 00C7
ENCODING 199
SWIDTH 549 0
DWIDTH 29 0
BBX 23 58 3 -14
BITMAP
001000
03FFC0
0FFFE0
1FFFF0
3FFFF8
7FFFFC
7FFFFC
FF81FE
FF01FE
FF00FE
FF00FE
FE00FE
FE00FE
FE00FE
FE00FE
FE00FE
FE00FE
FE0000
FE0000
FE0000
FE0000
FE0000
FE0000
FE0000
FE0000
FE0000
FE0000
FE0000
FE00FE
FE00FE
FE00FE
FE00FE
FE00FE
FE00FE
FF00FE
FF00FE
FF01FE
7F81FE
7FFFFC
7FFFFC
3FFFF8
1FFFF0
0FFFE0
03FF80
003800
003800
003800
003800
003F00
003FC0
0007E0
0003E0
0003E0
0007E0
00FFE0
00FFE0
00FFC0
007F00
ENDCHAR
STARTCHAR 00C8
ENCODING 200
SWIDTH 435 0
DWIDTH 23 0
BBX 18 57 3 0
BITMAP
7F0000
3F8000
3F8000
1F8000
1F8000
0FC000
07C000
07C000
03E000
03E000
01E000
000000
000000
000000
FFFFC0
FFFFC0
FFFFC0
FFFFC0
FFFFC0
FF0000
FF0000
FF0000
FF0000
FF0000
FF0000
FF0000
FF0000
FF0000
FF0000
FF0000
FF0000
FF0000
FFFF00
FFFF00
FFFF00
FFFF00
FFFF00
FF0000
FF0000
FF0000
FF0000
FF0000
FF0000
FF0000
FF0000
FF0000
FF0000
FF0000
FF0000
FF0000
FF0000
FF0000
FFFFC0
FFFFC0
FFFFC0
FFFFC0
FFFFC0
ENDCHAR
STARTCHAR 00C9
ENCODING 201
SWIDTH 435 0
DWIDTH 23 0
BBX 18 57 3 0
BITMAP
003F80
003F00
007F00
007E00
007E00
00FC00
00FC00
00F800
00F000
01F000
01E000
000000
000000
000000
FFFFC0
FFFFC0
FFFFC0
FFFFC0
FFFFC0
FF0000
FF0000
FF0000
FF0000
FF0000
FF0000
FF0000
FF0000
FF0000
FF0000
FF0000
FF0000
FF0000
FFFF00
FFFF00
FFFF00
FFFF00
FFFF00
FF0000
FF0000
FF0000
FF0000
FF0000
FF0000
FF0000
FF0000
FF0000
FF0000
FF0000
FF0000
FF0000
FF0000
FF0000
FFFFC0
FFFFC0
FFFFC0
FFFFC0
FFFFC0
ENDCHAR
STARTCHAR 00CA
ENCODING 202
SWIDTH 435 0
DWIDTH 23 0
BBX 18 56 3 0
BITMAP
03F000
07F800
07F800
0FFC00
0FFC00
1F3E00
1F3E00
3E1F00
3E1F00
7C1F80
000000
000000
000000
FFFFC0
FFFFC0
FFFFC0
FFFFC0
FFFFC0
FF0000
FF0000
FF0000
FF0000
FF0000
FF0000
FF0000
FF0000
FF0000
FF0000
FF0000
FF0000
FF0000
FFFF00
FFFF00
FFFF00
FFFF00
FFFF00
FF0000
FF0000
FF0000
FF0000
FF0000
FF0000
FF0000
FF0000
FF0000
FF0000
FF0000
FF0000
FF0000
FF0000
FF0000
FFFFC0
FFFFC0
FFFFC0
FFFFC0
FFFFC0
ENDCHAR
STARTCHAR 00CB
ENCODING 203
SWIDTH 435 0
DWIDTH 23 0
BBX 18 54 3 0
BITMAP
7E1F80
7E1F80
7E1F80
7E1F80
7E1F80
7E1F80
7E1F80
000000
000000
000000
000000
FFFFC0
FFFFC0
FFFFC0
FFFFC0
FFFFC0
FF0000
FF0000
FF0000
FF0000
FF0000
FF0000
FF0000
FF0000
FF0000
FF0000
FF0000
FF0000
FF0000
FFFF00
FFFF00
FFFF00
FFFF00
FFFF00
FF0000
FF0000
FF0000
FF0000
FF0000
FF0000
FF0000
FF0000
FF0000
FF0000
FF0000
FF0000
FF0000
FF0000
FF0000
FFFFC0
FFFFC0
FFFFC0
FFFFC0
FFFFC0
ENDCHAR
STARTCHAR 00CC
ENCODING 204
SWIDTH 284 0
DWIDTH 15 0
BBX 12 57 -1 0
BITMAP
FE00
7F00
7F00
3F00
3F00
1F80
0F80
0F80
07C0
07C0
03C0
0000
0000
0000
0FF0
0FF0
0FF0
0FF0
0FF0
0FF0
0FF0
0FF0
0FF0
0FF0
0FF0
0FF0
0FF0
0FF0
0FF0
0FF0
0FF0
0FF0
0FF0
0FF0
0FF0
0FF0
0FF0
0FF0
0FF0
0FF0
0FF0
0FF0
0FF0
0FF0
0FF0
0FF0
0FF0
0FF0
0FF0
0FF0
0FF0
0FF0
0FF0
0FF0
0FF0
0FF0
0FF0
ENDCHAR
STARTCHAR 00CD
ENCODING 205
SWIDTH 284 0
DWIDTH 15 0
BBX 12 57 3 0
BITMAP
07F0
07E0
0FE0
0FC0
0FC0
1F80
1F80
1F00
1E00
3E00
3C00
0000
0000
0000
FF00
FF00
FF00
FF00
FF00
FF00
FF00
FF00
FF00
FF00
FF00
FF00
FF00
FF00
FF00
FF00
FF00
FF00
FF00
FF00
FF00
FF00
FF00
FF00
FF00
FF00
FF00
FF00
FF00
FF00
FF00
FF00
FF00
FF00
FF00
FF00
FF00
FF00
FF00
FF00
FF00
FF00
FF00
ENDCHAR
STARTCHAR 00CE
ENCODING 206
SWIDTH 284 0
DWIDTH 15 0
BBX 16 56 -1 0
BITMAP
07E0
0FF0
0FF0
1FF8
1FF8
3E7C
3E7C
7C3E
7C3E
F83F
0000
0000
0000
0FF0
0FF0
0FF0
0FF0
0FF0
0FF0
0FF0
0FF0
0FF0
0FF0
0FF0
0FF0
0FF0
0FF0
0FF0
0FF0
0FF0
0FF0
0FF0
0FF0
0FF0
0FF0
0FF0
0FF0
0FF0
0FF0
0FF0
0FF0
0FF0
0FF0
0FF0
0FF0
0FF0
0FF0
0FF0
0FF0
0FF0
0FF0
0FF0
0FF0
0FF0
0FF0
0FF0
ENDCHAR
STARTCHAR 00CF
ENCODING 207
SWIDTH 284 0
DWIDTH 15 0
BBX 16 54 -1 0
BITMAP
FC3F
FC3F
FC3F
FC3F
FC3F
FC3F
FC3F
0000
0000
0000
0000
0FF0
0FF0
0FF0
0FF0
0FF0
0FF0
0FF0
0FF0
0FF0
0FF0
0FF0
0FF0
0FF0
0FF0
0FF0
0FF0
0FF0
0FF0
0FF0
0FF0
0FF0
0FF0
0FF0
0FF0
0FF0
0FF0
0FF0
0FF0
0FF0
0FF0
0FF0
0FF0
0FF0
0FF0
0FF0
0FF0
0FF0
0FF0
0FF0
0FF0
0FF0
0FF0
0FF0
ENDCHAR
STARTCHAR 00D0
ENCODING 208
SWIDTH 530 0
DWIDTH 28 0
BBX 26 43 1 0
BITMAP
3FFF8000
3FFFF000
3FFFFC00
3FFFFE00
3FFFFF00
3FC1FF00
3FC07F80
3FC07F80
3FC07F80
3FC03F80
3FC03F80
3FC03FC0
3FC03FC0
3FC03FC0
3FC03FC0
3FC03FC0
3FC03FC0
3FC03FC0
3FC03FC0
FFF03FC0
FFF03FC0
FFF03FC0
FFF03FC0
3FC03FC0
3FC03FC0
3FC03FC0
3FC03FC0
3FC03FC0
3FC03FC0
3FC03FC0
3FC03FC0
3FC03FC0
3FC03F80
3FC07F80
3FC07F80
3FC07F80
3FC0FF80
3FC1FF00
3FFFFE00
3FFFFE00
3FFFFC00
3FFFF000
3FFF8000
ENDCHAR
STARTCHAR 00D1
ENCODING 209
SWIDTH 549 0
DWIDTH 29 0
BBX 23 54 3 0
BITMAP
010000
07E0F0
0FF8F0
0FFFF0
1FFFE0
1FFFE0
1E1FE0
1E07C0
000000
000000
000000
FC00FE
FC00FE
FE00FE
FE00FE
FF00FE
FF00FE
FF00FE
FF80FE
FF80FE
FFC0FE
FFC0FE
FFE0FE
FFE0FE
FFE0FE
FFF0FE
FFF0FE
FFF8FE
FFF8FE
FFFCFE
FFFCFE
FEFCFE
FEFEFE
FE7EFE
FE7FFE
FE7FFE
FE3FFE
FE3FFE
FE1FFE
FE1FFE
FE0FFE
FE0FFE
FE0FFE
FE07FE
FE07FE
FE03FE
FE03FE
FE01FE
FE01FE
FE00FE
FE00FE
FE00FE
FE007E
FE007E
ENDCHAR
STARTCHAR 00D2
ENCODING 210
SWIDTH 568 0
DWIDTH 30 0
BBX 24 58 3 -1
BITMAP
0FE000
07F000
07F000
03F000
03F000
01F800
00F800
00F800
007C00
007C00
003C00
000000
000000
001000
03FFC0
0FFFF0
1FFFF8
3FFFFC
7FFFFC
7FFFFE
FF81FE
FF00FF
FF00FF
FF00FF
FE00FF
FE00FF
FE00FF
FE00FF
FE00FF
FE00FF
FE00FF
FE00FF
FE00FF
FE00FF
FE00FF
FE00FF
FE00FF
FE00FF
FE00FF
FE00FF
FE00FF
FE00FF
FE00FF
FE00FF
FE00FF
FE00FF
FE00FF
FF00FF
FF00FF
FF00FF
7F81FE
7FFFFE
7FFFFC
3FFFFC
1FFFF8
0FFFF0
03FFC0
001000
ENDCHAR
STARTCHAR 00D3
ENCODING 211
SWIDTH 568 0
DWIDTH 30 0
BBX 24 58 3 -1
BITMAP
0007F0
0007E0
000FE0
000FC0
000FC0
001F80
001F80
001F00
001E00
003E00
003C00
000000
000000
001000
03FFC0
0FFFF0
1FFFF8
3FFFFC
7FFFFC
7FFFFE
FF81FE
FF00FF
FF00FF
FF00FF
FE00FF
FE00FF
FE00FF
FE00FF
FE00FF
FE00FF
FE00FF
FE00FF
FE00FF
FE00FF
FE00FF
FE00FF
FE00FF
FE00FF
FE00FF
FE00FF
FE00FF
FE00FF
FE00FF
FE00FF
FE00FF
FE00FF
FE00FF
FF00FF
FF00FF
FF00FF
7F81FE
7FFFFE
7FFFFC
3FFFFC
1FFFF8
0FFFF0
03FFC0
001000
ENDCHAR
STARTCHAR 00D4
ENCODING 212
SWIDTH 568 0
DWIDTH 30 0
BBX 24 57 3 -1
BITMAP
007E00
00FF00
00FF00
01FF80
01FF80
03E7C0
03E7C0
07C3E0
07C3E0
0F83F0
000000
000000
001000
03FFC0
0FFFF0
1FFFF8
3FFFFC
7FFFFC
7FFFFE
FF81FE
FF00FF
FF00FF
FF00FF
FE00FF
FE00FF
FE00FF
FE00FF
FE00FF
FE00FF
FE00FF
FE00FF
FE00FF
FE00FF
FE00FF
FE00FF
FE00FF
FE00FF
FE00FF
FE00FF
FE00FF
FE00FF
FE00FF
FE00FF
FE00FF
FE00FF
FE00FF
FF00FF
FF00FF
FF00FF
7F81FE
7FFFFE
7FFFFC
3FFFFC
1FFFF8
0FFFF0
03FFC0
001000
ENDCHAR
STARTCHAR 00D5
ENCODING 213
SWIDTH 568 0
DWIDTH 30 0
BBX 24 55 3 -1
BITMAP
010000
07E0F0
0FF8F0
0FFFF0
1FFFE0
1FFFE0
1E1FE0
1E07C0
000000
000000
001000
03FFC0
0FFFF0
1FFFF8
3FFFFC
7FFFFC
7FFFFE
FF81FE
FF00FF
FF00FF
FF00FF
FE00FF
FE00FF
FE00FF
FE00FF
FE00FF
FE00FF
FE00FF
FE00FF
FE00FF
FE00FF
FE00FF
FE00FF
FE00FF
FE00FF
FE00FF
FE00FF
FE00FF
FE00FF
FE00FF
FE00FF
FE00FF
FE00FF
FE00FF
FF00FF
FF00FF
FF00FF
7F81FE
7FFFFE
7FFFFC
3FFFFC
1FFFF8
0FFFF0
03FFC0
001000
ENDCHAR
STARTCHAR 00D6
ENCODING 214
SWIDTH 568 0
DWIDTH 30 0
BBX 24 55 3 -1
BITMAP
0FC3F0
0FC3F0
0FC3F0
0FC3F0
0FC3F0
0FC3F0
0FC3F0
000000
000000
000000
001000
03FFC0
0FFFF0
1FFFF8
3FFFFC
7FFFFC
7FFFFE
FF81FE
FF00FF
FF00FF
FF00FF
FE00FF
FE00FF
FE00FF
FE00FF
FE00FF
FE00FF
FE00FF
FE00FF
FE00FF
FE00FF
FE00FF
FE00FF
FE00FF
FE00FF
FE00FF
FE00FF
FE00FF
FE00FF
FE00FF
FE00FF
FE00FF
FE00FF
FE00FF
FF00FF
FF00FF
FF00FF
7F81FE
7FFFFE
7FFFFC
3FFFFC
1FFFF8
0FFFF0
03FFC0
001000
ENDCHAR
STARTCHAR 00D7
ENCODING 215
SWIDTH 435 0
DWIDTH 23 0
BBX 17 17 3 13
BITMAP
100400
380E00
7C1F00
FE3F80
7F7F00
3FFE00
1FFC00
0FF800
07F000
0FF800
1FFC00
3FFE00
7F7F00
FE3F80
FC1F00
380E00
100400
ENDCHAR
STARTCHAR 00D8
ENCODING 216
SWIDTH 549 0
DWIDTH 29 0
BBX 24 51 3 -5
BITMAP
000020
000030
000030
001070
03FFE0
0FFFE0
1FFFF8
3FFFFC
7FFFFC
7FFFFE
FF81FE
FF01FF
FF03FF
FF03FF
FE03FF
FE03FF
FE06FF
FE06FF
FE06FF
FE0CFF
FE0CFF
FE0CFF
FE18FF
FE18FF
FE18FF
FE38FF
FE30FF
FE30FF
FE70FF
FE60FF
FE60FF
FEE0FF
FEC0FF
FEC0FF
FEC0FF
FF80FF
FF80FF
FF80FF
FF00FF
FF00FF
7F81FE
7FFFFE
7FFFFC
3FFFFC
1FFFF8
0FFFF0
0FFFC0
1C1000
1C0000
180000
180000
ENDCHAR
STARTCHAR 00D9
ENCODING 217
SWIDTH 568 0
DWIDTH 30 0
BBX 24 58 3 -1
BITMAP
0FE000
07F000
07F000
03F000
03F000
01F800
00F800
00F800
007C00
007C00
003C00
000000
000000
000000
FE00FF
FE00FF
FE00FF
FE00FF
FE00FF
FE00FF
FE00FF
FE00FF
FE00FF
FE00FF
FE00FF
FE00FF
FE00FF
FE00FF
FE00FF
FE00FF
FE00FF
FE00FF
FE00FF
FE00FF
FE00FF
FE00FF
FE00FF
FE00FF
FE00FF
FE00FF
FE00FF
FE00FF
FE00FF
FE00FF
FE00FF
FE00FF
FF00FF
FF00FF
FF00FF
7F01FE
7F81FE
7FFFFE
3FFFFC
3FFFFC
1FFFF8
0FFFF0
03FFC0
001000
ENDCHAR
STARTCHAR 00DA
ENCODING 218
SWIDTH 568 0
DWIDTH 30 0
BBX 24 58 3 -1
BITMAP
0007F0
0007E0
000FE0
000FC0
000FC0
001F80
001F80
001F00
001E00
003E00
003C00
000000
000000
000000
FE00FF
FE00FF
FE00FF
FE00FF
FE00FF
FE00FF
FE00FF
FE00FF
FE00FF
FE00FF
FE00FF
FE00FF
FE00FF
FE00FF
FE00FF
FE00FF
FE00FF
FE00FF
FE00FF
FE00FF
FE00FF
FE00FF
FE00FF
FE00FF
FE00FF
FE00FF
FE00FF
FE00FF
FE00FF
FE00FF
FE00FF
FE00FF
FF00FF
FF00FF
FF00FF
7F01FE
7F81FE
7FFFFE
3FFFFC
3FFFFC
1FFFF8
0FFFF0
03FFC0
001000
ENDCHAR
STARTCHAR 00DB
ENCODING 219
SWIDTH 568 0
DWIDTH 30 0
BBX 24 57 3 -1
BITMAP
007E00
00FF00
00FF00
01FF80
01FF80
03E7C0
03E7C0
07C3E0
07C3E0
0F83F0
000000
000000
000000
FE00FF
FE00FF
FE00FF
FE00FF
FE00FF
FE00FF
FE00FF
FE00FF
FE00FF
FE00FF
FE00FF
FE00FF
FE00FF
FE00FF
FE00FF
FE00FF
FE00FF
FE00FF
FE00FF
FE00FF
FE00FF
FE00FF
FE00FF
FE00FF
FE00FF
FE00FF
FE00FF
FE00FF
FE00FF
FE00FF
FE00FF
FE00FF
FF00FF
FF00FF
FF00FF
7F01FE
7F81FE
7FFFFE
3FFFFC
3FFFFC
1FFFF8
0FFFF0
03FFC0
001000
ENDCHAR
STARTCHAR 00DC
ENCODING 220
SWIDTH 568 0
DWIDTH 30 0
BBX 24 55 3 -1
BITMAP
0FC3F0
0FC3F0
0FC3F0
0FC3F0
0FC3F0
0FC3F0
0FC3F0
000000
000000
000000
000000
FE00FF
FE00FF
FE00FF
FE00FF
FE00FF
FE00FF
FE00FF
FE00FF
FE00FF
FE00FF
FE00FF
FE00FF
FE00FF
FE00FF
FE00FF
FE00FF
FE00FF
FE00FF
FE00FF
FE00FF
FE00FF
FE00FF
FE00FF
FE00FF
FE00FF
FE00FF
FE00FF
FE00FF
FE00FF
FE00FF
FE00FF
FE00FF
FF00FF
FF00FF
FF00FF
7F01FE
7F81FE
7FFFFE
3FFFFC
3FFFFC
1FFFF8
0FFFF0
03FFC0
001000
ENDCHAR
STARTCHAR 00DD
ENCODING 221
SWIDTH 492 0
DWIDTH 26 0
BBX 25 57 0 0
BITMAP
0003F800
0003F000
0007F000
0007E000
0007E000
000FC000
000FC000
000F8000
000F0000
001F0000
001E0000
00000000
00000000
00000000
FF003F80
7F003F80
7F803F80
7F807F00
3F807F00
3FC07F00
3FC0FE00
1FC0FE00
1FE0FE00
1FE1FC00
0FE1FC00
0FF1F800
0FF1F800
07F3F800
07F3F000
07FBF000
03FFF000
03FFE000
03FFE000
01FFE000
01FFC000
01FFC000
00FFC000
00FF8000
00FF8000
007F8000
007F0000
007F8000
007F8000
007F8000
007F8000
007F8000
007F8000
007F8000
007F8000
007F8000
007F8000
007F8000
007F8000
007F8000
007F8000
007F8000
007F8000
ENDCHAR
STARTCHAR 00DE
ENCODING 222
SWIDTH 530 0
DWIDTH 28 0
BBX 24 43 3 0
BITMAP
FF0000
FF0000
FF0000
FF0000
FF0000
FF0000
FFFF80
FFFFE0
FFFFF8
FFFFFC
FFFFFC
FFFFFE
FF03FE
FF00FF
FF00FF
FF007F
FF007F
FF007F
FF007F
FF007F
FF007F
FF007F
FF00FF
FF00FF
FF03FE
FFFFFE
FFFFFE
FFFFFC
FFFFF8
FFFFE0
FFFF80
FF0000
FF0000
FF0000
FF0000
FF0000
FF0000
FF0000
FF0000
FF0000
FF0000
FF0000
FF0000
ENDCHAR
STARTCHAR 00DF
ENCODING 223
SWIDTH 530 0
DWIDTH 28 0
BBX 23 45 3 -1
BITMAP
004000
07FE00
1FFF80
3FFFC0
3FFFE0
7FFFF0
7F07F0
FF03F0
FE03F8
FE03F8
FE03F8
FE03F8
FE03F8
FE03F8
FE03F8
FE03F0
FE07F0
FE07F0
FE0FE0
FE3FC0
FE3F80
FE3F00
FE3FC0
FE3FE0
FE3FF0
FE0FF8
FE03FC
FE01FC
FE01FC
FE01FE
FE01FE
FE00FE
FE00FE
FE01FE
FE01FE
FE01FC
FE01FC
FE03FC
FE3FFC
FE3FF8
FE3FF0
FE3FE0
FE3FC0
FE3F00
004000
ENDCHAR
STARTCHAR 00E0
ENCODING 224
SWIDTH 454 0
DWIDTH 24 0
BBX 20 45 2 0
BITMAP
3F8000
1FC000
1FC000
0FC000
0FC000
07E000
03E000
03E000
01F000
01F000
00F000
000000
000000
000000
01FC00
0FFF00
1FFF80
3FFFC0
3FFFE0
7F9FE0
7F0FE0
7F0FE0
7F0FE0
FE0FE0
000FE0
000FE0
003FE0
00FFE0
03FFE0
0FFFE0
1FEFE0
3FCFE0
7F8FE0
7F0FE0
FE0FE0
FE0FE0
FE0FE0
FE0FE0
FE0FE0
FF1FE0
7FFFF0
7FF7F0
3FF7F0
1FE7F0
0F87F0
ENDCHAR
STARTCHAR 00E1
ENCODING 225
SWIDTH 454 0
DWIDTH 24 0
BBX 20 45 2 0
BITMAP
001FC0
001F80
003F80
003F00
003F00
007E00
007E00
007C00
007800
00F800
00F000
000000
000000
000000
01FC00
0FFF00
1FFF80
3FFFC0
3FFFE0
7F9FE0
7F0FE0
7F0FE0
7F0FE0
FE0FE0
000FE0
000FE0
003FE0
00FFE0
03FFE0
0FFFE0
1FEFE0
3FCFE0
7F8FE0
7F0FE0
FE0FE0
FE0FE0
FE0FE0
FE0FE0
FE0FE0
FF1FE0
7FFFF0
7FF7F0
3FF7F0
1FE7F0
0F87F0
ENDCHAR
STARTCHAR 00E2
ENCODING 226
SWIDTH 454 0
DWIDTH 24 0
BBX 20 44 2 0
BITMAP
01F800
03FC00
03FC00
07FE00
07FE00
0F9F00
0F9F00
1F0F80
1F0F80
3E0FC0
000000
000000
000000
01FC00
0FFF00
1FFF80
3FFFC0
3FFFE0
7F9FE0
7F0FE0
7F0FE0
7F0FE0
FE0FE0
000FE0
000FE0
003FE0
00FFE0
03FFE0
0FFFE0
1FEFE0
3FCFE0
7F8FE0
7F0FE0
FE0FE0
FE0FE0
FE0FE0
FE0FE0
FE0FE0
FF1FE0
7FFFF0
7FF7F0
3FF7F0
1FE7F0
0F87F0
ENDCHAR
STARTCHAR 00E3
ENCODING 227
SWIDTH 454 0
DWIDTH 24 0
BBX 20 42 2 0
BITMAP
020000
0FC1E0
1FF1E0
1FFFE0
3FFFC0
3FFFC0
3C3FC0
3C0F80
000000
000000
000000
01FC00
0FFF00
1FFF80
3FFFC0
3FFFE0
7F9FE0
7F0FE0
7F0FE0
7F0FE0
FE0FE0
000FE0
000FE0
003FE0
00FFE0
03FFE0
0FFFE0
1FEFE0
3FCFE0
7F8FE0
7F0FE0
FE0FE0
FE0FE0
FE0FE0
FE0FE0
FE0FE0
FF1FE0
7FFFF0
7FF7F0
3FF7F0
1FE7F0
0F87F0
ENDCHAR
STARTCHAR 00E4
ENCODING 228
SWIDTH 454 0
DWIDTH 24 0
BBX 20 41 2 0
BITMAP
3F0FC0
3F0FC0
3F0FC0
3F0FC0
3F0FC0
3F0FC0
3F0FC0
000000
000000
000000
01FC00
0FFF00
1FFF80
3FFFC0
3FFFE0
7F9FE0
7F0FE0
7F0FE0
7F0FE0
FE0FE0
000FE0
000FE0
003FE0
00FFE0
03FFE0
0FFFE0
1FEFE0
3FCFE0
7F8FE0
7F0FE0
FE0FE0
FE0FE0
FE0FE0
FE0FE0
FE0FE0
FF1FE0
7FFFF0
7FF7F0
3FF7F0
1FE7F0
0F87F0
ENDCHAR
STARTCHAR 00E5
ENCODING 229
SWIDTH 454 0
DWIDTH 24 0
BBX 20 47 2 0
BITMAP
002000
03FC00
07FE00
07FF00
0F0F00
0E0700
0E0700
0F0700
0F0F00
07FE00
03FE00
01F800
000000
000000
000000
000000
01FC00
0FFF00
1FFF80
3FFFC0
3FFFE0
7F9FE0
7F0FE0
7F0FE0
7F0FE0
FE0FE0
000FE0
000FE0
003FE0
00FFE0
03FFE0
0FFFE0
1FEFE0
3FCFE0
7F8FE0
7F0FE0
FE0FE0
FE0FE0
FE0FE0
FE0FE0
FE0FE0
FF1FE0
7FFFF0
7FF7F0
3FF7F0
1FE7F0
0F87F0
ENDCHAR
STARTCHAR 00E6
ENCODING 230
SWIDTH 663 0
DWIDTH 35 0
BBX 31 32 2 -1
BITMAP
03F01F80
0FFC7FF0
1FFEFFF8
3FFFFFF8
7FFFFFFC
7FFFF9FC
7F1FF0FE
FF0FF07E
FE0FE07E
FE0FE07E
000FE0FE
000FE1FC
000FE7FC
000FFFF8
003FFFE0
03FFFF00
0FFFE000
1FFFE000
3FCFE000
7F0FE000
7F0FE000
FE0FE0FE
FE0FE0FE
FE0FE0FE
FE0FF0FE
FE1FF1FE
FFFFFFFC
7FFDFFFC
7FFCFFF8
3FF87FF0
1FE03FE0
02000200
ENDCHAR
STARTCHAR 00E7
ENCODING 231
SWIDTH 435 0
DWIDTH 23 0
BBX 19 45 2 -14
BITMAP
03FC00
0FFF00
1FFF80
3FFFC0
7FFFC0
7F9FE0
7F0FE0
FF0FE0
FE0FE0
FE07E0
FE07E0
FE07E0
FE0000
FE0000
FE0000
FE0000
FE0000
FE0000
FE0000
FE07E0
FE07E0
FE07E0
FE0FE0
7F0FE0
7F0FE0
7F8FE0
7FFFC0
3FFFC0
1FFF80
0FFF00
03FC00
007000
007000
007000
007000
007E00
007F80
000FC0
0007C0
0007C0
000FC0
01FFC0
01FFC0
01FF80
00FE00
ENDCHAR
STARTCHAR 00E8
ENCODING 232
SWIDTH 454 0
DWIDTH 24 0
BBX 20 45 2 0
BITMAP
3F8000
1FC000
1FC000
0FC000
0FC000
07E000
03E000
03E000
01F000
01F000
00F000
000000
000000
000000
03FC00
0FFF00
1FFF80
3FFFC0
7FFFC0
7F9FE0
7F0FE0
7F0FE0
FE07E0
FE07E0
FE07E0
FE07E0
FFFFF0
FFFFF0
FFFFF0
FFFFF0
FE0000
FE0000
FE0000
FE0000
FE07E0
FE07E0
FE07E0
7F0FE0
7F0FE0
7F0FE0
7FFFE0
3FFFC0
1FFF80
0FFF00
03FC00
ENDCHAR
STARTCHAR 00E9
ENCODING 233
SWIDTH 454 0
DWIDTH 24 0
BBX 20 45 2 0
BITMAP
001FC0
001F80
003F80
003F00
003F00
007E00
007E00
007C00
007800
00F800
00F000
000000
000000
000000
03FC00
0FFF00
1FFF80
3FFFC0
7FFFC0
7F9FE0
7F0FE0
7F0FE0
FE07E0
FE07E0
FE07E0
FE07E0
FFFFF0
FFFFF0
FFFFF0
FFFFF0
FE0000
FE0000
FE0000
FE0000
FE07E0
FE07E0
FE07E0
7F0FE0
7F0FE0
7F0FE0
7FFFE0
3FFFC0
1FFF80
0FFF00
03FC00
ENDCHAR
STARTCHAR 00EA
ENCODING 234
SWIDTH 454 0
DWIDTH 24 0
BBX 20 44 2 0
BITMAP
01F800
03FC00
03FC00
07FE00
07FE00
0F9F00
0F9F00
1F0F80
1F0F80
3E0FC0
000000
000000
000000
03FC00
0FFF00
1FFF80
3FFFC0
7FFFC0
7F9FE0
7F0FE0
7F0FE0
FE07E0
FE07E0
FE07E0
FE07E0
FFFFF0
FFFFF0
FFFFF0
FFFFF0
FE0000
FE0000
FE0000
FE0000
FE07E0
FE07E0
FE07E0
7F0FE0
7F0FE0
7F0FE0
7FFFE0
3FFFC0
1FFF80
0FFF00
03FC00
ENDCHAR
STARTCHAR 00EB
ENCODING 235
SWIDTH 454 0
DWIDTH 24 0
BBX 20 41 2 0
BITMAP
3F0FC0
3F0FC0
3F0FC0
3F0FC0
3F0FC0
3F0FC0
3F0FC0
000000
000000
000000
03FC00
0FFF00
1FFF80
3FFFC0
7FFFC0
7F9FE0
7F0FE0
7F0FE0
FE07E0
FE07E0
FE07E0
FE07E0
FFFFF0
FFFFF0
FFFFF0
FFFFF0
FE0000
FE0000
FE0000
FE0000
FE07E0
FE07E0
FE07E0
7F0FE0
7F0FE0
7F0FE0
7FFFE0
3FFFC0
1FFF80
0FFF00
03FC00
ENDCHAR
STARTCHAR 00EC
ENCODING 236
SWIDTH 246 0
DWIDTH 13 0
BBX 11 45 -1 0
BITMAP
FE00
7F00
7F00
3F00
3F00
1F80
0F80
0F80
07C0
07C0
03C0
0000
0000
0000
0FE0
0FE0
0FE0
0FE0
0FE0
0FE0
0FE0
0FE0
0FE0
0FE0
0FE0
0FE0
0FE0
0FE0
0FE0
0FE0
0FE0
0FE0
0FE0
0FE0
0FE0
0FE0
0FE0
0FE0
0FE0
0FE0
0FE0
0FE0
0FE0
0FE0
0FE0
ENDCHAR
STARTCHAR 00ED
ENCODING 237
SWIDTH 246 0
DWIDTH 13 0
BBX 12 45 3 0
BITMAP
07F0
07E0
0FE0
0FC0
0FC0
1F80
1F80
1F00
1E00
3E00
3C00
0000
0000
0000
FE00
FE00
FE00
FE00
FE00
FE00
FE00
FE00
FE00
FE00
FE00
FE00
FE00
FE00
FE00
FE00
FE00
FE00
FE00
FE00
FE00
FE00
FE00
FE00
FE00
FE00
FE00
FE00
FE00
FE00
FE00
ENDCHAR
STARTCHAR 00EE
ENCODING 238
SWIDTH 246 0
DWIDTH 13 0
BBX 16 44 -1 0
BITMAP
07E0
0FF0
0FF0
1FF8
1FF8
3E7C
3E7C
7C3E
7C3E
F83F
0000
0000
0000
0FE0
0FE0
0FE0
0FE0
0FE0
0FE0
0FE0
0FE0
0FE0
0FE0
0FE0
0FE0
0FE0
0FE0
0FE0
0FE0
0FE0
0FE0
0FE0
0FE0
0FE0
0FE0
0FE0
0FE0
0FE0
0FE0
0FE0
0FE0
0FE0
0FE0
0FE0
ENDCHAR
STARTCHAR 00EF
ENCODING 239
SWIDTH 246 0
DWIDTH 13 0
BBX 16 41 -1 0
BITMAP
FC3F
FC3F
FC3F
FC3F
FC3F
FC3F
FC3F
0000
0000
0000
0FE0
0FE0
0FE0
0FE0
0FE0
0FE0
0FE0
0FE0
0FE0
0FE0
0FE0
0FE0
0FE0
0FE0
0FE0
0FE0
0FE0
0FE0
0FE0
0FE0
0FE0
0FE0
0FE0
0FE0
0FE0
0FE0
0FE0
0FE0
0FE0
0FE0
0FE0
ENDCHAR
STARTCHAR 00F0
ENCODING 240
SWIDTH 492 0
DWIDTH 26 0
BBX 22 45 3 -1
BITMAP
200000
1FC000
1FF000
1FFC08
3FFE78
3FFFFC
007FF0
003F80
01FFC0
03FFC0
038FC0
0407E0
0007E0
0007E0
03E7F0
0FFFF0
1FFFF0
3FFFF0
7FFFF0
7F8FF0
7F07F0
FF07F0
FE07F0
FE07F8
FE07F8
FE07F8
FE07F8
FE07F8
FE07F8
FE07F8
FE07F8
FE07F8
FE07F8
FE07F0
FE07F0
FE07F0
FE07F0
FE07F0
7F0FF0
7FFFE0
7FFFE0
3FFFC0
1FFF80
07FE00
004000
ENDCHAR
STARTCHAR 00F1
ENCODING 241
SWIDTH 473 0
DWIDTH 25 0
BBX 20 42 3 0
BITMAP
040000
1F83C0
3FE3C0
3FFFC0
7FFF80
7FFF80
787F80
781F00
000000
000000
000000
FE0F80
FE7FC0
FEFFE0
FFFFE0
FFFFE0
FF8FE0
FE0FF0
FE0FF0
FE0FF0
FE0FF0
FE0FF0
FE0FF0
FE0FF0
FE0FF0
FE0FF0
FE0FF0
FE0FF0
FE0FF0
FE0FF0
FE0FF0
FE0FF0
FE0FF0
FE0FF0
FE0FF0
FE0FF0
FE0FF0
FE0FF0
FE0FF0
FE0FF0
FE0FF0
FE0FF0
ENDCHAR
STARTCHAR 00F2
ENCODING 242
SWIDTH 454 0
DWIDTH 24 0
BBX 20 45 2 0
BITMAP
3F8000
1FC000
1FC000
0FC000
0FC000
07E000
03E000
03E000
01F000
01F000
00F000
000000
000000
000000
03FC00
0FFF00
1FFF80
3FFFC0
7FFFE0
7F9FE0
7F0FE0
FF0FF0
FE07F0
FE07F0
FE07F0
FE07F0
FE07F0
FE07F0
FE07F0
FE07F0
FE07F0
FE07F0
FE07F0
FE07F0
FE07F0
FE07F0
FE07F0
FF0FF0
7F0FE0
7F9FE0
7FFFE0
3FFFC0
1FFF80
0FFF00
03FC00
ENDCHAR
STARTCHAR 00F3
ENCODING 243
SWIDTH 454 0
DWIDTH 24 0
BBX 20 45 2 0
BITMAP
001FC0
001F80
003F80
003F00
003F00
007E00
007E00
007C00
007800
00F800
00F000
000000
000000
000000
03FC00
0FFF00
1FFF80
3FFFC0
7FFFE0
7F9FE0
7F0FE0
FF0FF0
FE07F0
FE07F0
FE07F0
FE07F0
FE07F0
FE07F0
FE07F0
FE07F0
FE07F0
FE07F0
FE07F0
FE07F0
FE07F0
FE07F0
FE07F0
FF0FF0
7F0FE0
7F9FE0
7FFFE0
3FFFC0
1FFF80
0FFF00
03FC00
ENDCHAR
STARTCHAR 00F4
ENCODING 244
SWIDTH 454 0
DWIDTH 24 0
BBX 20 44 2 0
BITMAP
01F800
03FC00
03FC00
07FE00
07FE00
0F9F00
0F9F00
1F0F80
1F0F80
3E0FC0
000000
000000
000000
03FC00
0FFF00
1FFF80
3FFFC0
7FFFE0
7F9FE0
7F0FE0
FF0FF0
FE07F0
FE07F0
FE07F0
FE07F0
FE07F0
FE07F0
FE07F0
FE07F0
FE07F0
FE07F0
FE07F0
FE07F0
FE07F0
FE07F0
FE07F0
FF0FF0
7F0FE0
7F9FE0
7FFFE0
3FFFC0
1FFF80
0FFF00
03FC00
ENDCHAR
STARTCHAR 00F5
ENCODING 245
SWIDTH 454 0
DWIDTH 24 0
BBX 20 42 2 0
BITMAP
020000
0FC1E0
1FF1E0
1FFFE0
3FFFC0
3FFFC0
3C3FC0
3C0F80
000000
000000
000000
03FC00
0FFF00
1FFF80
3FFFC0
7FFFE0
7F9FE0
7F0FE0
FF0FF0
FE07F0
FE07F0
FE07F0
FE07F0
FE07F0
FE07F0
FE07F0
FE07F0
FE07F0
FE07F0
FE07F0
FE07F0
FE07F0
FE07F0
FE07F0
FF0FF0
7F0FE0
7F9FE0
7FFFE0
3FFFC0
1FFF80
0FFF00
03FC00
ENDCHAR
STARTCHAR 00F6
ENCODING 246
SWIDTH 454 0
DWIDTH 24 0
BBX 20 41 2 0
BITMAP
3F0FC0
3F0FC0
3F0FC0
3F0FC0
3F0FC0
3F0FC0
3F0FC0
000000
000000
000000
03FC00
0FFF00
1FFF80
3FFFC0
7FFFE0
7F9FE0
7F0FE0
FF0FF0
FE07F0
FE07F0
FE07F0
FE07F0
FE07F0
FE07F0
FE07F0
FE07F0
FE07F0
FE07F0
FE07F0
FE07F0
FE07F0
FE07F0
FE07F0
FF0FF0
7F0FE0
7F9FE0
7FFFE0
3FFFC0
1FFF80
0FFF00
03FC00
ENDCHAR
STARTCHAR 00F7
ENCODING 247
SWIDTH 397 0
DWIDTH 21 0
BBX 19 25 1 9
BITMAP
01F000
01F000
01F000
01F000
01F000
01F000
000000
000000
000000
000000
FFFFE0
FFFFE0
FFFFE0
FFFFE0
FFFFE0
000000
000000
000000
000000
01F000
01F000
01F000
01F000
01F000
01F000
ENDCHAR
STARTCHAR 00F8
ENCODING 248
SWIDTH 454 0
DWIDTH 24 0
BBX 20 41 2 -5
BITMAP
000080
0000E0
0000C0
0001C0
000180
03FD80
0FFF00
1FFF80
3FFFC0
7FFFE0
7F9FE0
7F0FE0
FF0FF0
FE1FF0
FE1FF0
FE1FF0
FE3FF0
FE37F0
FE37F0
FE67F0
FE67F0
FEE7F0
FEC7F0
FEC7F0
FF87F0
FF87F0
FF87F0
FF07F0
FF0FF0
7F0FE0
7F9FE0
7FFFE0
3FFFC0
1FFF80
0FFF00
1BFC00
180000
380000
300000
700000
100000
ENDCHAR
STARTCHAR 00F9
ENCODING 249
SWIDTH 473 0
DWIDTH 25 0
BBX 19 45 3 0
BITMAP
7F0000
3F8000
3F8000
1F8000
1F8000
0FC000
07C000
07C000
03E000
03E000
01E000
000000
000000
000000
FE0FE0
FE0FE0
FE0FE0
FE0FE0
FE0FE0
FE0FE0
FE0FE0
FE0FE0
FE0FE0
FE0FE0
FE0FE0
FE0FE0
FE0FE0
FE0FE0
FE0FE0
FE0FE0
FE0FE0
FE0FE0
FE0FE0
FE0FE0
FE0FE0
FE0FE0
FE0FE0
FE0FE0
FE0FE0
FE3FE0
FFFFE0
FFFFE0
FFEFE0
7FCFE0
3F0FE0
ENDCHAR
STARTCHAR 00FA
ENCODING 250
SWIDTH 473 0
DWIDTH 25 0
BBX 19 45 3 0
BITMAP
003F80
003F00
007F00
007E00
007E00
00FC00
00FC00
00F800
00F000
01F000
01E000
000000
000000
000000
FE0FE0
FE0FE0
FE0FE0
FE0FE0
FE0FE0
FE0FE0
FE0FE0
FE0FE0
FE0FE0
FE0FE0
FE0FE0
FE0FE0
FE0FE0
FE0FE0
FE0FE0
FE0FE0
FE0FE0
FE0FE0
FE0FE0
FE0FE0
FE0FE0
FE0FE0
FE0FE0
FE0FE0
FE0FE0
FE3FE0
FFFFE0
FFFFE0
FFEFE0
7FCFE0
3F0FE0
ENDCHAR
STARTCHAR 00FB
ENCODING 251
SWIDTH 473 0
DWIDTH 25 0
BBX 19 44 3 0
BITMAP
03F000
07F800
07F800
0FFC00
0FFC00
1F3E00
1F3E00
3E1F00
3E1F00
7C1F80
000000
000000
000000
FE0FE0
FE0FE0
FE0FE0
FE0FE0
FE0FE0
FE0FE0
FE0FE0
FE0FE0
FE0FE0
FE0FE0
FE0FE0
FE0FE0
FE0FE0
FE0FE0
FE0FE0
FE0FE0
FE0FE0
FE0FE0
FE0FE0
FE0FE0
FE0FE0
FE0FE0
FE0FE0
FE0FE0
FE0FE0
FE3FE0
FFFFE0
FFFFE0
FFEFE0
7FCFE0
3F0FE0
ENDCHAR
STARTCHAR 00FC
ENCODING 252
SWIDTH 473 0
DWIDTH 25 0
BBX 19 41 3 0
BITMAP
7E1F80
7E1F80
7E1F80
7E1F80
7E1F80
7E1F80
7E1F80
000000
000000
000000
FE0FE0
FE0FE0
FE0FE0
FE0FE0
FE0FE0
FE0FE0
FE0FE0
FE0FE0
FE0FE0
FE0FE0
FE0FE0
FE0FE0
FE0FE0
FE0FE0
FE0FE0
FE0FE0
FE0FE0
FE0FE0
FE0FE0
FE0FE0
FE0FE0
FE0FE0
FE0FE0
FE0FE0
FE0FE0
FE3FE0
FFFFE0
FFFFE0
FFEFE0
7FCFE0
3F0FE0
ENDCHAR
STARTCHAR 00FD
ENCODING 253
SWIDTH 416 0
DWIDTH 22 0
BBX 22 53 0 -8
BITMAP
000FE0
000FC0
001FC0
001F80
001F80
003F00
003F00
003E00
003C00
007C00
007800
000000
000000
000000
FF03FC
7F03F8
7F03F8
7F03F8
7F03F8
3F83F0
3F87F0
3F87F0
3F87F0
1F87F0
1FC7E0
1FC7E0
1FC7E0
0FCFE0
0FCFC0
0FEFC0
0FEFC0
07EFC0
07EF80
07FF80
03FF80
03FF80
03FF80
03FF00
01FF00
01FF00
01FF00
01FE00
00FE00
00FE00
00FE00
00FE00
00FC00
01FC00
1FFC00
1FF800
1FF000
1FE000
1F0000
ENDCHAR
STARTCHAR 00FE
ENCODING 254
SWIDTH 473 0
DWIDTH 25 0
BBX 20 53 3 -10
BITMAP
FE0000
FE0000
FE0000
FE0000
FE0000
FE0000
FE0000
FE0000
FE0000
FE0000
FE0000
FE0000
FE3F00
FE7F80
FFFFC0
FFFFE0
FFFFE0
FF1FE0
FE0FF0
FE0FF0
FE07F0
FE07F0
FE07F0
FE07F0
FE07F0
FE07F0
FE07F0
FE07F0
FE07F0
FE07F0
FE07F0
FE07F0
FE07F0
FE07F0
FE07F0
FE0FF0
FE0FE0
FF1FE0
FFFFE0
FFFFC0
FFFFC0
FEFF80
FE3E00
FE0000
FE0000
FE0000
FE0000
FE0000
FE0000
FE0000
FE0000
FE0000
FE0000
ENDCHAR
STARTCHAR 00FF
ENCODING 255
SWIDTH 416 0
DWIDTH 22 0
BBX 22 49 0 -8
BITMAP
1F87E0
1F87E0
1F87E0
1F87E0
1F87E0
1F87E0
1F87E0
000000
000000
000000
FF03FC
7F03F8
7F03F8
7F03F8
7F03F8
3F83F0
3F87F0
3F87F0
3F87F0
1F87F0
1FC7E0
1FC7E0
1FC7E0
0FCFE0
0FCFC0
0FEFC0
0FEFC0
07EFC0
07EF80
07FF80
03FF80
03FF80
03FF80
03FF00
01FF00
01FF00
01FF00
01FE00
00FE00
00FE00
00FE00
00FE00
00FC00
01FC00
1FFC00
1FF800
1FF000
1FE000
1F0000
ENDCHAR
STARTCHAR 0100
ENCODING 256
SWIDTH 530 0
DWIDTH 28 0
BBX 26 50 1 0
BITMAP
01FFE000
01FFE000
01FFE000
01FFE000
00000000
00000000
00000000
007F8000
007F8000
007F8000
007FC000
00FFC000
00FFC000
00FFC000
00FFC000
01FFE000
01FFE000
01FFE000
01FFE000
01F7F000
03F7F000
03F7F000
03F3F000
03F3F000
03F3F800
07F3F800
07E3F800
07E3F800
07E1FC00
0FE1FC00
0FE1FC00
0FE1FC00
0FC1FC00
0FC1FE00
1FC0FE00
1FFFFE00
1FFFFE00
1FFFFE00
3FFFFF00
3FFFFF00
3F807F00
3F807F00
3F807F80
7F807F80
7F007F80
7F007F80
7F003F80
FF003FC0
FF003FC0
FE003FC0
ENDCHAR
STARTCHAR 0101
ENCODING 257
SWIDTH 454 0
DWIDTH 24 0
BBX 20 38 2 0
BITMAP
0FFF00
0FFF00
0FFF00
0FFF00
000000
000000
000000
01FC00
0FFF00
1FFF80
3FFFC0
3FFFE0
7F9FE0
7F0FE0
7F0FE0
7F0FE0
FE0FE0
000FE0
000FE0
003FE0
00FFE0
03FFE0
0FFFE0
1FEFE0
3FCFE0
7F8FE0
7F0FE0
FE0FE0
FE0FE0
FE0FE0
FE0FE0
FE0FE0
FF1FE0
7FFFF0
7FF7F0
3FF7F0
1FE7F0
0F87F0
ENDCHAR
STARTCHAR 0102
ENCODING 258
SWIDTH 530 0
DWIDTH 28 0
BBX 26 54 1 0
BITMAP
07807000
07807000
0780F000
03C1F000
03FFE000
01FFC000
007F0000
00000000
00000000
00000000
00000000
007F8000
007F8000
007F8000
007FC000
00FFC000
00FFC000
00FFC000
00FFC000
01FFE000
01FFE000
01FFE000
01FFE000
01F7F000
03F7F000
03F7F000
03F3F000
03F3F000
03F3F800
07F3F800
07E3F800
07E3F800
07E1FC00
0FE1FC00
0FE1FC00
0FE1FC00
0FC1FC00
0FC1FE00
1FC0FE00
1FFFFE00
1FFFFE00
1FFFFE00
3FFFFF00
3FFFFF00
3F807F00
3F807F00
3F807F80
7F807F80
7F007F80
7F007F80
7F003F80
FF003FC0
FF003FC0
FE003FC0
ENDCHAR
STARTCHAR 0103
ENCODING 259
SWIDTH 454 0
DWIDTH 24 0
BBX 20 42 2 0
BITMAP
3C0380
3C0380
3C0780
1E0F80
1FFF00
0FFE00
03F800
000000
000000
000000
000000
01FC00
0FFF00
1FFF80
3FFFC0
3FFFE0
7F9FE0
7F0FE0
7F0FE0
7F0FE0
FE0FE0
000FE0
000FE0
003FE0
00FFE0
03FFE0
0FFFE0
1FEFE0
3FCFE0
7F8FE0
7F0FE0
FE0FE0
FE0FE0
FE0FE0
FE0FE0
FE0FE0
FF1FE0
7FFFF0
7FF7F0
3FF7F0
1FE7F0
0F87F0
ENDCHAR
STARTCHAR 0104
ENCODING 260
SWIDTH 530 0
DWIDTH 28 0
BBX 26 56 1 -13
BITMAP
007F8000
007F8000
007F8000
007FC000
00FFC000
00FFC000
00FFC000
00FFC000
01FFE000
01FFE000
01FFE000
01FFE000
01F7F000
03F7F000
03F7F000
03F3F000
03F3F000
03F3F800
07F3F800
07E3F800
07E3F800
07E1FC00
0FE1FC00
0FE1FC00
0FE1FC00
0FC1FC00
0FC1FE00
1FC0FE00
1FFFFE00
1FFFFE00
1FFFFE00
3FFFFF00
3FFFFF00
3F807F00
3F807F00
3F807F80
7F807F80
7F007F80
7F007F80
7F003F80
FF003FC0
FF003FC0
FE003FC0
00001E00
00003C00
00007C00
0000F800
0000F800
0001F000
0001F000
0001F000
0001F800
0001FFC0
0001FF80
0000FF80
00003F80
ENDCHAR
STARTCHAR 0105
ENCODING 261
SWIDTH 454 0
DWIDTH 24 0
BBX 21 44 2 -13
BITMAP
01FC00
0FFF00
1FFF80
3FFFC0
3FFFE0
7F9FE0
7F0FE0
7F0FE0
7F0FE0
FE0FE0
000FE0
000FE0
003FE0
00FFE0
03FFE0
0FFFE0
1FEFE0
3FCFE0
7F8FE0
7F0FE0
FE0FE0
FE0FE0
FE0FE0
FE0FE0
FE0FE0
FF1FE0
7FFFF0
7FF7F0
3FF7F0
1FE7F0
0F87F0
0003C0
000780
000F80
001F00
001F00
003E00
003E00
003E00
003F00
003FF8
003FF0
001FF0
0007F0
ENDCHAR
STARTCHAR 0106
ENCODING 262
SWIDTH 549 0
DWIDTH 29 0
BBX 23 58 3 -1
BITMAP
0007F0
0007E0
000FE0
000FC0
000FC0
001F80
001F80
001F00
001E00
003E00
003C00
000000
000000
001000
03FFC0
0FFFE0
1FFFF0
3FFFF8
7FFFFC
7FFFFC
FF81FE
FF01FE
FF00FE
FF00FE
FE00FE
FE00FE
FE00FE
FE00FE
FE00FE
FE00FE
FE0000
FE0000
FE0000
FE0000
FE0000
FE0000
FE0000
FE0000
FE0000
FE0000
FE0000
FE00FE
FE00FE
FE00FE
FE00FE
FE00FE
FE00FE
FF00FE
FF00FE
FF01FE
7F81FE
7FFFFC
7FFFFC
3FFFF8
1FFFF0
0FFFE0
03FF80
001000
ENDCHAR
STARTCHAR 0107
ENCODING 263
SWIDTH 435 0
DWIDTH 23 0
BBX 19 45 2 0
BITMAP
001FC0
001F80
003F80
003F00
003F00
007E00
007E00
007C00
007800
00F800
00F000
000000
000000
000000
03FC00
0FFF00
1FFF80
3FFFC0
7FFFC0
7F9FE0
7F0FE0
FF0FE0
FE0FE0
FE07E0
FE07E0
FE07E0
FE0000
FE0000
FE0000
FE0000
FE0000
FE0000
FE0000
FE07E0
FE07E0
FE07E0
FE0FE0
7F0FE0
7F0FE0
7F8FE0
7FFFC0
3FFFC0
1FFF80
0FFF00
03FC00
ENDCHAR
STARTCHAR 0108
ENCODING 264
SWIDTH 549 0
DWIDTH 29 0
BBX 23 57 3 -1
BITMAP
00FC00
01FE00
01FE00
03FF00
03FF00
07CF80
07CF80
0F87C0
0F87C0
1F07E0
000000
000000
001000
03FFC0
0FFFE0
1FFFF0
3FFFF8
7FFFFC
7FFFFC
FF81FE
FF01FE
FF00FE
FF00FE
FE00FE
FE00FE
FE00FE
FE00FE
FE00FE
FE00FE
FE0000
FE0000
FE0000
FE0000
FE0000
FE0000
FE0000
FE0000
FE0000
FE0000
FE0000
FE00FE
FE00FE
FE00FE
FE00FE
FE00FE
FE00FE
FF00FE
FF00FE
FF01FE
7F81FE
7FFFFC
7FFFFC
3FFFF8
1FFFF0
0FFFE0
03FF80
001000
ENDCHAR
STARTCHAR 0109
ENCODING 265
SWIDTH 435 0
DWIDTH 23 0
BBX 19 44 2 0
BITMAP
01F800
03FC00
03FC00
07FE00
07FE00
0F9F00
0F9F00
1F0F80
1F0F80
3E0FC0
000000
000000
000000
03FC00
0FFF00
1FFF80
3FFFC0
7FFFC0
7F9FE0
7F0FE0
FF0FE0
FE0FE0
FE07E0
FE07E0
FE07E0
FE0000
FE0000
FE0000
FE0000
FE0000
FE0000
FE0000
FE07E0
FE07E0
FE07E0
FE0FE0
7F0FE0
7F0FE0
7F8FE0
7FFFC0
3FFFC0
1FFF80
0FFF00
03FC00
ENDCHAR
STARTCHAR 010A
ENCODING 266
SWIDTH 549 0
DWIDTH 29 0
BBX 23 55 3 -1
BITMAP
00FE00
00FE00
00FE00
00FE00
00FE00
00FE00
00FE00
000000
000000
000000
001000
03FFC0
0FFFE0
1FFFF0
3FFFF8
7FFFFC
7FFFFC
FF81FE
FF01FE
FF00FE
FF00FE
FE00FE
FE00FE
FE00FE
FE00FE
FE00FE
FE00FE
FE0000
FE0000
FE0000
FE0000
FE0000
FE0000
FE0000
FE0000
FE0000
FE0000
FE0000
FE00FE
FE00FE
FE00FE
FE00FE
FE00FE
FE00FE
FF00FE
FF00FE
FF01FE
7F81FE
7FFFFC
7FFFFC
3FFFF8
1FFFF0
0FFFE0
03FF80
001000
ENDCHAR
STARTCHAR 010B
ENCODING 267
SWIDTH 435 0
DWIDTH 23 0
BBX 19 42 2 0
BITMAP
03F800
03F800
03F800
03F800
03F800
03F800
03F800
000000
000000
000000
000000
03FC00
0FFF00
1FFF80
3FFFC0
7FFFC0
7F9FE0
7F0FE0
FF0FE0
FE0FE0
FE07E0
FE07E0
FE07E0
FE0000
FE0000
FE0000
FE0000
FE0000
FE0000
FE0000
FE07E0
FE07E0
FE07E0
FE0FE0
7F0FE0
7F0FE0
7F8FE0
7FFFC0
3FFFC0
1FFF80
0FFF00
03FC00
ENDCHAR
STARTCHAR 010C
ENCODING 268
SWIDTH 549 0
DWIDTH 29 0
BBX 23 57 3 -1
BITMAP
1F83E0
0F87E0
0FC7C0
07CFC0
07EF80
03FF80
03FF00
01FF00
01FE00
000000
000000
000000
001000
03FFC0
0FFFE0
1FFFF0
3FFFF8
7FFFFC
7FFFFC
FF81FE
FF01FE
FF00FE
FF00FE
FE00FE
FE00FE
FE00FE
FE00FE
FE00FE
FE00FE
FE0000
FE0000
FE0000
FE0000
FE0000
FE0000
FE0000
FE0000
FE0000
FE0000
FE0000
FE00FE
FE00FE
FE00FE
FE00FE
FE00FE
FE00FE
FF00FE
FF00FE
FF01FE
7F81FE
7FFFFC
7FFFFC
3FFFF8
1FFFF0
0FFFE0
03FF80
001000
ENDCHAR
STARTCHAR 010D
ENCODING 269
SWIDTH 435 0
DWIDTH 23 0
BBX 19 44 2 0
BITMAP
3F07C0
1F0FC0
1F8F80
0F9F80
0FDF00
07FF00
07FE00
03FE00
03FC00
000000
000000
000000
000000
03FC00
0FFF00
1FFF80
3FFFC0
7FFFC0
7F9FE0
7F0FE0
FF0FE0
FE0FE0
FE07E0
FE07E0
FE07E0
FE0000
FE0000
FE0000
FE0000
FE0000
FE0000
FE0000
FE07E0
FE07E0
FE07E0
FE0FE0
7F0FE0
7F0FE0
7F8FE0
7FFFC0
3FFFC0
1FFF80
0FFF00
03FC00
ENDCHAR
STARTCHAR 010E
ENCODING 270
SWIDTH 549 0
DWIDTH 29 0
BBX 24 56 3 0
BITMAP
0FC1F0
07C3F0
07E3E0
03E7E0
03F7C0
01FFC0
01FF80
00FF80
00FF00
000000
000000
000000
000000
FFFE00
FFFFE0
FFFFF0
FFFFF8
FFFFFC
FF07FC
FF01FE
FF01FE
FF00FE
FF00FF
FF00FF
FF00FF
FF00FF
FF00FF
FF00FF
FF00FF
FF00FF
FF00FF
FF00FF
FF00FF
FF00FF
FF00FF
FF00FF
FF00FF
FF00FF
FF00FF
FF00FF
FF00FF
FF00FF
FF00FF
FF00FF
FF00FF
FF00FF
FF00FE
FF01FE
FF01FE
FF01FE
FF07FC
FFFFFC
FFFFF8
FFFFF0
FFFFC0
FFFF00
ENDCHAR
STARTCHAR 010F
ENCODING 271
SWIDTH 568 0
DWIDTH 30 0
BBX 31 43 2 0
BITMAP
0007F07E
0007F07C
0007F07C
0007F07C
0007F07C
0007F07C
0007F07C
0007F078
0007F078
0007F078
0007F078
0007F078
07C7F078
1FF7F070
3FFFF000
3FFFF000
7FFFF000
7F8FF000
7F07F000
7F07F000
FF07F000
FF07F000
FF07F000
FF07F000
FF07F000
FF07F000
FF07F000
FF07F000
FF07F000
FF07F000
FF07F000
FF07F000
FF07F000
FF07F000
FF07F000
FF07F000
7F07F000
7F8FF000
7FFFF000
3FFFF000
3FFFF000
1FF7F000
07C7F000
ENDCHAR
STARTCHAR 0110
ENCODING 272
SWIDTH 549 0
DWIDTH 29 0
BBX 26 43 1 0
BITMAP
3FFFC000
3FFFF800
3FFFFC00
3FFFFE00
3FFFFF00
3FC0FF80
3FC07F80
3FC03F80
3FC03FC0
3FC03FC0
3FC03FC0
3FC03FC0
3FC03FC0
3FC03FC0
3FC03FC0
3FC03FC0
3FC03FC0
3FC03FC0
3FC03FC0
FFF83FC0
FFF83FC0
FFF83FC0
FFF83FC0
3FC03FC0
3FC03FC0
3FC03FC0
3FC03FC0
3FC03FC0
3FC03FC0
3FC03FC0
3FC03FC0
3FC03FC0
3FC03FC0
3FC03FC0
3FC03F80
3FC07F80
3FC07F80
3FC1FF00
3FFFFF00
3FFFFE00
3FFFFC00
3FFFF800
3FFFC000
ENDCHAR
STARTCHAR 0111
ENCODING 273
SWIDTH 473 0
DWIDTH 25 0
BBX 23 43 2 0
BITMAP
0007F0
0007F0
0007F0
03FFFE
03FFFE
03FFFE
0007F0
0007F0
0007F0
0007F0
0007F0
0007F0
07C7F0
1FF7F0
3FFFF0
3FFFF0
7FFFF0
7F8FF0
7F07F0
FF07F0
FF07F0
FE07F0
FE07F0
FE07F0
FE07F0
FE07F0
FE07F0
FE07F0
FE07F0
FE07F0
FE07F0
FE07F0
FE07F0
FE07F0
FF07F0
FF07F0
7F07F0
7F8FF0
7FFFF0
3FFFF0
3FFFF0
1FF7F0
07C7F0
ENDCHAR
STARTCHAR 0112
ENCODING 274
SWIDTH 435 0
DWIDTH 23 0
BBX 18 50 3 0
BITMAP
0FFF00
0FFF00
0FFF00
0FFF00
000000
000000
000000
FFFFC0
FFFFC0
FFFFC0
FFFFC0
FFFFC0
FF0000
FF0000
FF0000
FF0000
FF0000
FF0000
FF0000
FF0000
FF0000
FF0000
FF0000
FF0000
FF0000
FFFF00
FFFF00
FFFF00
FFFF00
FFFF00
FF0000
FF0000
FF0000
FF0000
FF0000
FF0000
FF0000
FF0000
FF0000
FF0000
FF0000
FF0000
FF0000
FF0000
FF0000
FFFFC0
FFFFC0
FFFFC0
FFFFC0
FFFFC0
ENDCHAR
STARTCHAR 0113
ENCODING 275
SWIDTH 454 0
DWIDTH 24 0
BBX 20 38 2 0
BITMAP
0FFF00
0FFF00
0FFF00
0FFF00
000000
000000
000000
03FC00
0FFF00
1FFF80
3FFFC0
7FFFC0
7F9FE0
7F0FE0
7F0FE0
FE07E0
FE07E0
FE07E0
FE07E0
FFFFF0
FFFFF0
FFFFF0
FFFFF0
FE0000
FE0000
FE0000
FE0000
FE07E0
FE07E0
FE07E0
7F0FE0
7F0FE0
7F0FE0
7FFFE0
3FFFC0
1FFF80
0FFF00
03FC00
ENDCHAR
STARTCHAR 0114
ENCODING 276
SWIDTH 435 0
DWIDTH 23 0
BBX 18 54 3 0
BITMAP
780700
780700
780F00
3C1F00
3FFE00
1FFC00
07F000
000000
000000
000000
000000
FFFFC0
FFFFC0
FFFFC0
FFFFC0
FFFFC0
FF0000
FF0000
FF0000
FF0000
FF0000
FF0000
FF0000
FF0000
FF0000
FF0000
FF0000
FF0000
FF0000
FFFF00
FFFF00
FFFF00
FFFF00
FFFF00
FF0000
FF0000
FF0000
FF0000
FF0000
FF0000
FF0000
FF0000
FF0000
FF0000
FF0000
FF0000
FF0000
FF0000
FF0000
FFFFC0
FFFFC0
FFFFC0
FFFFC0
FFFFC0
ENDCHAR
STARTCHAR 0115
ENCODING 277
SWIDTH 454 0
DWIDTH 24 0
BBX 20 42 2 0
BITMAP
3C0380
3C0380
3C0780
1E0F80
1FFF00
0FFE00
03F800
000000
000000
000000
000000
03FC00
0FFF00
1FFF80
3FFFC0
7FFFC0
7F9FE0
7F0FE0
7F0FE0
FE07E0
FE07E0
FE07E0
FE07E0
FFFFF0
FFFFF0
FFFFF0
FFFFF0
FE0000
FE0000
FE0000
FE0000
FE07E0
FE07E0
FE07E0
7F0FE0
7F0FE0
7F0FE0
7FFFE0
3FFFC0
1FFF80
0FFF00
03FC00
ENDCHAR
STARTCHAR 0116
ENCODING 278
SWIDTH 435 0
DWIDTH 23 0
BBX 18 54 3 0
BITMAP
03F800
03F800
03F800
03F800
03F800
03F800
03F800
000000
000000
000000
000000
FFFFC0
FFFFC0
FFFFC0
FFFFC0
FFFFC0
FF0000
FF0000
FF0000
FF0000
FF0000
FF0000
FF0000
FF0000
FF0000
FF0000
FF0000
FF0000
FF0000
FFFF00
FFFF00
FFFF00
FFFF00
FFFF00
FF0000
FF0000
FF0000
FF0000
FF0000
FF0000
FF0000
FF0000
FF0000
FF0000
FF0000
FF0000
FF0000
FF0000
FF0000
FFFFC0
FFFFC0
FFFFC0
FFFFC0
FFFFC0
ENDCHAR
STARTCHAR 0117
ENCODING 279
SWIDTH 454 0
DWIDTH 24 0
BBX 20 42 2 0
BITMAP
03F800
03F800
03F800
03F800
03F800
03F800
03F800
000000
000000
000000
000000
03FC00
0FFF00
1FFF80
3FFFC0
7FFFC0
7F9FE0
7F0FE0
7F0FE0
FE07E0
FE07E0
FE07E0
FE07E0
FFFFF0
FFFFF0
FFFFF0
FFFFF0
FE0000
FE0000
FE0000
FE0000
FE07E0
FE07E0
FE07E0
7F0FE0
7F0FE0
7F0FE0
7FFFE0
3FFFC0
1FFF80
0FFF00
03FC00
ENDCHAR
STARTCHAR 0118
ENCODING 280
SWIDTH 435 0
DWIDTH 23 0
BBX 18 56 3 -13
BITMAP
FFFFC0
FFFFC0
FFFFC0
FFFFC0
FFFFC0
FF0000
FF0000
FF0000
FF0000
FF0000
FF0000
FF0000
FF0000
FF0000
FF0000
FF0000
FF0000
FF0000
FFFF00
FFFF00
FFFF00
FFFF00
FFFF00
FF0000
FF0000
FF0000
FF0000
FF0000
FF0000
FF0000
FF0000
FF0000
FF0000
FF0000
FF0000
FF0000
FF0000
FF0000
FFFFC0
FFFFC0
FFFFC0
FFFFC0
FFFFC0
00F000
01E000
03E000
07C000
07C000
0F8000
0F8000
0F8000
0FC000
0FFE00
0FFC00
07FC00
01FC00
ENDCHAR
STARTCHAR 0119
ENCODING 281
SWIDTH 454 0
DWIDTH 24 0
BBX 20 44 2 -13
BITMAP
03FC00
0FFF00
1FFF80
3FFFC0
7FFFC0
7F9FE0
7F0FE0
7F0FE0
FE07E0
FE07E0
FE07E0
FE07E0
FFFFF0
FFFFF0
FFFFF0
FFFFF0
FE0000
FE0000
FE0000
FE0000
FE07E0
FE07E0
FE07E0
7F0FE0
7F0FE0
7F0FE0
7FFFE0
3FFFC0
1FFF80
0FFF00
03FC00
00F000
01E000
03E000
07C000
07C000
0F8000
0F8000
0F8000
0FC000
0FFE00
0FFC00
07FC00
01FC00
ENDCHAR
STARTCHAR 011A
ENCODING 282
SWIDTH 435 0
DWIDTH 23 0
BBX 18 56 3 0
BITMAP
7E0F80
3E1F80
3F1F00
1F3F00
1FBE00
0FFE00
0FFC00
07FC00
07F800
000000
000000
000000
000000
FFFFC0
FFFFC0
FFFFC0
FFFFC0
FFFFC0
FF0000
FF0000
FF0000
FF0000
FF0000
FF0000
FF0000
FF0000
FF0000
FF0000
FF0000
FF0000
FF0000
FFFF00
FFFF00
FFFF00
FFFF00
FFFF00
FF0000
FF0000
FF0000
FF0000
FF0000
FF0000
FF0000
FF0000
FF0000
FF0000
FF0000
FF0000
FF0000
FF0000
FF0000
FFFFC0
FFFFC0
FFFFC0
FFFFC0
FFFFC0
ENDCHAR
STARTCHAR 011B
ENCODING 283
SWIDTH 454 0
DWIDTH 24 0
BBX 20 44 2 0
BITMAP
3F07C0
1F0FC0
1F8F80
0F9F80
0FDF00
07FF00
07FE00
03FE00
03FC00
000000
000000
000000
000000
03FC00
0FFF00
1FFF80
3FFFC0
7FFFC0
7F9FE0
7F0FE0
7F0FE0
FE07E0
FE07E0
FE07E0
FE07E0
FFFFF0
FFFFF0
FFFFF0
FFFFF0
FE0000
FE0000
FE0000
FE0000
FE07E0
FE07E0
FE07E0
7F0FE0
7F0FE0
7F0FE0
7FFFE0
3FFFC0
1FFF80
0FFF00
03FC00
ENDCHAR
STARTCHAR 011C
ENCODING 284
SWIDTH 568 0
DWIDTH 30 0
BBX 24 57 3 -1
BITMAP
007E00
00FF00
00FF00
01FF80
01FF80
03E7C0
03E7C0
07C3E0
07C3E0
0F83F0
000000
000000
001000
03FFC0
0FFFF0
1FFFF8
3FFFFC
7FFFFC
7FFFFE
7F81FE
FF00FE
FF00FE
FF00FE
FF00FF
FE00FF
FE00FF
FE00FF
FE0000
FE0000
FE0000
FE0000
FE0000
FE0000
FE0000
FE0FFF
FE0FFF
FE0FFF
FE0FFF
FE0FFF
FE007F
FE007F
FE007F
FE007F
FE007F
FE007F
FF007F
FF00FF
FF00FF
FF00FF
7F81FF
7FFFFF
7FFFFF
3FFFFF
1FFFBF
0FFF1F
03FE1F
002000
ENDCHAR
STARTCHAR 011D
ENCODING 285
SWIDTH 473 0
DWIDTH 25 0
BBX 24 54 1 -9
BITMAP
007E00
00FF00
00FF00
01FF80
01FF80
03E7C0
03E7C0
07C3E0
07C3E0
0F83F0
000000
000000
000000
000002
01FC0E
07FF1E
0FFFBF
1FFFFF
1FFFFC
3F87F0
3F87E0
3F03F0
7F03F0
7F03F0
7F03F0
7F03F0
7F03F0
7F03F0
3F03F0
3F87F0
3F87F0
1FFFE0
1FFFE0
0FFFC0
0FFF80
1EFE00
3E0000
7E0000
7F8000
7FFF80
7FFFE0
3FFFF8
0FFFF8
1FFFFC
3F01FC
7E00FC
7E007C
FE00FC
FF01FC
FFFFFC
FFFFF8
7FFFF8
3FFFE0
07FF80
ENDCHAR
STARTCHAR 011E
ENCODING 286
SWIDTH 568 0
DWIDTH 30 0
BBX 24 55 3 -1
BITMAP
0F00E0
0F00E0
0F01E0
0783E0
07FFC0
03FF80
00FE00
000000
000000
000000
001000
03FFC0
0FFFF0
1FFFF8
3FFFFC
7FFFFC
7FFFFE
7F81FE
FF00FE
FF00FE
FF00FE
FF00FF
FE00FF
FE00FF
FE00FF
FE0000
FE0000
FE0000
FE0000
FE0000
FE0000
FE0000
FE0FFF
FE0FFF
FE0FFF
FE0FFF
FE0FFF
FE007F
FE007F
FE007F
FE007F
FE007F
FE007F
FF007F
FF00FF
FF00FF
FF00FF
7F81FF
7FFFFF
7FFFFF
3FFFFF
1FFFBF
0FFF1F
03FE1F
002000
ENDCHAR
STARTCHAR 011F
ENCODING 287
SWIDTH 473 0
DWIDTH 25 0
BBX 24 52 1 -9
BITMAP
0F00E0
0F00E0
0F01E0
0783E0
07FFC0
03FF80
00FE00
000000
000000
000000
000000
000002
01FC0E
07FF1E
0FFFBF
1FFFFF
1FFFFC
3F87F0
3F87E0
3F03F0
7F03F0
7F03F0
7F03F0
7F03F0
7F03F0
7F03F0
3F03F0
3F87F0
3F87F0
1FFFE0
1FFFE0
0FFFC0
0FFF80
1EFE00
3E0000
7E0000
7F8000
7FFF80
7FFFE0
3FFFF8
0FFFF8
1FFFFC
3F01FC
7E00FC
7E007C
FE00FC
FF01FC
FFFFFC
FFFFF8
7FFFF8
3FFFE0
07FF80
ENDCHAR
STARTCHAR 0120
ENCODING 288
SWIDTH 568 0
DWIDTH 30 0
BBX 24 55 3 -1
BITMAP
00FE00
00FE00
00FE00
00FE00
00FE00
00FE00
00FE00
000000
000000
000000
001000
03FFC0
0FFFF0
1FFFF8
3FFFFC
7FFFFC
7FFFFE
7F81FE
FF00FE
FF00FE
FF00FE
FF00FF
FE00FF
FE00FF
FE00FF
FE0000
FE0000
FE0000
FE0000
FE0000
FE0000
FE0000
FE0FFF
FE0FFF
FE0FFF
FE0FFF
FE0FFF
FE007F
FE007F
FE007F
FE007F
FE007F
FE007F
FF007F
FF00FF
FF00FF
FF00FF
7F81FF
7FFFFF
7FFFFF
3FFFFF
1FFFBF
0FFF1F
03FE1F
002000
ENDCHAR
STARTCHAR 0121
ENCODING 289
SWIDTH 473 0
DWIDTH 25 0
BBX 24 51 1 -9
BITMAP
007F00
007F00
007F00
007F00
007F00
007F00
007F00
000000
000000
000000
000002
01FC0E
07FF1E
0FFFBF
1FFFFF
1FFFFC
3F87F0
3F87E0
3F03F0
7F03F0
7F03F0
7F03F0
7F03F0
7F03F0
7F03F0
3F03F0
3F87F0
3F87F0
1FFFE0
1FFFE0
0FFFC0
0FFF80
1EFE00
3E0000
7E0000
7F8000
7FFF80
7FFFE0
3FFFF8
0FFFF8
1FFFFC
3F01FC
7E00FC
7E007C
FE00FC
FF01FC
FFFFFC
FFFFF8
7FFFF8
3FFFE0
07FF80
ENDCHAR
STARTCHAR 0122
ENCODING 290
SWIDTH 568 0
DWIDTH 30 0
BBX 24 62 3 -18
BITMAP
001000
03FFC0
0FFFF0
1FFFF8
3FFFFC
7FFFFC
7FFFFE
7F81FE
FF00FE
FF00FE
FF00FE
FF00FF
FE00FF
FE00FF
FE00FF
FE0000
FE0000
FE0000
FE0000
FE0000
FE0000
FE0000
FE0FFF
FE0FFF
FE0FFF
FE0FFF
FE0FFF
FE007F
FE007F
FE007F
FE007F
FE007F
FE007F
FF007F
FF00FF
FF00FF
FF00FF
7F81FF
7FFFFF
7FFFFF
3FFFFF
1FFFBF
0FFF1F
03FE1F
002000
000000
000000
000000
00FE00
00FE00
00FE00
00FE00
00FE00
00FE00
00FE00
000E00
001E00
001E00
003C00
00FC00
007800
007000
ENDCHAR
STARTCHAR 0123
ENCODING 291
SWIDTH 435 0
DWIDTH 23 0
BBX 25 62 1 -9
BITMAP
00030000
000F0000
001E0000
001C0000
00380000
00380000
00380000
003F0000
003F0000
003F0000
003F0000
003F0000
003F0000
003F0000
00000000
00000000
00000000
00000000
00000000
00000000
00000000
00000300
00FE0780
07FF8F80
0FFFDF80
1FFFFE00
3FC7F800
3F83F800
3F01F800
7F01F800
7F01FC00
7F01FC00
7F01FC00
7F01FC00
7F01FC00
7F01FC00
7F01F800
3F83F800
3FC7F800
1FFFF000
07FFE000
1FFFC000
1EFF0000
3C000000
7C000000
78000000
7F000000
7FFC0000
3FFFC000
0FFFF000
0FFFFC00
1F8FFC00
3F00FE00
7E007E00
FC003E00
FC003E00
FE007E00
FF00FE00
7FFFFC00
7FFFF800
1FFFE000
03FF8000
ENDCHAR
STARTCHAR 0124
ENCODING 292
SWIDTH 587 0
DWIDTH 31 0
BBX 25 56 3 0
BITMAP
007E0000
00FF0000
00FF0000
01FF8000
01FF8000
03E7C000
03E7C000
07C3E000
07C3E000
0F83F000
00000000
00000000
00000000
FF007F80
FF007F80
FF007F80
FF007F80
FF007F80
FF007F80
FF007F80
FF007F80
FF007F80
FF007F80
FF007F80
FF007F80
FF007F80
FF007F80
FF007F80
FF007F80
FF007F80
FF007F80
FFFFFF80
FFFFFF80
FFFFFF80
FFFFFF80
FFFFFF80
FF007F80
FF007F80
FF007F80
FF007F80
FF007F80
FF007F80
FF007F80
FF007F80
FF007F80
FF007F80
FF007F80
FF007F80
FF007F80
FF007F80
FF007F80
FF007F80
FF007F80
FF007F80
FF007F80
FF007F80
ENDCHAR
STARTCHAR 0125
ENCODING 293
SWIDTH 473 0
DWIDTH 25 0
BBX 20 56 3 0
BITMAP
01F800
03FC00
03FC00
07FE00
07FE00
0F9F00
0F9F00
1F0F80
1F0F80
3E0FC0
000000
000000
000000
FE0000
FE0000
FE0000
FE0000
FE0000
FE0000
FE0000
FE0000
FE0000
FE0000
FE0000
FE0000
FE0F80
FE7FC0
FEFFE0
FFFFE0
FFFFF0
FF8FF0
FF0FF0
FE07F0
FE07F0
FE07F0
FE07F0
FE07F0
FE07F0
FE07F0
FE07F0
FE07F0
FE07F0
FE07F0
FE07F0
FE07F0
FE07F0
FE07F0
FE07F0
FE07F0
FE07F0
FE07F0
FE07F0
FE07F0
FE07F0
FE07F0
FE07F0
ENDCHAR
STARTCHAR 0126
ENCODING 294
SWIDTH 549 0
DWIDTH 29 0
BBX 29 43 0 0
BITMAP
1FE01FE0
1FE01FE0
1FE01FE0
1FE01FE0
1FE01FE0
1FE01FE0
1FE01FE0
FFFFFFF8
FFFFFFF8
FFFFFFF8
1FE01FE0
1FE01FE0
1FE01FE0
1FE01FE0
1FE01FE0
1FE01FE0
1FE01FE0
1FE01FE0
1FFFFFE0
1FFFFFE0
1FFFFFE0
1FFFFFE0
1FFFFFE0
1FE01FE0
1FE01FE0
1FE01FE0
1FE01FE0
1FE01FE0
1FE01FE0
1FE01FE0
1FE01FE0
1FE01FE0
1FE01FE0
1FE01FE0
1FE01FE0
1FE01FE0
1FE01FE0
1FE01FE0
1FE01FE0
1FE01FE0
1FE01FE0
1FE01FE0
1FE01FE0
ENDCHAR
STARTCHAR 0127
ENCODING 295
SWIDTH 473 0
DWIDTH 25 0
BBX 23 43 0 0
BITMAP
1FC000
1FC000
1FC000
FFFF80
FFFF80
FFFF80
FFFF80
1FC000
1FC000
1FC000
1FC000
1FC000
1FC1F0
1FCFF8
1FDFFC
1FFFFC
1FFFFE
1FF1FE
1FE1FE
1FC0FE
1FC0FE
1FC0FE
1FC0FE
1FC0FE
1FC0FE
1FC0FE
1FC0FE
1FC0FE
1FC0FE
1FC0FE
1FC0FE
1FC0FE
1FC0FE
1FC0FE
1FC0FE
1FC0FE
1FC0FE
1FC0FE
1FC0FE
1FC0FE
1FC0FE
1FC0FE
1FC0FE
ENDCHAR
STARTCHAR 0128
ENCODING 296
SWIDTH 284 0
DWIDTH 15 0
BBX 17 54 -1 0
BITMAP
080000
3F0780
7FC780
7FFF80
FFFF00
FFFF00
F0FF00
F03E00
000000
000000
000000
0FF000
0FF000
0FF000
0FF000
0FF000
0FF000
0FF000
0FF000
0FF000
0FF000
0FF000
0FF000
0FF000
0FF000
0FF000
0FF000
0FF000
0FF000
0FF000
0FF000
0FF000
0FF000
0FF000
0FF000
0FF000
0FF000
0FF000
0FF000
0FF000
0FF000
0FF000
0FF000
0FF000
0FF000
0FF000
0FF000
0FF000
0FF000
0FF000
0FF000
0FF000
0FF000
0FF000
ENDCHAR
STARTCHAR 0129
ENCODING 297
SWIDTH 246 0
DWIDTH 13 0
BBX 17 42 -2 0
BITMAP
080000
3F0780
7FC780
7FFF80
FFFF00
FFFF00
F0FF00
F03E00
000000
000000
000000
07F000
07F000
07F000
07F000
07F000
07F000
07F000
07F000
07F000
07F000
07F000
07F000
07F000
07F000
07F000
07F000
07F000
07F000
07F000
07F000
07F000
07F000
07F000
07F000
07F000
07F000
07F000
07F000
07F000
07F000
07F000
ENDCHAR
STARTCHAR 012A
ENCODING 298
SWIDTH 284 0
DWIDTH 15 0
BBX 12 50 2 0
BITMAP
FFF0
FFF0
FFF0
FFF0
0000
0000
0000
7F80
7F80
7F80
7F80
7F80
7F80
7F80
7F80
7F80
7F80
7F80
7F80
7F80
7F80
7F80
7F80
7F80
7F80
7F80
7F80
7F80
7F80
7F80
7F80
7F80
7F80
7F80
7F80
7F80
7F80
7F80
7F80
7F80
7F80
7F80
7F80
7F80
7F80
7F80
7F80
7F80
7F80
7F80
ENDCHAR
STARTCHAR 012B
ENCODING 299
SWIDTH 246 0
DWIDTH 13 0
BBX 12 38 1 0
BITMAP
FFF0
FFF0
FFF0
FFF0
0000
0000
0000
3F80
3F80
3F80
3F80
3F80
3F80
3F80
3F80
3F80
3F80
3F80
3F80
3F80
3F80
3F80
3F80
3F80
3F80
3F80
3F80
3F80
3F80
3F80
3F80
3F80
3F80
3F80
3F80
3F80
3F80
3F80
ENDCHAR
STARTCHAR 012C
ENCODING 300
SWIDTH 284 0
DWIDTH 15 0
BBX 15 54 0 0
BITMAP
F00E
F00E
701E
783E
7FFC
3FF8
0FE0
0000
0000
0000
0000
1FE0
1FE0
1FE0
1FE0
1FE0
1FE0
1FE0
1FE0
1FE0
1FE0
1FE0
1FE0
1FE0
1FE0
1FE0
1FE0
1FE0
1FE0
1FE0
1FE0
1FE0
1FE0
1FE0
1FE0
1FE0
1FE0
1FE0
1FE0
1FE0
1FE0
1FE0
1FE0
1FE0
1FE0
1FE0
1FE0
1FE0
1FE0
1FE0
1FE0
1FE0
1FE0
1FE0
ENDCHAR
STARTCHAR 012D
ENCODING 301
SWIDTH 246 0
DWIDTH 13 0
BBX 15 42 -1 0
BITMAP
F00E
F00E
701E
783E
7FFC
3FF8
0FE0
0000
0000
0000
0000
0FE0
0FE0
0FE0
0FE0
0FE0
0FE0
0FE0
0FE0
0FE0
0FE0
0FE0
0FE0
0FE0
0FE0
0FE0
0FE0
0FE0
0FE0
0FE0
0FE0
0FE0
0FE0
0FE0
0FE0
0FE0
0FE0
0FE0
0FE0
0FE0
0FE0
0FE0
ENDCHAR
STARTCHAR 012E
ENCODING 302
SWIDTH 284 0
DWIDTH 15 0
BBX 11 56 0 -13
BITMAP
1FE0
1FE0
1FE0
1FE0
1FE0
1FE0
1FE0
1FE0
1FE0
1FE0
1FE0
1FE0
1FE0
1FE0
1FE0
1FE0
1FE0
1FE0
1FE0
1FE0
1FE0
1FE0
1FE0
1FE0
1FE0
1FE0
1FE0
1FE0
1FE0
1FE0
1FE0
1FE0
1FE0
1FE0
1FE0
1FE0
1FE0
1FE0
1FE0
1FE0
1FE0
1FE0
1FE0
0F00
1E00
3E00
7C00
7C00
F800
F800
F800
FC00
FFE0
FFC0
7FC0
1FC0
ENDCHAR
STARTCHAR 012F
ENCODING 303
SWIDTH 246 0
DWIDTH 13 0
BBX 11 54 0 -13
BITMAP
1FC0
1FC0
1FC0
1FC0
1FC0
1FC0
0000
0000
0000
0000
1FC0
1FC0
1FC0
1FC0
1FC0
1FC0
1FC0
1FC0
1FC0
1FC0
1FC0
1FC0
1FC0
1FC0
1FC0
1FC0
1FC0
1FC0
1FC0
1FC0
1FC0
1FC0
1FC0
1FC0
1FC0
1FC0
1FC0
1FC0
1FC0
1FC0
1FC0
0F00
1E00
3E00
7C00
7C00
F800
F800
F800
FC00
FFE0
FFC0
7FC0
1FC0
ENDCHAR
STARTCHAR 0130
ENCODING 304
SWIDTH 284 0
DWIDTH 15 0
BBX 8 54 3 0
BITMAP
7F
7F
7F
7F
7F
7F
7F
00
00
00
00
FF
FF
FF
FF
FF
FF
FF
FF
FF
FF
FF
FF
FF
FF
FF
FF
FF
FF
FF
FF
FF
FF
FF
FF
FF
FF
FF
FF
FF
FF
FF
FF
FF
FF
FF
FF
FF
FF
FF
FF
FF
FF
FF
ENDCHAR
STARTCHAR 0131
ENCODING 305
SWIDTH 246 0
DWIDTH 13 0
BBX 7 31 3 0
BITMAP
FE
FE
FE
FE
FE
FE
FE
FE
FE
FE
FE
FE
FE
FE
FE
FE
FE
FE
FE
FE
FE
FE
FE
FE
FE
FE
FE
FE
FE
FE
FE
ENDCHAR
STARTCHAR 0133
ENCODING 307
SWIDTH 511 0
DWIDTH 27 0
BBX 21 50 3 -8
BITMAP
0007F8
FE07F8
FE07F8
FE07F8
FE07F8
FE07F8
FE0000
000000
000000
000000
000000
FE07F8
FE07F8
FE07F8
FE07F8
FE07F8
FE07F8
FE07F8
FE07F8
FE07F8
FE07F8
FE07F8
FE07F8
FE07F8
FE07F8
FE07F8
FE07F8
FE07F8
FE07F8
FE07F8
FE07F8
FE07F8
FE07F8
FE07F8
FE07F8
FE07F8
FE07F8
FE07F8
FE07F8
FE07F8
FE07F8
FE07F8
0007F8
0007F8
000FF0
007FF0
007FF0
007FE0
007FC0
007F00
ENDCHAR
STARTCHAR 0134
ENCODING 308
SWIDTH 322 0
DWIDTH 17 0
BBX 18 55 0 -1
BITMAP
01F800
03FC00
03FC00
07FE00
07FE00
0F9F00
0F9F00
1F0F80
1F0F80
3E0FC0
000000
03FC00
03FC00
03FC00
03FC00
03FC00
03FC00
03FC00
03FC00
03FC00
03FC00
03FC00
03FC00
03FC00
03FC00
03FC00
03FC00
03FC00
03FC00
03FC00
03FC00
03FC00
03FC00
03FC00
03FC00
03FC00
03FC00
03FC00
03FC00
03FC00
03FC00
03FC00
03FC00
03FC00
03FC00
03FC00
03FC00
03FC00
07FC00
FFF800
FFF800
FFF000
FFE000
FFC000
F00000
ENDCHAR
STARTCHAR 0135
ENCODING 309
SWIDTH 246 0
DWIDTH 13 0
BBX 16 51 -1 -9
BITMAP
07E0
0FF0
0FF0
1FF8
1FF8
3E7C
3E7C
7C3E
7C3E
F83F
0000
0FF0
0FF0
0FF0
0FF0
0FF0
0FF0
0FF0
0FF0
0FF0
0FF0
0FF0
0FF0
0FF0
0FF0
0FF0
0FF0
0FF0
0FF0
0FF0
0FF0
0FF0
0FF0
0FF0
0FF0
0FF0
0FF0
0FF0
0FF0
0FF0
0FF0
0FF0
0FF0
0FF0
0FF0
1FE0
FFE0
FFE0
FFC0
FF80
FE00
ENDCHAR
STARTCHAR 0136
ENCODING 310
SWIDTH 530 0
DWIDTH 28 0
BBX 25 60 3 -17
BITMAP
FF007F00
FF00FE00
FF00FE00
FF01FC00
FF01FC00
FF03FC00
FF03F800
FF07F800
FF07F000
FF0FF000
FF0FE000
FF1FE000
FF1FE000
FF3FC000
FF3FC000
FF3F8000
FF7F8000
FF7F8000
FFFF0000
FFFF0000
FFFF0000
FFFF8000
FFFF8000
FFBF8000
FFBFC000
FF3FC000
FF1FE000
FF1FE000
FF1FE000
FF0FF000
FF0FF000
FF07F800
FF07F800
FF07F800
FF03FC00
FF03FC00
FF03FE00
FF01FE00
FF01FE00
FF00FF00
FF00FF00
FF00FF80
FF007F80
00000000
00000000
00000000
007F0000
007F0000
007F0000
007F0000
007F0000
007F0000
007F0000
00070000
000F0000
000F0000
001E0000
007E0000
003C0000
00380000
ENDCHAR
STARTCHAR 0137
ENCODING 311
SWIDTH 492 0
DWIDTH 26 0
BBX 23 60 3 -17
BITMAP
FE0000
FE0000
FE0000
FE0000
FE0000
FE0000
FE0000
FE0000
FE0000
FE0000
FE0000
FE0000
FE01FE
FE03FC
FE07F8
FE07F0
FE0FF0
FE1FE0
FE1FE0
FE3FC0
FE3F80
FE7F80
FEFF00
FEFF00
FFFE00
FFFE00
FFFF00
FFFF00
FFBF80
FF3F80
FF3F80
FE1FC0
FE1FC0
FE1FE0
FE0FE0
FE0FF0
FE0FF0
FE07F0
FE07F8
FE03F8
FE03FC
FE03FC
FE01FC
000000
000000
000000
00FE00
00FE00
00FE00
00FE00
00FE00
00FE00
00FE00
000E00
001E00
001E00
003C00
00FC00
007800
007000
ENDCHAR
STARTCHAR 0138
ENCODING 312
SWIDTH 473 0
DWIDTH 25 0
BBX 22 31 3 0
BITMAP
FE03FC
FE07F8
FE07F0
FE0FF0
FE0FE0
FE1FE0
FE1FC0
FE3FC0
FE3F80
FE7F80
FE7F00
FEFF00
FEFE00
FFFE00
FFFF00
FFFF00
FFFF00
FFBF80
FF3F80
FE3F80
FE1FC0
FE1FC0
FE1FE0
FE0FE0
FE0FE0
FE0FF0
FE07F0
FE07F8
FE07F8
FE03F8
FE03FC
ENDCHAR
STARTCHAR 0139
ENCODING 313
SWIDTH 416 0
DWIDTH 22 0
BBX 18 57 3 0
BITMAP
07F000
07E000
0FE000
0FC000
0FC000
1F8000
1F8000
1F0000
1E0000
3E0000
3C0000
000000
000000
000000
FF0000
FF0000
FF0000
FF0000
FF0000
FF0000
FF0000
FF0000
FF0000
FF0000
FF0000
FF0000
FF0000
FF0000
FF0000
FF0000
FF0000
FF0000
FF0000
FF0000
FF0000
FF0000
FF0000
FF0000
FF0000
FF0000
FF0000
FF0000
FF0000
FF0000
FF0000
FF0000
FF0000
FF0000
FF0000
FF0000
FF0000
FF0000
FFFFC0
FFFFC0
FFFFC0
FFFFC0
FFFFC0
ENDCHAR
STARTCHAR 013A
ENCODING 314
SWIDTH 246 0
DWIDTH 13 0
BBX 12 57 3 0
BITMAP
07F0
07E0
0FE0
0FC0
0FC0
1F80
1F80
1F00
1E00
3E00
3C00
0000
0000
0000
FE00
FE00
FE00
FE00
FE00
FE00
FE00
FE00
FE00
FE00
FE00
FE00
FE00
FE00
FE00
FE00
FE00
FE00
FE00
FE00
FE00
FE00
FE00
FE00
FE00
FE00
FE00
FE00
FE00
FE00
FE00
FE00
FE00
FE00
FE00
FE00
FE00
FE00
FE00
FE00
FE00
FE00
FE00
ENDCHAR
STARTCHAR 013B
ENCODING 315
SWIDTH 416 0
DWIDTH 22 0
BBX 18 60 3 -17
BITMAP
FF0000
FF0000
FF0000
FF0000
FF0000
FF0000
FF0000
FF0000
FF0000
FF0000
FF0000
FF0000
FF0000
FF0000
FF0000
FF0000
FF0000
FF0000
FF0000
FF0000
FF0000
FF0000
FF0000
FF0000
FF0000
FF0000
FF0000
FF0000
FF0000
FF0000
FF0000
FF0000
FF0000
FF0000
FF0000
FF0000
FF0000
FF0000
FFFFC0
FFFFC0
FFFFC0
FFFFC0
FFFFC0
000000
000000
000000
03F800
03F800
03F800
03F800
03F800
03F800
03F800
003800
007800
007800
00F000
03F000
01E000
01C000
ENDCHAR
STARTCHAR 013C
ENCODING 316
SWIDTH 246 0
DWIDTH 13 0
BBX 7 60 3 -17
BITMAP
FE
FE
FE
FE
FE
FE
FE
FE
FE
FE
FE
FE
FE
FE
FE
FE
FE
FE
FE
FE
FE
FE
FE
FE
FE
FE
FE
FE
FE
FE
FE
FE
FE
FE
FE
FE
FE
FE
FE
FE
FE
FE
FE
00
00
00
FE
FE
FE
FE
FE
FE
FE
0E
1E
1E
3C
FC
78
70
ENDCHAR
STARTCHAR 013D
ENCODING 317
SWIDTH 435 0
DWIDTH 23 0
BBX 21 43 3 0
BITMAP
FF01F8
FF01F0
FF01F0
FF01F0
FF01F0
FF01F0
FF01F0
FF01E0
FF01E0
FF01E0
FF01E0
FF01E0
FF01E0
FF01C0
FF0000
FF0000
FF0000
FF0000
FF0000
FF0000
FF0000
FF0000
FF0000
FF0000
FF0000
FF0000
FF0000
FF0000
FF0000
FF0000
FF0000
FF0000
FF0000
FF0000
FF0000
FF0000
FF0000
FF0000
FFFFC0
FFFFC0
FFFFC0
FFFFC0
FFFFC0
ENDCHAR
STARTCHAR 013E
ENCODING 318
SWIDTH 360 0
DWIDTH 19 0
BBX 19 43 3 0
BITMAP
FE07E0
FE07C0
FE07C0
FE07C0
FE07C0
FE07C0
FE07C0
FE0780
FE0780
FE0780
FE0780
FE0780
FE0780
FE0700
FE0000
FE0000
FE0000
FE0000
FE0000
FE0000
FE0000
FE0000
FE0000
FE0000
FE0000
FE0000
FE0000
FE0000
FE0000
FE0000
FE0000
FE0000
FE0000
FE0000
FE0000
FE0000
FE0000
FE0000
FE0000
FE0000
FE0000
FE0000
FE0000
ENDCHAR
STARTCHAR 013F
ENCODING 319
SWIDTH 416 0
DWIDTH 22 0
BBX 18 43 3 0
BITMAP
FF0000
FF0000
FF0000
FF0000
FF0000
FF0000
FF0000
FF0000
FF0000
FF0000
FF0000
FF0000
FF0000
FF0000
FF0000
FF0000
FF0000
FF0000
FF1FC0
FF1FC0
FF1FC0
FF1FC0
FF1FC0
FF1FC0
FF1FC0
FF0000
FF0000
FF0000
FF0000
FF0000
FF0000
FF0000
FF0000
FF0000
FF0000
FF0000
FF0000
FF0000
FFFFC0
FFFFC0
FFFFC0
FFFFC0
FFFFC0
ENDCHAR
STARTCHAR 0140
ENCODING 320
SWIDTH 454 0
DWIDTH 24 0
BBX 19 43 3 0
BITMAP
FE0000
FE0000
FE0000
FE0000
FE0000
FE0000
FE0000
FE0000
FE0000
FE0000
FE0000
FE0000
FE0000
FE0000
FE0000
FE0000
FE0000
FE0000
FE0000
FE0000
FE0FE0
FE0FE0
FE0FE0
FE0FE0
FE0FE0
FE0FE0
FE0FE0
FE0000
FE0000
FE0000
FE0000
FE0000
FE0000
FE0000
FE0000
FE0000
FE0000
FE0000
FE0000
FE0000
FE0000
FE0000
FE0000
ENDCHAR
STARTCHAR 0141
ENCODING 321
SWIDTH 416 0
DWIDTH 22 0
BBX 21 43 0 0
BITMAP
1FE000
1FE000
1FE000
1FE000
1FE000
1FE000
1FE000
1FE000
1FE000
1FE000
1FE000
1FE000
1FE080
1FE380
1FEF80
1FFF80
1FFF80
1FFF00
1FFC00
3FF000
FFE000
FFE000
FFE000
FFE000
DFE000
9FE000
1FE000
1FE000
1FE000
1FE000
1FE000
1FE000
1FE000
1FE000
1FE000
1FE000
1FE000
1FE000
1FFFF8
1FFFF8
1FFFF8
1FFFF8
1FFFF8
ENDCHAR
STARTCHAR 0142
ENCODING 322
SWIDTH 303 0
DWIDTH 16 0
BBX 14 43 1 0
BITMAP
1FE0
1FE0
1FE0
1FE0
1FE0
1FE0
1FE0
1FE0
1FE0
1FE0
1FE0
1FE0
1FE4
1FFC
1FFC
1FFC
1FFC
7FF0
FFE0
FFE0
FFE0
FFE0
9FE0
1FE0
1FE0
1FE0
1FE0
1FE0
1FE0
1FE0
1FE0
1FE0
1FE0
1FE0
1FE0
1FE0
1FE0
1FE0
1FE0
1FE0
1FE0
1FE0
1FE0
ENDCHAR
STARTCHAR 0143
ENCODING 323
SWIDTH 549 0
DWIDTH 29 0
BBX 23 57 3 0
BITMAP
000FE0
000FC0
001FC0
001F80
001F80
003F00
003F00
003E00
003C00
007C00
007800
000000
000000
000000
FC00FE
FC00FE
FE00FE
FE00FE
FF00FE
FF00FE
FF00FE
FF80FE
FF80FE
FFC0FE
FFC0FE
FFE0FE
FFE0FE
FFE0FE
FFF0FE
FFF0FE
FFF8FE
FFF8FE
FFFCFE
FFFCFE
FEFCFE
FEFEFE
FE7EFE
FE7FFE
FE7FFE
FE3FFE
FE3FFE
FE1FFE
FE1FFE
FE0FFE
FE0FFE
FE0FFE
FE07FE
FE07FE
FE03FE
FE03FE
FE01FE
FE01FE
FE00FE
FE00FE
FE00FE
FE007E
FE007E
ENDCHAR
STARTCHAR 0144
ENCODING 324
SWIDTH 473 0
DWIDTH 25 0
BBX 20 45 3 0
BITMAP
001FC0
001F80
003F80
003F00
003F00
007E00
007E00
007C00
007800
00F800
00F000
000000
000000
000000
FE0F80
FE7FC0
FEFFE0
FFFFE0
FFFFE0
FF8FE0
FE0FF0
FE0FF0
FE0FF0
FE0FF0
FE0FF0
FE0FF0
FE0FF0
FE0FF0
FE0FF0
FE0FF0
FE0FF0
FE0FF0
FE0FF0
FE0FF0
FE0FF0
FE0FF0
FE0FF0
FE0FF0
FE0FF0
FE0FF0
FE0FF0
FE0FF0
FE0FF0
FE0FF0
FE0FF0
ENDCHAR
STARTCHAR 0145
ENCODING 325
SWIDTH 549 0
DWIDTH 29 0
BBX 23 60 3 -17
BITMAP
FC00FE
FC00FE
FE00FE
FE00FE
FF00FE
FF00FE
FF00FE
FF80FE
FF80FE
FFC0FE
FFC0FE
FFE0FE
FFE0FE
FFE0FE
FFF0FE
FFF0FE
FFF8FE
FFF8FE
FFFCFE
FFFCFE
FEFCFE
FEFEFE
FE7EFE
FE7FFE
FE7FFE
FE3FFE
FE3FFE
FE1FFE
FE1FFE
FE0FFE
FE0FFE
FE0FFE
FE07FE
FE07FE
FE03FE
FE03FE
FE01FE
FE01FE
FE00FE
FE00FE
FE00FE
FE007E
FE007E
000000
000000
000000
00FE00
00FE00
00FE00
00FE00
00FE00
00FE00
00FE00
000E00
001E00
001E00
003C00
00FC00
007800
007000
ENDCHAR
STARTCHAR 0146
ENCODING 326
SWIDTH 473 0
DWIDTH 25 0
BBX 20 48 3 -17
BITMAP
FE0F80
FE7FC0
FEFFE0
FFFFE0
FFFFE0
FF8FE0
FE0FF0
FE0FF0
FE0FF0
FE0FF0
FE0FF0
FE0FF0
FE0FF0
FE0FF0
FE0FF0
FE0FF0
FE0FF0
FE0FF0
FE0FF0
FE0FF0
FE0FF0
FE0FF0
FE0FF0
FE0FF0
FE0FF0
FE0FF0
FE0FF0
FE0FF0
FE0FF0
FE0FF0
FE0FF0
000000
000000
000000
03F800
03F800
03F800
03F800
03F800
03F800
03F800
003800
007800
007800
00F000
03F000
01E000
01C000
ENDCHAR
STARTCHAR 0147
ENCODING 327
SWIDTH 549 0
DWIDTH 29 0
BBX 23 56 3 0
BITMAP
1F83E0
0F87E0
0FC7C0
07CFC0
07EF80
03FF80
03FF00
01FF00
01FE00
000000
000000
000000
000000
FC00FE
FC00FE
FE00FE
FE00FE
FF00FE
FF00FE
FF00FE
FF80FE
FF80FE
FFC0FE
FFC0FE
FFE0FE
FFE0FE
FFE0FE
FFF0FE
FFF0FE
FFF8FE
FFF8FE
FFFCFE
FFFCFE
FEFCFE
FEFEFE
FE7EFE
FE7FFE
FE7FFE
FE3FFE
FE3FFE
FE1FFE
FE1FFE
FE0FFE
FE0FFE
FE0FFE
FE07FE
FE07FE
FE03FE
FE03FE
FE01FE
FE01FE
FE00FE
FE00FE
FE00FE
FE007E
FE007E
ENDCHAR
STARTCHAR 0148
ENCODING 328
SWIDTH 473 0
DWIDTH 25 0
BBX 20 44 3 0
BITMAP
7E0F80
3E1F80
3F1F00
1F3F00
1FBE00
0FFE00
0FFC00
07FC00
07F800
000000
000000
000000
000000
FE0F80
FE7FC0
FEFFE0
FFFFE0
FFFFE0
FF8FE0
FE0FF0
FE0FF0
FE0FF0
FE0FF0
FE0FF0
FE0FF0
FE0FF0
FE0FF0
FE0FF0
FE0FF0
FE0FF0
FE0FF0
FE0FF0
FE0FF0
FE0FF0
FE0FF0
FE0FF0
FE0FF0
FE0FF0
FE0FF0
FE0FF0
FE0FF0
FE0FF0
FE0FF0
FE0FF0
ENDCHAR
STARTCHAR 0149
ENCODING 329
SWIDTH 473 0
DWIDTH 25 0
BBX 20 49 3 0
BITMAP
FC0000
F80000
F80000
F80000
F80000
F80000
F80000
F00000
F00000
F00000
F00000
F00000
F00000
E00000
000000
000000
000000
000000
FE0F80
FE7FC0
FEFFE0
FFFFE0
FFFFE0
FF8FE0
FE0FF0
FE0FF0
FE0FF0
FE0FF0
FE0FF0
FE0FF0
FE0FF0
FE0FF0
FE0FF0
FE0FF0
FE0FF0
FE0FF0
FE0FF0
FE0FF0
FE0FF0
FE0FF0
FE0FF0
FE0FF0
FE0FF0
FE0FF0
FE0FF0
FE0FF0
FE0FF0
FE0FF0
FE0FF0
ENDCHAR
STARTCHAR 014A
ENCODING 330
SWIDTH 549 0
DWIDTH 29 0
BBX 23 54 3 -12
BITMAP
FC00FE
FC00FE
FE00FE
FE00FE
FF00FE
FF00FE
FF80FE
FF80FE
FF80FE
FFC0FE
FFC0FE
FFE0FE
FFE0FE
FFF0FE
FFF0FE
FFF0FE
FFF8FE
FFF8FE
FFFCFE
FEFCFE
FEFEFE
FEFEFE
FE7FFE
FE7FFE
FE3FFE
FE3FFE
FE1FFE
FE1FFE
FE0FFE
FE0FFE
FE0FFE
FE07FE
FE07FE
FE03FE
FE03FE
FE01FE
FE01FE
FE00FE
FE00FE
FE00FE
FE007E
FE007E
FE007E
00007E
0000FE
0000FE
0000FC
0000FC
0003FC
001FFC
001FF8
001FF8
001FF0
001FC0
ENDCHAR
STARTCHAR 014B
ENCODING 331
SWIDTH 435 0
DWIDTH 23 0
BBX 20 41 2 -11
BITMAP
FF0F80
FF3FC0
FFFFE0
FFFFE0
FFFFF0
FF8FF0
FF07F0
FF07F0
FF07F0
FF07F0
FF07F0
FF07F0
FF07F0
FF07F0
FF07F0
FF07F0
FF07F0
FF07F0
FF07F0
FF07F0
FF07F0
FF07F0
FF07F0
FF07F0
FF07F0
FF07F0
FF07F0
FF07F0
FF07F0
FF07F0
FF07F0
0007F0
0007F0
000FF0
000FF0
003FE0
01FFE0
01FFC0
01FF80
01FF00
01FC00
ENDCHAR
STARTCHAR 014C
ENCODING 332
SWIDTH 568 0
DWIDTH 30 0
BBX 24 51 3 -1
BITMAP
03FFC0
03FFC0
03FFC0
03FFC0
000000
000000
001000
03FFC0
0FFFF0
1FFFF8
3FFFFC
7FFFFC
7FFFFE
FF81FE
FF00FF
FF00FF
FF00FF
FE00FF
FE00FF
FE00FF
FE00FF
FE00FF
FE00FF
FE00FF
FE00FF
FE00FF
FE00FF
FE00FF
FE00FF
FE00FF
FE00FF
FE00FF
FE00FF
FE00FF
FE00FF
FE00FF
FE00FF
FE00FF
FE00FF
FE00FF
FF00FF
FF00FF
FF00FF
7F81FE
7FFFFE
7FFFFC
3FFFFC
1FFFF8
0FFFF0
03FFC0
001000
ENDCHAR
STARTCHAR 014D
ENCODING 333
SWIDTH 454 0
DWIDTH 24 0
BBX 20 38 2 0
BITMAP
0FFF00
0FFF00
0FFF00
0FFF00
000000
000000
000000
03FC00
0FFF00
1FFF80
3FFFC0
7FFFE0
7F9FE0
7F0FE0
FF0FF0
FE07F0
FE07F0
FE07F0
FE07F0
FE07F0
FE07F0
FE07F0
FE07F0
FE07F0
FE07F0
FE07F0
FE07F0
FE07F0
FE07F0
FE07F0
FF0FF0
7F0FE0
7F9FE0
7FFFE0
3FFFC0
1FFF80
0FFF00
03FC00
ENDCHAR
STARTCHAR 014E
ENCODING 334
SWIDTH 568 0
DWIDTH 30 0
BBX 24 55 3 -1
BITMAP
0F00E0
0F00E0
0F01E0
0783E0
07FFC0
03FF80
00FE00
000000
000000
000000
001000
03FFC0
0FFFF0
1FFFF8
3FFFFC
7FFFFC
7FFFFE
FF81FE
FF00FF
FF00FF
FF00FF
FE00FF
FE00FF
FE00FF
FE00FF
FE00FF
FE00FF
FE00FF
FE00FF
FE00FF
FE00FF
FE00FF
FE00FF
FE00FF
FE00FF
FE00FF
FE00FF
FE00FF
FE00FF
FE00FF
FE00FF
FE00FF
FE00FF
FE00FF
FF00FF
FF00FF
FF00FF
7F81FE
7FFFFE
7FFFFC
3FFFFC
1FFFF8
0FFFF0
03FFC0
001000
ENDCHAR
STARTCHAR 014F
ENCODING 335
SWIDTH 454 0
DWIDTH 24 0
BBX 20 42 2 0
BITMAP
3C0380
3C0380
3C0780
1E0F80
1FFF00
0FFE00
03F800
000000
000000
000000
000000
03FC00
0FFF00
1FFF80
3FFFC0
7FFFE0
7F9FE0
7F0FE0
FF0FF0
FE07F0
FE07F0
FE07F0
FE07F0
FE07F0
FE07F0
FE07F0
FE07F0
FE07F0
FE07F0
FE07F0
FE07F0
FE07F0
FE07F0
FE07F0
FF0FF0
7F0FE0
7F9FE0
7FFFE0
3FFFC0
1FFF80
0FFF00
03FC00
ENDCHAR
STARTCHAR 0150
ENCODING 336
SWIDTH 568 0
DWIDTH 30 0
BBX 24 58 3 -1
BITMAP
00FC7F
00FC7E
00F87E
00F8FC
01F0F8
01F0F8
01E1F0
01E1E0
03C1E0
03C3C0
000000
000000
000000
001000
03FFC0
0FFFF0
1FFFF8
3FFFFC
7FFFFC
7FFFFE
FF81FE
FF00FF
FF00FF
FF00FF
FE00FF
FE00FF
FE00FF
FE00FF
FE00FF
FE00FF
FE00FF
FE00FF
FE00FF
FE00FF
FE00FF
FE00FF
FE00FF
FE00FF
FE00FF
FE00FF
FE00FF
FE00FF
FE00FF
FE00FF
FE00FF
FE00FF
FE00FF
FF00FF
FF00FF
FF00FF
7F81FE
7FFFFE
7FFFFC
3FFFFC
1FFFF8
0FFFF0
03FFC0
001000
ENDCHAR
STARTCHAR 0151
ENCODING 337
SWIDTH 454 0
DWIDTH 24 0
BBX 22 45 2 0
BITMAP
03F1FC
03F1F8
03E1F8
03E3F0
07C3E0
07C3E0
0787C0
078780
0F0780
0F0F00
000000
000000
000000
000000
03FC00
0FFF00
1FFF80
3FFFC0
7FFFE0
7F9FE0
7F0FE0
FF0FF0
FE07F0
FE07F0
FE07F0
FE07F0
FE07F0
FE07F0
FE07F0
FE07F0
FE07F0
FE07F0
FE07F0
FE07F0
FE07F0
FE07F0
FE07F0
FF0FF0
7F0FE0
7F9FE0
7FFFE0
3FFFC0
1FFF80
0FFF00
03FC00
ENDCHAR
STARTCHAR 0152
ENCODING 338
SWIDTH 701 0
DWIDTH 37 0
BBX 33 43 3 0
BITMAP
00FFFFFF80
07FFFFFF80
0FFFFFFF80
1FFFFFFF80
3FFFFFFF80
7FC1FE0000
7F81FE0000
FF01FE0000
FF01FE0000
FF01FE0000
FE01FE0000
FE01FE0000
FE01FE0000
FE01FE0000
FE01FE0000
FE01FE0000
FE01FE0000
FE01FE0000
FE01FFFE00
FE01FFFE00
FE01FFFE00
FE01FFFE00
FE01FFFE00
FE01FE0000
FE01FE0000
FE01FE0000
FE01FE0000
FE01FE0000
FE01FE0000
FE01FE0000
FE01FE0000
FE01FE0000
FE01FE0000
FF01FE0000
FF01FE0000
FF01FE0000
7F81FE0000
7FC1FE0000
3FFFFFFF80
3FFFFFFF80
1FFFFFFF80
07FFFFFF80
00FFFFFF80
ENDCHAR
STARTCHAR 0153
ENCODING 339
SWIDTH 701 0
DWIDTH 37 0
BBX 32 32 3 -1
BITMAP
03F01FC0
1FFC7FF0
3FFEFFF8
7FFFFFFC
7FFFFFFC
FF1FF9FE
FE0FF0FE
FE0FF0FE
FE0FF0FE
FE0FF07E
FE0FF07E
FE0FF07E
FE0FFFFF
FE0FFFFF
FE0FFFFF
FE0FFFFF
FE0FF000
FE0FF000
FE0FF000
FE0FF000
FE0FF07F
FE0FF07F
FE0FF07F
FE0FF0FE
FE0FF0FE
FF1FF0FE
7FFFFFFE
7FFFFFFE
3FFEFFFC
1FFE7FF8
0FF83FE0
00800200
ENDCHAR
STARTCHAR 0154
ENCODING 340
SWIDTH 549 0
DWIDTH 29 0
BBX 25 57 3 0
BITMAP
0007F000
0007E000
000FE000
000FC000
000FC000
001F8000
001F8000
001F0000
001E0000
003E0000
003C0000
00000000
00000000
00000000
FFFF0000
FFFFE000
FFFFF000
FFFFF800
FFFFFC00
FF07FE00
FF01FE00
FF00FE00
FF00FE00
FF00FF00
FF00FF00
FF00FF00
FF00FF00
FF00FF00
FF00FE00
FF00FE00
FF01FE00
FF07FE00
FFFFFC00
FFFFF800
FFFFF000
FFFFE000
FFFFE000
FF0FE000
FF0FE000
FF0FF000
FF0FF000
FF07F000
FF07F800
FF07F800
FF07F800
FF03F800
FF03FC00
FF03FC00
FF03FC00
FF01FE00
FF01FE00
FF01FE00
FF01FE00
FF00FF00
FF00FF00
FF00FF00
FF00FF80
ENDCHAR
STARTCHAR 0155
ENCODING 341
SWIDTH 341 0
DWIDTH 18 0
BBX 15 45 3 0
BITMAP
00FE
00FC
01FC
01F8
01F8
03F0
03F0
03E0
03C0
07C0
0780
0000
0000
0000
FE1E
FE3E
FE7E
FEFE
FFFE
FFFE
FFFE
FFC2
FF80
FF00
FE00
FE00
FE00
FE00
FE00
FE00
FE00
FE00
FE00
FE00
FE00
FE00
FE00
FE00
FE00
FE00
FE00
FE00
FE00
FE00
FE00
ENDCHAR
STARTCHAR 0156
ENCODING 342
SWIDTH 549 0
DWIDTH 29 0
BBX 25 60 3 -17
BITMAP
FFFF0000
FFFFE000
FFFFF000
FFFFF800
FFFFFC00
FF07FE00
FF01FE00
FF00FE00
FF00FE00
FF00FF00
FF00FF00
FF00FF00
FF00FF00
FF00FF00
FF00FE00
FF00FE00
FF01FE00
FF07FE00
FFFFFC00
FFFFF800
FFFFF000
FFFFE000
FFFFE000
FF0FE000
FF0FE000
FF0FF000
FF0FF000
FF07F000
FF07F800
FF07F800
FF07F800
FF03F800
FF03FC00
FF03FC00
FF03FC00
FF01FE00
FF01FE00
FF01FE00
FF01FE00
FF00FF00
FF00FF00
FF00FF00
FF00FF80
00000000
00000000
00000000
007F0000
007F0000
007F0000
007F0000
007F0000
007F0000
007F0000
00070000
000F0000
000F0000
001E0000
007E0000
003C0000
00380000
ENDCHAR
STARTCHAR 0157
ENCODING 343
SWIDTH 341 0
DWIDTH 18 0
BBX 15 48 3 -17
BITMAP
FE1E
FE3E
FE7E
FEFE
FFFE
FFFE
FFFE
FFC2
FF80
FF00
FE00
FE00
FE00
FE00
FE00
FE00
FE00
FE00
FE00
FE00
FE00
FE00
FE00
FE00
FE00
FE00
FE00
FE00
FE00
FE00
FE00
0000
0000
0000
0FE0
0FE0
0FE0
0FE0
0FE0
0FE0
0FE0
00E0
01E0
01E0
03C0
0FC0
0780
0700
ENDCHAR
STARTCHAR 0158
ENCODING 344
SWIDTH 549 0
DWIDTH 29 0
BBX 25 56 3 0
BITMAP
0FC1F000
07C3F000
07E3E000
03E7E000
03F7C000
01FFC000
01FF8000
00FF8000
00FF0000
00000000
00000000
00000000
00000000
FFFF0000
FFFFE000
FFFFF000
FFFFF800
FFFFFC00
FF07FE00
FF01FE00
FF00FE00
FF00FE00
FF00FF00
FF00FF00
FF00FF00
FF00FF00
FF00FF00
FF00FE00
FF00FE00
FF01FE00
FF07FE00
FFFFFC00
FFFFF800
FFFFF000
FFFFE000
FFFFE000
FF0FE000
FF0FE000
FF0FF000
FF0FF000
FF07F000
FF07F800
FF07F800
FF07F800
FF03F800
FF03FC00
FF03FC00
FF03FC00
FF01FE00
FF01FE00
FF01FE00
FF01FE00
FF00FF00
FF00FF00
FF00FF00
FF00FF80
ENDCHAR
STARTCHAR 0159
ENCODING 345
SWIDTH 341 0
DWIDTH 18 0
BBX 16 44 2 0
BITMAP
FC1F
7C3F
7E3E
3E7E
3F7C
1FFC
1FF8
0FF8
0FF0
0000
0000
0000
0000
7F0F
7F1F
7F3F
7F7F
7FFF
7FFF
7FFF
7FE1
7FC0
7F80
7F00
7F00
7F00
7F00
7F00
7F00
7F00
7F00
7F00
7F00
7F00
7F00
7F00
7F00
7F00
7F00
7F00
7F00
7F00
7F00
7F00
ENDCHAR
STARTCHAR 015A
ENCODING 346
SWIDTH 492 0
DWIDTH 26 0
BBX 23 58 2 -1
BITMAP
0007F0
0007E0
000FE0
000FC0
000FC0
001F80
001F80
001F00
001E00
003E00
003C00
000000
000000
001000
03FF00
0FFFC0
1FFFE0
3FFFF0
7FFFF0
7FEFF8
7F03F8
FF03F8
FF01FC
FE01FC
FF01FC
FF01F8
FF0100
7F8000
7FC000
7FE000
3FF000
3FF800
1FFC00
0FFE00
07FF00
03FF80
01FFC0
007FE0
003FF0
001FF8
000FF8
0007FC
0003FC
0603FC
FE01FE
FE01FE
FE01FE
FE01FE
7F01FE
7F01FE
7F83FC
3FFFFC
3FFFF8
1FFFF8
0FFFF0
07FFE0
01FF80
000800
ENDCHAR
STARTCHAR 015B
ENCODING 347
SWIDTH 397 0
DWIDTH 21 0
BBX 19 45 1 0
BITMAP
001FC0
001F80
003F80
003F00
003F00
007E00
007E00
007C00
007800
00F800
00F000
000000
000000
000000
03F800
0FFE00
1FFF00
3FFF00
3FFF80
7F1FC0
7F0FC0
7E07C0
7F0780
7F0600
7F8000
3FC000
3FF000
1FF800
0FFC00
07FE00
03FF00
01FF80
007FC0
003FC0
001FE0
0C0FE0
7C0FE0
FC0FE0
7E0FE0
7F1FE0
7FFFC0
3FFFC0
1FFF80
0FFE00
03F800
ENDCHAR
STARTCHAR 015C
ENCODING 348
SWIDTH 492 0
DWIDTH 26 0
BBX 23 57 2 -1
BITMAP
00FC00
01FE00
01FE00
03FF00
03FF00
07CF80
07CF80
0F87C0
0F87C0
1F07E0
000000
000000
001000
03FF00
0FFFC0
1FFFE0
3FFFF0
7FFFF0
7FEFF8
7F03F8
FF03F8
FF01FC
FE01FC
FF01FC
FF01F8
FF0100
7F8000
7FC000
7FE000
3FF000
3FF800
1FFC00
0FFE00
07FF00
03FF80
01FFC0
007FE0
003FF0
001FF8
000FF8
0007FC
0003FC
0603FC
FE01FE
FE01FE
FE01FE
FE01FE
7F01FE
7F01FE
7F83FC
3FFFFC
3FFFF8
1FFFF8
0FFFF0
07FFE0
01FF80
000800
ENDCHAR
STARTCHAR 015D
ENCODING 349
SWIDTH 397 0
DWIDTH 21 0
BBX 19 44 1 0
BITMAP
01F800
03FC00
03FC00
07FE00
07FE00
0F9F00
0F9F00
1F0F80
1F0F80
3E0FC0
000000
000000
000000
03F800
0FFE00
1FFF00
3FFF00
3FFF80
7F1FC0
7F0FC0
7E07C0
7F0780
7F0600
7F8000
3FC000
3FF000
1FF800
0FFC00
07FE00
03FF00
01FF80
007FC0
003FC0
001FE0
0C0FE0
7C0FE0
FC0FE0
7E0FE0
7F1FE0
7FFFC0
3FFFC0
1FFF80
0FFE00
03F800
ENDCHAR
STARTCHAR 015E
ENCODING 350
SWIDTH 492 0
DWIDTH 26 0
BBX 23 58 2 -14
BITMAP
001000
03FF00
0FFFC0
1FFFE0
3FFFF0
7FFFF0
7FEFF8
7F03F8
FF03F8
FF01FC
FE01FC
FF01FC
FF01F8
FF0100
7F8000
7FC000
7FE000
3FF000
3FF800
1FFC00
0FFE00
07FF00
03FF80
01FFC0
007FE0
003FF0
001FF8
000FF8
0007FC
0003FC
0603FC
FE01FE
FE01FE
FE01FE
FE01FE
7F01FE
7F01FE
7F83FC
3FFFFC
3FFFF8
1FFFF8
0FFFF0
07FFE0
01FF80
001C00
001C00
001C00
001C00
001F80
001FE0
0003F0
0001F0
0001F0
0003F0
007FF0
007FF0
007FE0
003F80
ENDCHAR
STARTCHAR 015F
ENCODING 351
SWIDTH 397 0
DWIDTH 21 0
BBX 19 45 1 -14
BITMAP
03F800
0FFE00
1FFF00
3FFF00
3FFF80
7F1FC0
7F0FC0
7E07C0
7F0780
7F0600
7F8000
3FC000
3FF000
1FF800
0FFC00
07FE00
03FF00
01FF80
007FC0
003FC0
001FE0
0C0FE0
7C0FE0
FC0FE0
7E0FE0
7F1FE0
7FFFC0
3FFFC0
1FFF80
0FFE00
03F800
007000
007000
007000
007000
007E00
007F80
000FC0
0007C0
0007C0
000FC0
01FFC0
01FFC0
01FF80
00FE00
ENDCHAR
STARTCHAR 0160
ENCODING 352
SWIDTH 492 0
DWIDTH 26 0
BBX 23 57 2 -1
BITMAP
1F83E0
0F87E0
0FC7C0
07CFC0
07EF80
03FF80
03FF00
01FF00
01FE00
000000
000000
000000
001000
03FF00
0FFFC0
1FFFE0
3FFFF0
7FFFF0
7FEFF8
7F03F8
FF03F8
FF01FC
FE01FC
FF01FC
FF01F8
FF0100
7F8000
7FC000
7FE000
3FF000
3FF800
1FFC00
0FFE00
07FF00
03FF80
01FFC0
007FE0
003FF0
001FF8
000FF8
0007FC
0003FC
0603FC
FE01FE
FE01FE
FE01FE
FE01FE
7F01FE
7F01FE
7F83FC
3FFFFC
3FFFF8
1FFFF8
0FFFF0
07FFE0
01FF80
000800
ENDCHAR
STARTCHAR 0161
ENCODING 353
SWIDTH 397 0
DWIDTH 21 0
BBX 19 44 1 0
BITMAP
7E0F80
3E1F80
3F1F00
1F3F00
1FBE00
0FFE00
0FFC00
07FC00
07F800
000000
000000
000000
000000
03F800
0FFE00
1FFF00
3FFF00
3FFF80
7F1FC0
7F0FC0
7E07C0
7F0780
7F0600
7F8000
3FC000
3FF000
1FF800
0FFC00
07FE00
03FF00
01FF80
007FC0
003FC0
001FE0
0C0FE0
7C0FE0
FC0FE0
7E0FE0
7F1FE0
7FFFC0
3FFFC0
1FFF80
0FFE00
03F800
ENDCHAR
STARTCHAR 0162
ENCODING 354
SWIDTH 416 0
DWIDTH 22 0
BBX 22 57 0 -14
BITMAP
FFFFFC
FFFFFC
FFFFFC
FFFFFC
FFFFFC
FFFFFC
01FE00
01FE00
01FE00
01FE00
01FE00
01FE00
01FE00
01FE00
01FE00
01FE00
01FE00
01FE00
01FE00
01FE00
01FE00
01FE00
01FE00
01FE00
01FE00
01FE00
01FE00
01FE00
01FE00
01FE00
01FE00
01FE00
01FE00
01FE00
01FE00
01FE00
01FE00
01FE00
01FE00
01FE00
01FE00
01FE00
01FE00
001C00
001C00
001C00
001C00
001F80
001FE0
0003F0
0001F0
0001F0
0003F0
007FF0
007FF0
007FE0
003F80
ENDCHAR
STARTCHAR 0163
ENCODING 355
SWIDTH 341 0
DWIDTH 18 0
BBX 18 54 1 -14
BITMAP
1FC000
1FC000
1FC000
1FC000
1FC000
1FC000
1FC000
1FC000
1FC000
FFFE00
FFFE00
FFFE00
FFFE00
FFFE00
1FC000
1FC000
1FC000
1FC000
1FC000
1FC000
1FC000
1FC000
1FC000
1FC000
1FC000
1FC000
1FC000
1FC000
1FC000
1FC000
1FC000
1FC000
1FC000
1FE000
1FFE00
0FFE00
0FFE00
07FE00
07FE00
01FE00
007000
007000
007000
007000
007E00
007F80
000FC0
0007C0
0007C0
000FC0
01FFC0
01FFC0
01FF80
00FE00
ENDCHAR
STARTCHAR 0164
ENCODING 356
SWIDTH 416 0
DWIDTH 22 0
BBX 22 56 0 0
BITMAP
1F83E0
0F87E0
0FC7C0
07CFC0
07EF80
03FF80
03FF00
01FF00
01FE00
000000
000000
000000
000000
FFFFFC
FFFFFC
FFFFFC
FFFFFC
FFFFFC
FFFFFC
01FE00
01FE00
01FE00
01FE00
01FE00
01FE00
01FE00
01FE00
01FE00
01FE00
01FE00
01FE00
01FE00
01FE00
01FE00
01FE00
01FE00
01FE00
01FE00
01FE00
01FE00
01FE00
01FE00
01FE00
01FE00
01FE00
01FE00
01FE00
01FE00
01FE00
01FE00
01FE00
01FE00
01FE00
01FE00
01FE00
01FE00
ENDCHAR
STARTCHAR 0165
ENCODING 357
SWIDTH 360 0
DWIDTH 19 0
BBX 22 49 1 0
BITMAP
0000FC
0000F8
0000F8
0000F8
0000F8
0000F8
0000F8
0000F0
0000F0
1FC0F0
1FC0F0
1FC0F0
1FC0F0
1FC0E0
1FC000
1FC000
1FC000
1FC000
FFFE00
FFFE00
FFFE00
FFFE00
FFFE00
1FC000
1FC000
1FC000
1FC000
1FC000
1FC000
1FC000
1FC000
1FC000
1FC000
1FC000
1FC000
1FC000
1FC000
1FC000
1FC000
1FC000
1FC000
1FC000
1FE000
1FFE00
0FFE00
0FFE00
07FE00
07FE00
01FE00
ENDCHAR
STARTCHAR 0166
ENCODING 358
SWIDTH 416 0
DWIDTH 22 0
BBX 22 43 0 0
BITMAP
FFFFFC
FFFFFC
FFFFFC
FFFFFC
FFFFFC
FFFFFC
01FE00
01FE00
01FE00
01FE00
01FE00
01FE00
01FE00
01FE00
01FE00
01FE00
01FE00
01FE00
01FE00
3FFFF0
3FFFF0
3FFFF0
3FFFF0
01FE00
01FE00
01FE00
01FE00
01FE00
01FE00
01FE00
01FE00
01FE00
01FE00
01FE00
01FE00
01FE00
01FE00
01FE00
01FE00
01FE00
01FE00
01FE00
01FE00
ENDCHAR
STARTCHAR 0167
ENCODING 359
SWIDTH 284 0
DWIDTH 15 0
BBX 15 40 1 0
BITMAP
1FC0
1FC0
1FC0
1FC0
1FC0
1FC0
1FC0
1FC0
1FC0
FFFE
FFFE
FFFE
FFFE
FFFE
1FC0
1FC0
1FC0
1FC0
1FC0
FFFE
FFFE
FFFE
1FC0
1FC0
1FC0
1FC0
1FC0
1FC0
1FC0
1FC0
1FC0
1FC0
1FC0
1FE0
1FFE
0FFE
0FFE
07FE
07FE
01FE
ENDCHAR
STARTCHAR 0168
ENCODING 360
SWIDTH 568 0
DWIDTH 30 0
BBX 24 55 3 -1
BITMAP
010000
07E0F0
0FF8F0
0FFFF0
1FFFE0
1FFFE0
1E1FE0
1E07C0
000000
000000
000000
FE00FF
FE00FF
FE00FF
FE00FF
FE00FF
FE00FF
FE00FF
FE00FF
FE00FF
FE00FF
FE00FF
FE00FF
FE00FF
FE00FF
FE00FF
FE00FF
FE00FF
FE00FF
FE00FF
FE00FF
FE00FF
FE00FF
FE00FF
FE00FF
FE00FF
FE00FF
FE00FF
FE00FF
FE00FF
FE00FF
FE00FF
FE00FF
FF00FF
FF00FF
FF00FF
7F01FE
7F81FE
7FFFFE
3FFFFC
3FFFFC
1FFFF8
0FFFF0
03FFC0
001000
ENDCHAR
STARTCHAR 0169
ENCODING 361
SWIDTH 473 0
DWIDTH 25 0
BBX 19 42 3 0
BITMAP
040000
1F83C0
3FE3C0
3FFFC0
7FFF80
7FFF80
787F80
781F00
000000
000000
000000
FE0FE0
FE0FE0
FE0FE0
FE0FE0
FE0FE0
FE0FE0
FE0FE0
FE0FE0
FE0FE0
FE0FE0
FE0FE0
FE0FE0
FE0FE0
FE0FE0
FE0FE0
FE0FE0
FE0FE0
FE0FE0
FE0FE0
FE0FE0
FE0FE0
FE0FE0
FE0FE0
FE0FE0
FE0FE0
FE3FE0
FFFFE0
FFFFE0
FFEFE0
7FCFE0
3F0FE0
ENDCHAR
STARTCHAR 016A
ENCODING 362
SWIDTH 568 0
DWIDTH 30 0
BBX 24 51 3 -1
BITMAP
03FFC0
03FFC0
03FFC0
03FFC0
000000
000000
000000
FE00FF
FE00FF
FE00FF
FE00FF
FE00FF
FE00FF
FE00FF
FE00FF
FE00FF
FE00FF
FE00FF
FE00FF
FE00FF
FE00FF
FE00FF
FE00FF
FE00FF
FE00FF
FE00FF
FE00FF
FE00FF
FE00FF
FE00FF
FE00FF
FE00FF
FE00FF
FE00FF
FE00FF
FE00FF
FE00FF
FE00FF
FE00FF
FF00FF
FF00FF
FF00FF
7F01FE
7F81FE
7FFFFE
3FFFFC
3FFFFC
1FFFF8
0FFFF0
03FFC0
001000
ENDCHAR
STARTCHAR 016B
ENCODING 363
SWIDTH 473 0
DWIDTH 25 0
BBX 19 38 3 0
BITMAP
0FFF00
0FFF00
0FFF00
0FFF00
000000
000000
000000
FE0FE0
FE0FE0
FE0FE0
FE0FE0
FE0FE0
FE0FE0
FE0FE0
FE0FE0
FE0FE0
FE0FE0
FE0FE0
FE0FE0
FE0FE0
FE0FE0
FE0FE0
FE0FE0
FE0FE0
FE0FE0
FE0FE0
FE0FE0
FE0FE0
FE0FE0
FE0FE0
FE0FE0
FE0FE0
FE3FE0
FFFFE0
FFFFE0
FFEFE0
7FCFE0
3F0FE0
ENDCHAR
STARTCHAR 016C
ENCODING 364
SWIDTH 568 0
DWIDTH 30 0
BBX 24 55 3 -1
BITMAP
0F00E0
0F00E0
0F01E0
0783E0
07FFC0
03FF80
00FE00
000000
000000
000000
000000
FE00FF
FE00FF
FE00FF
FE00FF
FE00FF
FE00FF
FE00FF
FE00FF
FE00FF
FE00FF
FE00FF
FE00FF
FE00FF
FE00FF
FE00FF
FE00FF
FE00FF
FE00FF
FE00FF
FE00FF
FE00FF
FE00FF
FE00FF
FE00FF
FE00FF
FE00FF
FE00FF
FE00FF
FE00FF
FE00FF
FE00FF
FE00FF
FF00FF
FF00FF
FF00FF
7F01FE
7F81FE
7FFFFE
3FFFFC
3FFFFC
1FFFF8
0FFFF0
03FFC0
001000
ENDCHAR
STARTCHAR 016D
ENCODING 365
SWIDTH 473 0
DWIDTH 25 0
BBX 19 42 3 0
BITMAP
3C0380
3C0380
3C0780
1E0F80
1FFF00
0FFE00
03F800
000000
000000
000000
000000
FE0FE0
FE0FE0
FE0FE0
FE0FE0
FE0FE0
FE0FE0
FE0FE0
FE0FE0
FE0FE0
FE0FE0
FE0FE0
FE0FE0
FE0FE0
FE0FE0
FE0FE0
FE0FE0
FE0FE0
FE0FE0
FE0FE0
FE0FE0
FE0FE0
FE0FE0
FE0FE0
FE0FE0
FE0FE0
FE3FE0
FFFFE0
FFFFE0
FFEFE0
7FCFE0
3F0FE0
ENDCHAR
STARTCHAR 016E
ENCODING 366
SWIDTH 568 0
DWIDTH 30 0
BBX 24 60 3 -1
BITMAP
000800
00FF00
01FF80
01FFC0
03C3C0
0381C0
0381C0
03C1C0
03C3C0
01FF80
00FF80
007E00
000000
000000
000000
000000
FE00FF
FE00FF
FE00FF
FE00FF
FE00FF
FE00FF
FE00FF
FE00FF
FE00FF
FE00FF
FE00FF
FE00FF
FE00FF
FE00FF
FE00FF
FE00FF
FE00FF
FE00FF
FE00FF
FE00FF
FE00FF
FE00FF
FE00FF
FE00FF
FE00FF
FE00FF
FE00FF
FE00FF
FE00FF
FE00FF
FE00FF
FE00FF
FF00FF
FF00FF
FF00FF
7F01FE
7F81FE
7FFFFE
3FFFFC
3FFFFC
1FFFF8
0FFFF0
03FFC0
001000
ENDCHAR
STARTCHAR 016F
ENCODING 367
SWIDTH 473 0
DWIDTH 25 0
BBX 19 47 3 0
BITMAP
004000
07F800
0FFC00
0FFE00
1E1E00
1C0E00
1C0E00
1E0E00
1E1E00
0FFC00
07FC00
03F000
000000
000000
000000
000000
FE0FE0
FE0FE0
FE0FE0
FE0FE0
FE0FE0
FE0FE0
FE0FE0
FE0FE0
FE0FE0
FE0FE0
FE0FE0
FE0FE0
FE0FE0
FE0FE0
FE0FE0
FE0FE0
FE0FE0
FE0FE0
FE0FE0
FE0FE0
FE0FE0
FE0FE0
FE0FE0
FE0FE0
FE0FE0
FE3FE0
FFFFE0
FFFFE0
FFEFE0
7FCFE0
3F0FE0
ENDCHAR
STARTCHAR 0170
ENCODING 368
SWIDTH 568 0
DWIDTH 30 0
BBX 24 58 3 -1
BITMAP
00FC7F
00FC7E
00F87E
00F8FC
01F0F8
01F0F8
01E1F0
01E1E0
03C1E0
03C3C0
000000
000000
000000
000000
FE00FF
FE00FF
FE00FF
FE00FF
FE00FF
FE00FF
FE00FF
FE00FF
FE00FF
FE00FF
FE00FF
FE00FF
FE00FF
FE00FF
FE00FF
FE00FF
FE00FF
FE00FF
FE00FF
FE00FF
FE00FF
FE00FF
FE00FF
FE00FF
FE00FF
FE00FF
FE00FF
FE00FF
FE00FF
FE00FF
FE00FF
FE00FF
FF00FF
FF00FF
FF00FF
7F01FE
7F81FE
7FFFFE
3FFFFC
3FFFFC
1FFFF8
0FFFF0
03FFC0
001000
ENDCHAR
STARTCHAR 0171
ENCODING 369
SWIDTH 473 0
DWIDTH 25 0
BBX 21 45 3 0
BITMAP
07E3F8
07E3F0
07C3F0
07C7E0
0F87C0
0F87C0
0F0F80
0F0F00
1E0F00
1E1E00
000000
000000
000000
000000
FE0FE0
FE0FE0
FE0FE0
FE0FE0
FE0FE0
FE0FE0
FE0FE0
FE0FE0
FE0FE0
FE0FE0
FE0FE0
FE0FE0
FE0FE0
FE0FE0
FE0FE0
FE0FE0
FE0FE0
FE0FE0
FE0FE0
FE0FE0
FE0FE0
FE0FE0
FE0FE0
FE0FE0
FE0FE0
FE3FE0
FFFFE0
FFFFE0
FFEFE0
7FCFE0
3F0FE0
ENDCHAR
STARTCHAR 0172
ENCODING 370
SWIDTH 568 0
DWIDTH 30 0
BBX 24 56 3 -13
BITMAP
FE00FF
FE00FF
FE00FF
FE00FF
FE00FF
FE00FF
FE00FF
FE00FF
FE00FF
FE00FF
FE00FF
FE00FF
FE00FF
FE00FF
FE00FF
FE00FF
FE00FF
FE00FF
FE00FF
FE00FF
FE00FF
FE00FF
FE00FF
FE00FF
FE00FF
FE00FF
FE00FF
FE00FF
FE00FF
FE00FF
FE00FF
FE00FF
FF00FF
FF00FF
FF00FF
7F01FE
7F81FE
7FFFFE
3FFFFC
3FFFFC
1FFFF8
0FFFF0
03FFC0
003C00
007800
00F800
01F000
01F000
03E000
03E000
03E000
03F000
03FF80
03FF00
01FF00
007F00
ENDCHAR
STARTCHAR 0173
ENCODING 371
SWIDTH 473 0
DWIDTH 25 0
BBX 20 44 3 -13
BITMAP
FE0FE0
FE0FE0
FE0FE0
FE0FE0
FE0FE0
FE0FE0
FE0FE0
FE0FE0
FE0FE0
FE0FE0
FE0FE0
FE0FE0
FE0FE0
FE0FE0
FE0FE0
FE0FE0
FE0FE0
FE0FE0
FE0FE0
FE0FE0
FE0FE0
FE0FE0
FE0FE0
FE0FE0
FE0FE0
FE3FE0
FFFFE0
FFFFE0
FFEFE0
7FCFE0
3F0FE0
000780
000F00
001F00
003E00
003E00
007C00
007C00
007C00
007E00
007FF0
007FE0
003FE0
000FE0
ENDCHAR
STARTCHAR 0174
ENCODING 372
SWIDTH 720 0
DWIDTH 38 0
BBX 34 56 2 0
BITMAP
0003F00000
0007F80000
0007F80000
000FFC0000
000FFC0000
001F3E0000
001F3E0000
003E1F0000
003E1F0000
007C1F8000
0000000000
0000000000
0000000000
FC01F00FC0
FE01F00FC0
FE03F00FC0
FE03F01FC0
FE03F01FC0
7E03F81FC0
7E03F81F80
7E07F81F80
7E07F81F80
7F07F81F80
7F07FC1F80
7F07FC3F80
3F07FC3F80
3F0FFC3F00
3F0FFC3F00
3F0FFC3F00
3F0FFE3F00
3F8FFE3F00
3F9F7E3F00
1F9F3E7F00
1F9F3E7E00
1F9F3F7E00
1F9F3F7E00
1F9E3F7E00
1FBE1F7E00
1FFE1F7E00
0FFE1FFE00
0FFE1FFC00
0FFE1FFC00
0FFC1FFC00
0FFC0FFC00
0FFC0FFC00
0FFC0FFC00
07FC0FFC00
07F80FF800
07F807F800
07F807F800
07F807F800
07F807F800
07F007F800
03F007F800
03F003F000
03F003F000
ENDCHAR
STARTCHAR 0175
ENCODING 373
SWIDTH 606 0
DWIDTH 32 0
BBX 29 44 1 0
BITMAP
000FC000
001FE000
001FE000
003FF000
003FF000
007CF800
007CF800
00F87C00
00F87C00
01F07E00
00000000
00000000
00000000
FC0FC0F8
FC0FC1F8
FE0FC1F8
FE0FC1F8
7E1FC1F0
7E1FC1F0
7E1FE1F0
7E1FE1F0
7E1FE3F0
7F1FE3F0
3F3FE3F0
3F3FE3E0
3F3FF3E0
3F3FF3E0
3F3DF7E0
3F3DF7E0
1F3CF7E0
1FFCF7C0
1FFCFFC0
1FF8FFC0
1FF8FFC0
1FF8FFC0
0FF87FC0
0FF87FC0
0FF07F80
0FF07F80
0FF07F80
0FF03F80
07F03F80
07E03F80
07E03F00
ENDCHAR
STARTCHAR 0176
ENCODING 374
SWIDTH 492 0
DWIDTH 26 0
BBX 25 56 0 0
BITMAP
003F0000
007F8000
007F8000
00FFC000
00FFC000
01F3E000
01F3E000
03E1F000
03E1F000
07C1F800
00000000
00000000
00000000
FF003F80
7F003F80
7F803F80
7F807F00
3F807F00
3FC07F00
3FC0FE00
1FC0FE00
1FE0FE00
1FE1FC00
0FE1FC00
0FF1F800
0FF1F800
07F3F800
07F3F000
07FBF000
03FFF000
03FFE000
03FFE000
01FFE000
01FFC000
01FFC000
00FFC000
00FF8000
00FF8000
007F8000
007F0000
007F8000
007F8000
007F8000
007F8000
007F8000
007F8000
007F8000
007F8000
007F8000
007F8000
007F8000
007F8000
007F8000
007F8000
007F8000
007F8000
ENDCHAR
STARTCHAR 0177
ENCODING 375
SWIDTH 416 0
DWIDTH 22 0
BBX 22 52 0 -8
BITMAP
00FC00
01FE00
01FE00
03FF00
03FF00
07CF80
07CF80
0F87C0
0F87C0
1F07E0
000000
000000
000000
FF03FC
7F03F8
7F03F8
7F03F8
7F03F8
3F83F0
3F87F0
3F87F0
3F87F0
1F87F0
1FC7E0
1FC7E0
1FC7E0
0FCFE0
0FCFC0
0FEFC0
0FEFC0
07EFC0
07EF80
07FF80
03FF80
03FF80
03FF80
03FF00
01FF00
01FF00
01FF00
01FE00
00FE00
00FE00
00FE00
00FE00
00FC00
01FC00
1FFC00
1FF800
1FF000
1FE000
1F0000
ENDCHAR
STARTCHAR 0178
ENCODING 376
SWIDTH 492 0
DWIDTH 26 0
BBX 25 54 0 0
BITMAP
07E1F800
07E1F800
07E1F800
07E1F800
07E1F800
07E1F800
07E1F800
00000000
00000000
00000000
00000000
FF003F80
7F003F80
7F803F80
7F807F00
3F807F00
3FC07F00
3FC0FE00
1FC0FE00
1FE0FE00
1FE1FC00
0FE1FC00
0FF1F800
0FF1F800
07F3F800
07F3F000
07FBF000
03FFF000
03FFE000
03FFE000
01FFE000
01FFC000
01FFC000
00FFC000
00FF8000
00FF8000
007F8000
007F0000
007F8000
007F8000
007F8000
007F8000
007F8000
007F8000
007F8000
007F8000
007F8000
007F8000
007F8000
007F8000
007F8000
007F8000
007F8000
007F8000
ENDCHAR
STARTCHAR 0179
ENCODING 377
SWIDTH 435 0
DWIDTH 23 0
BBX 19 57 2 0
BITMAP
001FC0
001F80
003F80
003F00
003F00
007E00
007E00
007C00
007800
00F800
00F000
000000
000000
000000
FFFFE0
FFFFE0
FFFFE0
FFFFE0
FFFFE0
000FE0
001FC0
001FC0
003FC0
003F80
003F80
007F80
007F00
007F00
00FE00
00FE00
00FE00
01FC00
01FC00
01FC00
03F800
03F800
07F800
07F000
07F000
0FF000
0FE000
0FE000
1FE000
1FC000
1FC000
3FC000
3F8000
3F8000
7F8000
7F0000
FF0000
FE0000
FFFFE0
FFFFE0
FFFFE0
FFFFE0
FFFFE0
ENDCHAR
STARTCHAR 017A
ENCODING 378
SWIDTH 378 0
DWIDTH 20 0
BBX 16 45 2 0
BITMAP
007F
007E
00FE
00FC
00FC
01F8
01F8
01F0
01E0
03E0
03C0
0000
0000
0000
7FFF
7FFF
7FFF
7FFF
7FFF
00FF
00FE
00FE
01FC
01FC
03FC
03F8
03F8
07F0
07F0
0FE0
0FE0
1FE0
1FC0
1FC0
3F80
3F80
7F80
7F00
7F00
FE00
FFFF
FFFF
FFFF
FFFF
FFFF
ENDCHAR
STARTCHAR 017B
ENCODING 379
SWIDTH 435 0
DWIDTH 23 0
BBX 19 54 2 0
BITMAP
03F800
03F800
03F800
03F800
03F800
03F800
03F800
000000
000000
000000
000000
FFFFE0
FFFFE0
FFFFE0
FFFFE0
FFFFE0
000FE0
001FC0
001FC0
003FC0
003F80
003F80
007F80
007F00
007F00
00FE00
00FE00
00FE00
01FC00
01FC00
01FC00
03F800
03F800
07F800
07F000
07F000
0FF000
0FE000
0FE000
1FE000
1FC000
1FC000
3FC000
3F8000
3F8000
7F8000
7F0000
FF0000
FE0000
FFFFE0
FFFFE0
FFFFE0
FFFFE0
FFFFE0
ENDCHAR
STARTCHAR 017C
ENCODING 380
SWIDTH 378 0
DWIDTH 20 0
BBX 16 42 2 0
BITMAP
0FE0
0FE0
0FE0
0FE0
0FE0
0FE0
0FE0
0000
0000
0000
0000
7FFF
7FFF
7FFF
7FFF
7FFF
00FF
00FE
00FE
01FC
01FC
03FC
03F8
03F8
07F0
07F0
0FE0
0FE0
1FE0
1FC0
1FC0
3F80
3F80
7F80
7F00
7F00
FE00
FFFF
FFFF
FFFF
FFFF
FFFF
ENDCHAR
STARTCHAR 017D
ENCODING 381
SWIDTH 435 0
DWIDTH 23 0
BBX 19 56 2 0
BITMAP
7E0F80
3E1F80
3F1F00
1F3F00
1FBE00
0FFE00
0FFC00
07FC00
07F800
000000
000000
000000
000000
FFFFE0
FFFFE0
FFFFE0
FFFFE0
FFFFE0
000FE0
001FC0
001FC0
003FC0
003F80
003F80
007F80
007F00
007F00
00FE00
00FE00
00FE00
01FC00
01FC00
01FC00
03F800
03F800
07F800
07F000
07F000
0FF000
0FE000
0FE000
1FE000
1FC000
1FC000
3FC000
3F8000
3F8000
7F8000
7F0000
FF0000
FE0000
FFFFE0
FFFFE0
FFFFE0
FFFFE0
FFFFE0
ENDCHAR
STARTCHAR 017E
ENCODING 382
SWIDTH 378 0
DWIDTH 20 0
BBX 16 44 2 0
BITMAP
FC1F
7C3F
7E3E
3E7E
3F7C
1FFC
1FF8
0FF8
0FF0
0000
0000
0000
0000
7FFF
7FFF
7FFF
7FFF
7FFF
00FF
00FE
00FE
01FC
01FC
03FC
03F8
03F8
07F0
07F0
0FE0
0FE0
1FE0
1FC0
1FC0
3F80
3F80
7F80
7F00
7F00
FE00
FFFF
FFFF
FFFF
FFFF
FFFF
ENDCHAR
STARTCHAR 0192
ENCODING 402
SWIDTH 416 0
DWIDTH 22 0
BBX 20 49 1 -7
BITMAP
0007F0
001FF0
003FF0
007FF0
007FF0
00FF00
00FF00
00FE00
00FE00
00FE00
00FE00
0FFFE0
0FFFE0
0FFFE0
0FFFE0
0FFFE0
01FC00
01FC00
01FC00
01FC00
01FC00
01FC00
03FC00
03FC00
03F800
03F800
03F800
03F800
03F800
03F800
03F800
03F800
07F800
07F800
07F000
07F000
07F000
07F000
07F000
07F000
07F000
0FF000
0FF000
1FE000
FFE000
FFE000
FFC000
FF8000
FE0000
ENDCHAR
STARTCHAR 01C4
ENCODING 452
SWIDTH 985 0
DWIDTH 52 0
BBX 47 56 3 0
BITMAP
00000007E0F8
00000003E1F8
00000003F1F0
00000001F3F0
00000001FBE0
00000000FFE0
00000000FFC0
000000007FC0
000000007F80
000000000000
000000000000
000000000000
000000000000
FFFE000FFFFE
FFFFE00FFFFE
FFFFF00FFFFE
FFFFF80FFFFE
FFFFFC0FFFFE
FF07FC0000FE
FF01FE0001FC
FF01FE0001FC
FF00FE0003FC
FF00FF0003F8
FF00FF0003F8
FF00FF0007F8
FF00FF0007F0
FF00FF0007F0
FF00FF000FE0
FF00FF000FE0
FF00FF000FE0
FF00FF001FC0
FF00FF001FC0
FF00FF001FC0
FF00FF003F80
FF00FF003F80
FF00FF007F80
FF00FF007F00
FF00FF007F00
FF00FF00FF00
FF00FF00FE00
FF00FF00FE00
FF00FF01FE00
FF00FF01FC00
FF00FF01FC00
FF00FF03FC00
FF00FF03F800
FF00FE03F800
FF01FE07F800
FF01FE07F000
FF01FE0FF000
FF07FC0FE000
FFFFFC0FFFFE
FFFFF80FFFFE
FFFFF00FFFFE
FFFFC00FFFFE
FFFF000FFFFE
ENDCHAR
STARTCHAR 01C5
ENCODING 453
SWIDTH 928 0
DWIDTH 49 0
BBX 44 44 3 0
BITMAP
0000000FC1F0
FFFE0007C3F0
FFFFE007E3E0
FFFFF003E7E0
FFFFF803F7C0
FFFFFC01FFC0
FF07FC01FF80
FF01FE00FF80
FF01FE00FF00
FF00FE000000
FF00FF000000
FF00FF000000
FF00FF000000
FF00FF07FFF0
FF00FF07FFF0
FF00FF07FFF0
FF00FF07FFF0
FF00FF07FFF0
FF00FF000FF0
FF00FF000FE0
FF00FF000FE0
FF00FF001FC0
FF00FF001FC0
FF00FF003FC0
FF00FF003F80
FF00FF003F80
FF00FF007F00
FF00FF007F00
FF00FF00FE00
FF00FF00FE00
FF00FF01FE00
FF00FF01FC00
FF00FF01FC00
FF00FF03F800
FF00FE03F800
FF01FE07F800
FF01FE07F000
FF01FE07F000
FF07FC0FE000
FFFFFC0FFFF0
FFFFF80FFFF0
FFFFF00FFFF0
FFFFC00FFFF0
FFFF000FFFF0
ENDCHAR
STARTCHAR 01C6
ENCODING 454
SWIDTH 852 0
DWIDTH 45 0
BBX 41 44 2 0
BITMAP
0000007E0F80
0007F03E1F80
0007F03F1F00
0007F01F3F00
0007F01FBE00
0007F00FFE00
0007F00FFC00
0007F007FC00
0007F007F800
0007F0000000
0007F0000000
0007F0000000
0007F0000000
07C7F03FFF80
1FF7F03FFF80
3FFFF03FFF80
3FFFF03FFF80
7FFFF03FFF80
7F8FF0007F80
7F07F0007F00
7F07F0007F00
FF07F000FE00
FF07F000FE00
FF07F001FE00
FF07F001FC00
FF07F001FC00
FF07F003F800
FF07F003F800
FF07F007F000
FF07F007F000
FF07F00FF000
FF07F00FE000
FF07F00FE000
FF07F01FC000
FF07F01FC000
FF07F03FC000
FF07F03F8000
7F07F03F8000
7F8FF07F0000
7FFFF07FFF80
3FFFF07FFF80
3FFFF07FFF80
1FF7F07FFF80
07C7F07FFF80
ENDCHAR
STARTCHAR 01C7
ENCODING 455
SWIDTH 738 0
DWIDTH 39 0
BBX 33 44 3 -1
BITMAP
FF00007F80
FF00007F80
FF00007F80
FF00007F80
FF00007F80
FF00007F80
FF00007F80
FF00007F80
FF00007F80
FF00007F80
FF00007F80
FF00007F80
FF00007F80
FF00007F80
FF00007F80
FF00007F80
FF00007F80
FF00007F80
FF00007F80
FF00007F80
FF00007F80
FF00007F80
FF00007F80
FF00007F80
FF00007F80
FF00007F80
FF00007F80
FF00007F80
FF00007F80
FF00007F80
FF00007F80
FF00007F80
FF00007F80
FF00007F80
FF00007F80
FF00007F80
FF00007F80
FF0000FF80
FFFFDFFF00
FFFFDFFF00
FFFFDFFE00
FFFFDFFC00
FFFFDFF800
00001E0000
ENDCHAR
STARTCHAR 01C8
ENCODING 456
SWIDTH 682 0
DWIDTH 36 0
BBX 30 51 3 -8
BITMAP
FF000000
FF0003FC
FF0003FC
FF0003FC
FF0003FC
FF0003FC
FF0003FC
FF000000
FF000000
FF000000
FF000000
FF000000
FF0003FC
FF0003FC
FF0003FC
FF0003FC
FF0003FC
FF0003FC
FF0003FC
FF0003FC
FF0003FC
FF0003FC
FF0003FC
FF0003FC
FF0003FC
FF0003FC
FF0003FC
FF0003FC
FF0003FC
FF0003FC
FF0003FC
FF0003FC
FF0003FC
FF0003FC
FF0003FC
FF0003FC
FF0003FC
FF0003FC
FFFFC3FC
FFFFC3FC
FFFFC3FC
FFFFC3FC
FFFFC3FC
000003FC
000003FC
000007F8
00003FF8
00003FF8
00003FF0
00003FE0
00003F80
ENDCHAR
STARTCHAR 01C9
ENCODING 457
SWIDTH 511 0
DWIDTH 27 0
BBX 21 51 3 -8
BITMAP
FE0000
FE07F8
FE07F8
FE07F8
FE07F8
FE07F8
FE07F8
FE0000
FE0000
FE0000
FE0000
FE0000
FE07F8
FE07F8
FE07F8
FE07F8
FE07F8
FE07F8
FE07F8
FE07F8
FE07F8
FE07F8
FE07F8
FE07F8
FE07F8
FE07F8
FE07F8
FE07F8
FE07F8
FE07F8
FE07F8
FE07F8
FE07F8
FE07F8
FE07F8
FE07F8
FE07F8
FE07F8
FE07F8
FE07F8
FE07F8
FE07F8
FE07F8
0007F8
0007F8
000FF0
007FF0
007FF0
007FE0
007FC0
007F00
ENDCHAR
STARTCHAR 01CA
ENCODING 458
SWIDTH 871 0
DWIDTH 46 0
BBX 40 44 3 -1
BITMAP
FC00FE00FF
FC00FE00FF
FE00FE00FF
FE00FE00FF
FF00FE00FF
FF00FE00FF
FF00FE00FF
FF80FE00FF
FF80FE00FF
FFC0FE00FF
FFC0FE00FF
FFE0FE00FF
FFE0FE00FF
FFE0FE00FF
FFF0FE00FF
FFF0FE00FF
FFF8FE00FF
FFF8FE00FF
FFFCFE00FF
FFFCFE00FF
FEFCFE00FF
FEFEFE00FF
FE7EFE00FF
FE7FFE00FF
FE7FFE00FF
FE3FFE00FF
FE3FFE00FF
FE1FFE00FF
FE1FFE00FF
FE0FFE00FF
FE0FFE00FF
FE0FFE00FF
FE07FE00FF
FE07FE00FF
FE03FE00FF
FE03FE00FF
FE01FE00FF
FE01FE01FF
FE00FE3FFE
FE00FE3FFE
FE00FE3FFC
FE007E3FF8
FE007E3FF0
0000003C00
ENDCHAR
STARTCHAR 01CB
ENCODING 459
SWIDTH 795 0
DWIDTH 42 0
BBX 37 51 3 -8
BITMAP
FC00FE0000
FC00FE07F8
FE00FE07F8
FE00FE07F8
FF00FE07F8
FF00FE07F8
FF00FE07F8
FF80FE0000
FF80FE0000
FFC0FE0000
FFC0FE0000
FFE0FE0000
FFE0FE07F8
FFE0FE07F8
FFF0FE07F8
FFF0FE07F8
FFF8FE07F8
FFF8FE07F8
FFFCFE07F8
FFFCFE07F8
FEFCFE07F8
FEFEFE07F8
FE7EFE07F8
FE7FFE07F8
FE7FFE07F8
FE3FFE07F8
FE3FFE07F8
FE1FFE07F8
FE1FFE07F8
FE0FFE07F8
FE0FFE07F8
FE0FFE07F8
FE07FE07F8
FE07FE07F8
FE03FE07F8
FE03FE07F8
FE01FE07F8
FE01FE07F8
FE00FE07F8
FE00FE07F8
FE00FE07F8
FE007E07F8
FE007E07F8
00000007F8
00000007F8
0000000FF0
0000007FF0
0000007FF0
0000007FE0
0000007FC0
0000007F00
ENDCHAR
STARTCHAR 01CC
ENCODING 460
SWIDTH 738 0
DWIDTH 39 0
BBX 33 50 3 -8
BITMAP
0000007F80
0000007F80
0000007F80
0000007F80
0000007F80
0000007F80
0000000000
0000000000
0000000000
0000000000
0000000000
FE0F807F80
FE7FC07F80
FEFFE07F80
FFFFE07F80
FFFFE07F80
FF8FE07F80
FE0FF07F80
FE0FF07F80
FE0FF07F80
FE0FF07F80
FE0FF07F80
FE0FF07F80
FE0FF07F80
FE0FF07F80
FE0FF07F80
FE0FF07F80
FE0FF07F80
FE0FF07F80
FE0FF07F80
FE0FF07F80
FE0FF07F80
FE0FF07F80
FE0FF07F80
FE0FF07F80
FE0FF07F80
FE0FF07F80
FE0FF07F80
FE0FF07F80
FE0FF07F80
FE0FF07F80
FE0FF07F80
0000007F80
0000007F80
000000FF00
000007FF00
000007FF00
000007FE00
000007FC00
000007F000
ENDCHAR
STARTCHAR 01F1
ENCODING 497
SWIDTH 985 0
DWIDTH 52 0
BBX 47 43 3 0
BITMAP
FFFE000FFFFE
FFFFE00FFFFE
FFFFF00FFFFE
FFFFF80FFFFE
FFFFFC0FFFFE
FF07FC0000FE
FF01FE0001FC
FF01FE0001FC
FF00FE0003FC
FF00FF0003F8
FF00FF0003F8
FF00FF0007F8
FF00FF0007F0
FF00FF0007F0
FF00FF000FE0
FF00FF000FE0
FF00FF000FE0
FF00FF001FC0
FF00FF001FC0
FF00FF001FC0
FF00FF003F80
FF00FF003F80
FF00FF007F80
FF00FF007F00
FF00FF007F00
FF00FF00FF00
FF00FF00FE00
FF00FF00FE00
FF00FF01FE00
FF00FF01FC00
FF00FF01FC00
FF00FF03FC00
FF00FF03F800
FF00FE03F800
FF01FE07F800
FF01FE07F000
FF01FE0FF000
FF07FC0FE000
FFFFFC0FFFFE
FFFFF80FFFFE
FFFFF00FFFFE
FFFFC00FFFFE
FFFF000FFFFE
ENDCHAR
STARTCHAR 01F2
ENCODING 498
SWIDTH 928 0
DWIDTH 49 0
BBX 44 43 3 0
BITMAP
FFFE00000000
FFFFE0000000
FFFFF0000000
FFFFF8000000
FFFFFC000000
FF07FC000000
FF01FE000000
FF01FE000000
FF00FE000000
FF00FF000000
FF00FF000000
FF00FF000000
FF00FF07FFF0
FF00FF07FFF0
FF00FF07FFF0
FF00FF07FFF0
FF00FF07FFF0
FF00FF000FF0
FF00FF000FE0
FF00FF000FE0
FF00FF001FC0
FF00FF001FC0
FF00FF003FC0
FF00FF003F80
FF00FF003F80
FF00FF007F00
FF00FF007F00
FF00FF00FE00
FF00FF00FE00
FF00FF01FE00
FF00FF01FC00
FF00FF01FC00
FF00FF03F800
FF00FE03F800
FF01FE07F800
FF01FE07F000
FF01FE07F000
FF07FC0FE000
FFFFFC0FFFF0
FFFFF80FFFF0
FFFFF00FFFF0
FFFFC00FFFF0
FFFF000FFFF0
ENDCHAR
STARTCHAR 01F3
ENCODING 499
SWIDTH 852 0
DWIDTH 45 0
BBX 41 43 2 0
BITMAP
0007F0000000
0007F0000000
0007F0000000
0007F0000000
0007F0000000
0007F0000000
0007F0000000
0007F0000000
0007F0000000
0007F0000000
0007F0000000
0007F0000000
07C7F03FFF80
1FF7F03FFF80
3FFFF03FFF80
3FFFF03FFF80
7FFFF03FFF80
7F8FF0007F80
7F07F0007F00
7F07F0007F00
FF07F000FE00
FF07F000FE00
FF07F001FE00
FF07F001FC00
FF07F001FC00
FF07F003F800
FF07F003F800
FF07F007F000
FF07F007F000
FF07F00FF000
FF07F00FE000
FF07F00FE000
FF07F01FC000
FF07F01FC000
FF07F03FC000
FF07F03F8000
7F07F03F8000
7F8FF07F0000
7FFFF07FFF80
3FFFF07FFF80
3FFFF07FFF80
1FF7F07FFF80
07C7F07FFF80
ENDCHAR
STARTCHAR 01F4
ENCODING 500
SWIDTH 568 0
DWIDTH 30 0
BBX 24 58 3 -1
BITMAP
0007F0
0007E0
000FE0
000FC0
000FC0
001F80
001F80
001F00
001E00
003E00
003C00
000000
000000
001000
03FFC0
0FFFF0
1FFFF8
3FFFFC
7FFFFC
7FFFFE
7F81FE
FF00FE
FF00FE
FF00FE
FF00FF
FE00FF
FE00FF
FE00FF
FE0000
FE0000
FE0000
FE0000
FE0000
FE0000
FE0000
FE0FFF
FE0FFF
FE0FFF
FE0FFF
FE0FFF
FE007F
FE007F
FE007F
FE007F
FE007F
FE007F
FF007F
FF00FF
FF00FF
FF00FF
7F81FF
7FFFFF
7FFFFF
3FFFFF
1FFFBF
0FFF1F
03FE1F
002000
ENDCHAR
STARTCHAR 01F5
ENCODING 501
SWIDTH 473 0
DWIDTH 25 0
BBX 24 55 1 -9
BITMAP
0007F0
0007E0
000FE0
000FC0
000FC0
001F80
001F80
001F00
001E00
003E00
003C00
000000
000000
000000
000002
01FC0E
07FF1E
0FFFBF
1FFFFF
1FFFFC
3F87F0
3F87E0
3F03F0
7F03F0
7F03F0
7F03F0
7F03F0
7F03F0
7F03F0
3F03F0
3F87F0
3F87F0
1FFFE0
1FFFE0
0FFFC0
0FFF80
1EFE00
3E0000
7E0000
7F8000
7FFF80
7FFFE0
3FFFF8
0FFFF8
1FFFFC
3F01FC
7E00FC
7E007C
FE00FC
FF01FC
FFFFFC
FFFFF8
7FFFF8
3FFFE0
07FF80
ENDCHAR
STARTCHAR 0200
ENCODING 512
SWIDTH 530 0
DWIDTH 28 0
BBX 26 56 1 0
BITMAP
7E3F0000
3F1F0000
3F1F8000
1F0F8000
1F8F8000
0F878000
0787C000
07C3C000
03C3C000
03C3C000
00000000
00000000
00000000
007F8000
007F8000
007F8000
007FC000
00FFC000
00FFC000
00FFC000
00FFC000
01FFE000
01FFE000
01FFE000
01FFE000
01F7F000
03F7F000
03F7F000
03F3F000
03F3F000
03F3F800
07F3F800
07E3F800
07E3F800
07E1FC00
0FE1FC00
0FE1FC00
0FE1FC00
0FC1FC00
0FC1FE00
1FC0FE00
1FFFFE00
1FFFFE00
1FFFFE00
3FFFFF00
3FFFFF00
3F807F00
3F807F00
3F807F80
7F807F80
7F007F80
7F007F80
7F003F80
FF003FC0
FF003FC0
FE003FC0
ENDCHAR
STARTCHAR 0201
ENCODING 513
SWIDTH 454 0
DWIDTH 24 0
BBX 22 44 0 0
BITMAP
FC7E00
7E3E00
7E3F00
3E1F00
3F1F00
1F0F00
0F0F80
0F8780
078780
078780
000000
000000
000000
007F00
03FFC0
07FFE0
0FFFF0
0FFFF8
1FE7F8
1FC3F8
1FC3F8
1FC3F8
3F83F8
0003F8
0003F8
000FF8
003FF8
00FFF8
03FFF8
07FBF8
0FF3F8
1FE3F8
1FC3F8
3F83F8
3F83F8
3F83F8
3F83F8
3F83F8
3FC7F8
1FFFFC
1FFDFC
0FFDFC
07F9FC
03E1FC
ENDCHAR
STARTCHAR 0202
ENCODING 514
SWIDTH 530 0
DWIDTH 28 0
BBX 26 54 1 0
BITMAP
003F0000
00FFC000
01FFE000
03E1E000
03C0E000
03C0F000
0380F000
00000000
00000000
00000000
00000000
007F8000
007F8000
007F8000
007FC000
00FFC000
00FFC000
00FFC000
00FFC000
01FFE000
01FFE000
01FFE000
01FFE000
01F7F000
03F7F000
03F7F000
03F3F000
03F3F000
03F3F800
07F3F800
07E3F800
07E3F800
07E1FC00
0FE1FC00
0FE1FC00
0FE1FC00
0FC1FC00
0FC1FE00
1FC0FE00
1FFFFE00
1FFFFE00
1FFFFE00
3FFFFF00
3FFFFF00
3F807F00
3F807F00
3F807F80
7F807F80
7F007F80
7F007F80
7F003F80
FF003FC0
FF003FC0
FE003FC0
ENDCHAR
STARTCHAR 0203
ENCODING 515
SWIDTH 454 0
DWIDTH 24 0
BBX 20 42 2 0
BITMAP
01F800
07FE00
0FFF00
1F0F00
1E0700
1E0780
1C0780
000000
000000
000000
000000
01FC00
0FFF00
1FFF80
3FFFC0
3FFFE0
7F9FE0
7F0FE0
7F0FE0
7F0FE0
FE0FE0
000FE0
000FE0
003FE0
00FFE0
03FFE0
0FFFE0
1FEFE0
3FCFE0
7F8FE0
7F0FE0
FE0FE0
FE0FE0
FE0FE0
FE0FE0
FE0FE0
FF1FE0
7FFFF0
7FF7F0
3FF7F0
1FE7F0
0F87F0
ENDCHAR
STARTCHAR 0204
ENCODING 516
SWIDTH 435 0
DWIDTH 23 0
BBX 20 56 1 0
BITMAP
FC7E00
7E3E00
7E3F00
3E1F00
3F1F00
1F0F00
0F0F80
0F8780
078780
078780
000000
000000
000000
3FFFF0
3FFFF0
3FFFF0
3FFFF0
3FFFF0
3FC000
3FC000
3FC000
3FC000
3FC000
3FC000
3FC000
3FC000
3FC000
3FC000
3FC000
3FC000
3FC000
3FFFC0
3FFFC0
3FFFC0
3FFFC0
3FFFC0
3FC000
3FC000
3FC000
3FC000
3FC000
3FC000
3FC000
3FC000
3FC000
3FC000
3FC000
3FC000
3FC000
3FC000
3FC000
3FFFF0
3FFFF0
3FFFF0
3FFFF0
3FFFF0
ENDCHAR
STARTCHAR 0205
ENCODING 517
SWIDTH 454 0
DWIDTH 24 0
BBX 22 44 0 0
BITMAP
FC7E00
7E3E00
7E3F00
3E1F00
3F1F00
1F0F00
0F0F80
0F8780
078780
078780
000000
000000
000000
00FF00
03FFC0
07FFE0
0FFFF0
1FFFF0
1FE7F8
1FC3F8
3FC3F8
3F81F8
3F81F8
3F81F8
3F81F8
3FFFFC
3FFFFC
3FFFFC
3FFFFC
3F8000
3F8000
3F8000
3F8000
3F81F8
3F81F8
3F81F8
1FC3F8
1FC3F8
1FC3F8
1FFFF8
0FFFF0
07FFE0
03FFC0
00FF00
ENDCHAR
STARTCHAR 0206
ENCODING 518
SWIDTH 435 0
DWIDTH 23 0
BBX 18 54 3 0
BITMAP
01F800
07FE00
0FFF00
1F0F00
1E0700
1E0780
1C0780
000000
000000
000000
000000
FFFFC0
FFFFC0
FFFFC0
FFFFC0
FFFFC0
FF0000
FF0000
FF0000
FF0000
FF0000
FF0000
FF0000
FF0000
FF0000
FF0000
FF0000
FF0000
FF0000
FFFF00
FFFF00
FFFF00
FFFF00
FFFF00
FF0000
FF0000
FF0000
FF0000
FF0000
FF0000
FF0000
FF0000
FF0000
FF0000
FF0000
FF0000
FF0000
FF0000
FF0000
FFFFC0
FFFFC0
FFFFC0
FFFFC0
FFFFC0
ENDCHAR
STARTCHAR 0207
ENCODING 519
SWIDTH 454 0
DWIDTH 24 0
BBX 20 42 2 0
BITMAP
01F800
07FE00
0FFF00
1F0F00
1E0700
1E0780
1C0780
000000
000000
000000
000000
03FC00
0FFF00
1FFF80
3FFFC0
7FFFC0
7F9FE0
7F0FE0
7F0FE0
FE07E0
FE07E0
FE07E0
FE07E0
FFFFF0
FFFFF0
FFFFF0
FFFFF0
FE0000
FE0000
FE0000
FE0000
FE07E0
FE07E0
FE07E0
7F0FE0
7F0FE0
7F0FE0
7FFFE0
3FFFC0
1FFF80
0FFF00
03FC00
ENDCHAR
STARTCHAR 0208
ENCODING 520
SWIDTH 284 0
DWIDTH 15 0
BBX 17 56 -4 0
BITMAP
FC7E00
7E3E00
7E3F00
3E1F00
3F1F00
1F0F00
0F0F80
0F8780
078780
078780
000000
000000
000000
01FE00
01FE00
01FE00
01FE00
01FE00
01FE00
01FE00
01FE00
01FE00
01FE00
01FE00
01FE00
01FE00
01FE00
01FE00
01FE00
01FE00
01FE00
01FE00
01FE00
01FE00
01FE00
01FE00
01FE00
01FE00
01FE00
01FE00
01FE00
01FE00
01FE00
01FE00
01FE00
01FE00
01FE00
01FE00
01FE00
01FE00
01FE00
01FE00
01FE00
01FE00
01FE00
01FE00
ENDCHAR
STARTCHAR 0209
ENCODING 521
SWIDTH 246 0
DWIDTH 13 0
BBX 17 44 -5 0
BITMAP
FC7E00
7E3E00
7E3F00
3E1F00
3F1F00
1F0F00
0F0F80
0F8780
078780
078780
000000
000000
000000
00FE00
00FE00
00FE00
00FE00
00FE00
00FE00
00FE00
00FE00
00FE00
00FE00
00FE00
00FE00
00FE00
00FE00
00FE00
00FE00
00FE00
00FE00
00FE00
00FE00
00FE00
00FE00
00FE00
00FE00
00FE00
00FE00
00FE00
00FE00
00FE00
00FE00
00FE00
ENDCHAR
STARTCHAR 020A
ENCODING 522
SWIDTH 284 0
DWIDTH 15 0
BBX 14 54 1 0
BITMAP
0FC0
3FF0
7FF8
F878
F038
F03C
E03C
0000
0000
0000
0000
3FC0
3FC0
3FC0
3FC0
3FC0
3FC0
3FC0
3FC0
3FC0
3FC0
3FC0
3FC0
3FC0
3FC0
3FC0
3FC0
3FC0
3FC0
3FC0
3FC0
3FC0
3FC0
3FC0
3FC0
3FC0
3FC0
3FC0
3FC0
3FC0
3FC0
3FC0
3FC0
3FC0
3FC0
3FC0
3FC0
3FC0
3FC0
3FC0
3FC0
3FC0
3FC0
3FC0
ENDCHAR
STARTCHAR 020B
ENCODING 523
SWIDTH 246 0
DWIDTH 13 0
BBX 14 42 0 0
BITMAP
0FC0
3FF0
7FF8
F878
F038
F03C
E03C
0000
0000
0000
0000
1FC0
1FC0
1FC0
1FC0
1FC0
1FC0
1FC0
1FC0
1FC0
1FC0
1FC0
1FC0
1FC0
1FC0
1FC0
1FC0
1FC0
1FC0
1FC0
1FC0
1FC0
1FC0
1FC0
1FC0
1FC0
1FC0
1FC0
1FC0
1FC0
1FC0
1FC0
ENDCHAR
STARTCHAR 020C
ENCODING 524
SWIDTH 568 0
DWIDTH 30 0
BBX 24 57 3 -1
BITMAP
FC7E00
7E3E00
7E3F00
3E1F00
3F1F00
1F0F00
0F0F80
0F8780
078780
078780
000000
000000
001000
03FFC0
0FFFF0
1FFFF8
3FFFFC
7FFFFC
7FFFFE
FF81FE
FF00FF
FF00FF
FF00FF
FE00FF
FE00FF
FE00FF
FE00FF
FE00FF
FE00FF
FE00FF
FE00FF
FE00FF
FE00FF
FE00FF
FE00FF
FE00FF
FE00FF
FE00FF
FE00FF
FE00FF
FE00FF
FE00FF
FE00FF
FE00FF
FE00FF
FE00FF
FF00FF
FF00FF
FF00FF
7F81FE
7FFFFE
7FFFFC
3FFFFC
1FFFF8
0FFFF0
03FFC0
001000
ENDCHAR
STARTCHAR 020D
ENCODING 525
SWIDTH 454 0
DWIDTH 24 0
BBX 22 44 0 0
BITMAP
FC7E00
7E3E00
7E3F00
3E1F00
3F1F00
1F0F00
0F0F80
0F8780
078780
078780
000000
000000
000000
00FF00
03FFC0
07FFE0
0FFFF0
1FFFF8
1FE7F8
1FC3F8
3FC3FC
3F81FC
3F81FC
3F81FC
3F81FC
3F81FC
3F81FC
3F81FC
3F81FC
3F81FC
3F81FC
3F81FC
3F81FC
3F81FC
3F81FC
3F81FC
3FC3FC
1FC3F8
1FE7F8
1FFFF8
0FFFF0
07FFE0
03FFC0
00FF00
ENDCHAR
STARTCHAR 020E
ENCODING 526
SWIDTH 568 0
DWIDTH 30 0
BBX 24 55 3 -1
BITMAP
007E00
01FF80
03FFC0
07C3C0
0781C0
0781E0
0701E0
000000
000000
000000
001000
03FFC0
0FFFF0
1FFFF8
3FFFFC
7FFFFC
7FFFFE
FF81FE
FF00FF
FF00FF
FF00FF
FE00FF
FE00FF
FE00FF
FE00FF
FE00FF
FE00FF
FE00FF
FE00FF
FE00FF
FE00FF
FE00FF
FE00FF
FE00FF
FE00FF
FE00FF
FE00FF
FE00FF
FE00FF
FE00FF
FE00FF
FE00FF
FE00FF
FE00FF
FF00FF
FF00FF
FF00FF
7F81FE
7FFFFE
7FFFFC
3FFFFC
1FFFF8
0FFFF0
03FFC0
001000
ENDCHAR
STARTCHAR 020F
ENCODING 527
SWIDTH 454 0
DWIDTH 24 0
BBX 20 42 2 0
BITMAP
01F800
07FE00
0FFF00
1F0F00
1E0700
1E0780
1C0780
000000
000000
000000
000000
03FC00
0FFF00
1FFF80
3FFFC0
7FFFE0
7F9FE0
7F0FE0
FF0FF0
FE07F0
FE07F0
FE07F0
FE07F0
FE07F0
FE07F0
FE07F0
FE07F0
FE07F0
FE07F0
FE07F0
FE07F0
FE07F0
FE07F0
FE07F0
FF0FF0
7F0FE0
7F9FE0
7FFFE0
3FFFC0
1FFF80
0FFF00
03FC00
ENDCHAR
STARTCHAR 0210
ENCODING 528
SWIDTH 549 0
DWIDTH 29 0
BBX 25 56 3 0
BITMAP
7E3F0000
3F1F0000
3F1F8000
1F0F8000
1F8F8000
0F878000
0787C000
07C3C000
03C3C000
03C3C000
00000000
00000000
00000000
FFFF0000
FFFFE000
FFFFF000
FFFFF800
FFFFFC00
FF07FE00
FF01FE00
FF00FE00
FF00FE00
FF00FF00
FF00FF00
FF00FF00
FF00FF00
FF00FF00
FF00FE00
FF00FE00
FF01FE00
FF07FE00
FFFFFC00
FFFFF800
FFFFF000
FFFFE000
FFFFE000
FF0FE000
FF0FE000
FF0FF000
FF0FF000
FF07F000
FF07F800
FF07F800
FF07F800
FF03F800
FF03FC00
FF03FC00
FF03FC00
FF01FE00
FF01FE00
FF01FE00
FF01FE00
FF00FF00
FF00FF00
FF00FF00
FF00FF80
ENDCHAR
STARTCHAR 0211
ENCODING 529
SWIDTH 341 0
DWIDTH 18 0
BBX 19 44 -1 0
BITMAP
FC7E00
7E3E00
7E3F00
3E1F00
3F1F00
1F0F00
0F0F80
0F8780
078780
078780
000000
000000
000000
0FE1E0
0FE3E0
0FE7E0
0FEFE0
0FFFE0
0FFFE0
0FFFE0
0FFC20
0FF800
0FF000
0FE000
0FE000
0FE000
0FE000
0FE000
0FE000
0FE000
0FE000
0FE000
0FE000
0FE000
0FE000
0FE000
0FE000
0FE000
0FE000
0FE000
0FE000
0FE000
0FE000
0FE000
ENDCHAR
STARTCHAR 0212
ENCODING 530
SWIDTH 549 0
DWIDTH 29 0
BBX 25 54 3 0
BITMAP
003F0000
00FFC000
01FFE000
03E1E000
03C0E000
03C0F000
0380F000
00000000
00000000
00000000
00000000
FFFF0000
FFFFE000
FFFFF000
FFFFF800
FFFFFC00
FF07FE00
FF01FE00
FF00FE00
FF00FE00
FF00FF00
FF00FF00
FF00FF00
FF00FF00
FF00FF00
FF00FE00
FF00FE00
FF01FE00
FF07FE00
FFFFFC00
FFFFF800
FFFFF000
FFFFE000
FFFFE000
FF0FE000
FF0FE000
FF0FF000
FF0FF000
FF07F000
FF07F800
FF07F800
FF07F800
FF03F800
FF03FC00
FF03FC00
FF03FC00
FF01FE00
FF01FE00
FF01FE00
FF01FE00
FF00FF00
FF00FF00
FF00FF00
FF00FF80
ENDCHAR
STARTCHAR 0213
ENCODING 531
SWIDTH 341 0
DWIDTH 18 0
BBX 15 42 3 0
BITMAP
07E0
1FF8
3FFC
7C3C
781C
781E
701E
0000
0000
0000
0000
FE1E
FE3E
FE7E
FEFE
FFFE
FFFE
FFFE
FFC2
FF80
FF00
FE00
FE00
FE00
FE00
FE00
FE00
FE00
FE00
FE00
FE00
FE00
FE00
FE00
FE00
FE00
FE00
FE00
FE00
FE00
FE00
FE00
ENDCHAR
STARTCHAR 0214
ENCODING 532
SWIDTH 568 0
DWIDTH 30 0
BBX 24 57 3 -1
BITMAP
FC7E00
7E3E00
7E3F00
3E1F00
3F1F00
1F0F00
0F0F80
0F8780
078780
078780
000000
000000
000000
FE00FF
FE00FF
FE00FF
FE00FF
FE00FF
FE00FF
FE00FF
FE00FF
FE00FF
FE00FF
FE00FF
FE00FF
FE00FF
FE00FF
FE00FF
FE00FF
FE00FF
FE00FF
FE00FF
FE00FF
FE00FF
FE00FF
FE00FF
FE00FF
FE00FF
FE00FF
FE00FF
FE00FF
FE00FF
FE00FF
FE00FF
FE00FF
FF00FF
FF00FF
FF00FF
7F01FE
7F81FE
7FFFFE
3FFFFC
3FFFFC
1FFFF8
0FFFF0
03FFC0
001000
ENDCHAR
STARTCHAR 0215
ENCODING 533
SWIDTH 473 0
DWIDTH 25 0
BBX 21 44 1 0
BITMAP
FC7E00
7E3E00
7E3F00
3E1F00
3F1F00
1F0F00
0F0F80
0F8780
078780
078780
000000
000000
000000
3F83F8
3F83F8
3F83F8
3F83F8
3F83F8
3F83F8
3F83F8
3F83F8
3F83F8
3F83F8
3F83F8
3F83F8
3F83F8
3F83F8
3F83F8
3F83F8
3F83F8
3F83F8
3F83F8
3F83F8
3F83F8
3F83F8
3F83F8
3F83F8
3F83F8
3F8FF8
3FFFF8
3FFFF8
3FFBF8
1FF3F8
0FC3F8
ENDCHAR
STARTCHAR 0216
ENCODING 534
SWIDTH 568 0
DWIDTH 30 0
BBX 24 55 3 -1
BITMAP
007E00
01FF80
03FFC0
07C3C0
0781C0
0781E0
0701E0
000000
000000
000000
000000
FE00FF
FE00FF
FE00FF
FE00FF
FE00FF
FE00FF
FE00FF
FE00FF
FE00FF
FE00FF
FE00FF
FE00FF
FE00FF
FE00FF
FE00FF
FE00FF
FE00FF
FE00FF
FE00FF
FE00FF
FE00FF
FE00FF
FE00FF
FE00FF
FE00FF
FE00FF
FE00FF
FE00FF
FE00FF
FE00FF
FE00FF
FE00FF
FF00FF
FF00FF
FF00FF
7F01FE
7F81FE
7FFFFE
3FFFFC
3FFFFC
1FFFF8
0FFFF0
03FFC0
001000
ENDCHAR
STARTCHAR 0217
ENCODING 535
SWIDTH 473 0
DWIDTH 25 0
BBX 19 42 3 0
BITMAP
01F800
07FE00
0FFF00
1F0F00
1E0700
1E0780
1C0780
000000
000000
000000
000000
FE0FE0
FE0FE0
FE0FE0
FE0FE0
FE0FE0
FE0FE0
FE0FE0
FE0FE0
FE0FE0
FE0FE0
FE0FE0
FE0FE0
FE0FE0
FE0FE0
FE0FE0
FE0FE0
FE0FE0
FE0FE0
FE0FE0
FE0FE0
FE0FE0
FE0FE0
FE0FE0
FE0FE0
FE0FE0
FE3FE0
FFFFE0
FFFFE0
FFEFE0
7FCFE0
3F0FE0
ENDCHAR
STARTCHAR 0218
ENCODING 536
SWIDTH 492 0
DWIDTH 26 0
BBX 23 62 2 -18
BITMAP
001000
03FF00
0FFFC0
1FFFE0
3FFFF0
7FFFF0
7FEFF8
7F03F8
FF03F8
FF01FC
FE01FC
FF01FC
FF01F8
FF0100
7F8000
7FC000
7FE000
3FF000
3FF800
1FFC00
0FFE00
07FF00
03FF80
01FFC0
007FE0
003FF0
001FF8
000FF8
0007FC
0003FC
0603FC
FE01FE
FE01FE
FE01FE
FE01FE
7F01FE
7F01FE
7F83FC
3FFFFC
3FFFF8
1FFFF8
0FFFF0
07FFE0
01FF80
000800
000000
000000
000000
00FE00
00FE00
00FE00
00FE00
00FE00
00FE00
00FE00
000E00
001E00
001E00
003C00
00FC00
007800
007000
ENDCHAR
STARTCHAR 0219
ENCODING 537
SWIDTH 397 0
DWIDTH 21 0
BBX 19 49 1 -18
BITMAP
03F800
0FFE00
1FFF00
3FFF00
3FFF80
7F1FC0
7F0FC0
7E07C0
7F0780
7F0600
7F8000
3FC000
3FF000
1FF800
0FFC00
07FE00
03FF00
01FF80
007FC0
003FC0
001FE0
0C0FE0
7C0FE0
FC0FE0
7E0FE0
7F1FE0
7FFFC0
3FFFC0
1FFF80
0FFE00
03F800
000000
000000
000000
000000
03F800
03F800
03F800
03F800
03F800
03F800
03F800
003800
007800
007800
00F000
03F000
01E000
01C000
ENDCHAR
STARTCHAR 021A
ENCODING 538
SWIDTH 416 0
DWIDTH 22 0
BBX 22 60 0 -17
BITMAP
FFFFFC
FFFFFC
FFFFFC
FFFFFC
FFFFFC
FFFFFC
01FE00
01FE00
01FE00
01FE00
01FE00
01FE00
01FE00
01FE00
01FE00
01FE00
01FE00
01FE00
01FE00
01FE00
01FE00
01FE00
01FE00
01FE00
01FE00
01FE00
01FE00
01FE00
01FE00
01FE00
01FE00
01FE00
01FE00
01FE00
01FE00
01FE00
01FE00
01FE00
01FE00
01FE00
01FE00
01FE00
01FE00
000000
000000
000000
00FE00
00FE00
00FE00
00FE00
00FE00
00FE00
00FE00
000E00
001E00
001E00
003C00
00FC00
007800
007000
ENDCHAR
STARTCHAR 021B
ENCODING 539
SWIDTH 341 0
DWIDTH 18 0
BBX 15 58 1 -18
BITMAP
1FC0
1FC0
1FC0
1FC0
1FC0
1FC0
1FC0
1FC0
1FC0
FFFE
FFFE
FFFE
FFFE
FFFE
1FC0
1FC0
1FC0
1FC0
1FC0
1FC0
1FC0
1FC0
1FC0
1FC0
1FC0
1FC0
1FC0
1FC0
1FC0
1FC0
1FC0
1FC0
1FC0
1FE0
1FFE
0FFE
0FFE
07FE
07FE
01FE
0000
0000
0000
0000
0FE0
0FE0
0FE0
0FE0
0FE0
0FE0
0FE0
00E0
01E0
01E0
03C0
0FC0
0780
0700
ENDCHAR
STARTCHAR 0237
ENCODING 567
SWIDTH 246 0
DWIDTH 13 0
BBX 12 40 -1 -9
BITMAP
0FF0
0FF0
0FF0
0FF0
0FF0
0FF0
0FF0
0FF0
0FF0
0FF0
0FF0
0FF0
0FF0
0FF0
0FF0
0FF0
0FF0
0FF0
0FF0
0FF0
0FF0
0FF0
0FF0
0FF0
0FF0
0FF0
0FF0
0FF0
0FF0
0FF0
0FF0
0FF0
0FF0
0FF0
1FE0
FFE0
FFE0
FFC0
FF80
FE00
ENDCHAR
STARTCHAR 02BC
ENCODING 700
SWIDTH 378 0
DWIDTH 20 0
BBX 6 14 6 29
BITMAP
FC
F8
F8
F8
F8
F8
F8
F0
F0
F0
F0
F0
F0
E0
ENDCHAR
STARTCHAR 02C6
ENCODING 710
SWIDTH 378 0
DWIDTH 20 0
BBX 16 10 2 33
BITMAP
07E0
0FF0
0FF0
1FF8
1FF8
3E7C
3E7C
7C3E
7C3E
F83F
ENDCHAR
STARTCHAR 02C7
ENCODING 711
SWIDTH 378 0
DWIDTH 20 0
BBX 16 9 2 34
BITMAP
F83F
FC3E
7C7E
7E7C
3EFC
3FF8
1FF8
1FF0
0FF0
ENDCHAR
STARTCHAR 02D8
ENCODING 728
SWIDTH 341 0
DWIDTH 18 0
BBX 14 7 2 36
BITMAP
E03C
F03C
F03C
F878
7FF8
3FF0
0FC0
ENDCHAR
STARTCHAR 02D9
ENCODING 729
SWIDTH 246 0
DWIDTH 13 0
BBX 7 7 -4 3
BITMAP
FE
FE
FE
FE
FE
FE
FE
ENDCHAR
STARTCHAR 02DA
ENCODING 730
SWIDTH 189 0
DWIDTH 10 0
BBX 12 12 -1 32
BITMAP
0200
3FC0
7FE0
7FF0
F0F0
E070
E070
F070
F0F0
7FE0
3FE0
1F80
ENDCHAR
STARTCHAR 02DB
ENCODING 731
SWIDTH 246 0
DWIDTH 13 0
BBX 11 13 0 -13
BITMAP
0F00
1E00
3E00
7C00
7C00
F800
F800
F800
FC00
FFE0
FFC0
7FC0
1FC0
ENDCHAR
STARTCHAR 02DC
ENCODING 732
SWIDTH 435 0
DWIDTH 23 0
BBX 17 8 3 36
BITMAP
080000
3F0780
7FC780
7FFF80
FFFF00
FFFF00
F0FF00
F03E00
ENDCHAR
STARTCHAR 02DD
ENCODING 733
SWIDTH 360 0
DWIDTH 19 0
BBX 18 10 4 33
BITMAP
3F1FC0
3F1F80
3E1F80
3E3F00
7C3E00
7C3E00
787C00
787800
F07800
F0F000
ENDCHAR
STARTCHAR 0300
ENCODING 768
SWIDTH 94 0
DWIDTH 5 0
BBX 10 11 -1 32
BITMAP
FE00
7F00
7F00
3F00
3F00
1F80
0F80
0F80
07C0
07C0
03C0
ENDCHAR
STARTCHAR 0301
ENCODING 769
SWIDTH 94 0
DWIDTH 5 0
BBX 10 11 0 32
BITMAP
1FC0
1F80
3F80
3F00
3F00
7E00
7E00
7C00
7800
F800
F000
ENDCHAR
STARTCHAR 0302
ENCODING 770
SWIDTH 378 0
DWIDTH 20 0
BBX 16 10 2 33
BITMAP
07E0
0FF0
0FF0
1FF8
1FF8
3E7C
3E7C
7C3E
7C3E
F83F
ENDCHAR
STARTCHAR 0303
ENCODING 771
SWIDTH 435 0
DWIDTH 23 0
BBX 17 8 3 36
BITMAP
080000
3F0780
7FC780
7FFF80
FFFF00
FFFF00
F0FF00
F03E00
ENDCHAR
STARTCHAR 0304
ENCODING 772
SWIDTH 246 0
DWIDTH 13 0
BBX 12 4 1 39
BITMAP
FFF0
FFF0
FFF0
FFF0
ENDCHAR
STARTCHAR 0306
ENCODING 774
SWIDTH 341 0
DWIDTH 18 0
BBX 15 7 1 36
BITMAP
F00E
F00E
701E
783E
7FFC
3FF8
0FE0
ENDCHAR
STARTCHAR 0307
ENCODING 775
SWIDTH 75 0
DWIDTH 4 0
BBX 7 7 -1 36
BITMAP
FE
FE
FE
FE
FE
FE
FE
ENDCHAR
STARTCHAR 0308
ENCODING 776
SWIDTH 416 0
DWIDTH 22 0
BBX 16 7 3 36
BITMAP
FC3F
FC3F
FC3F
FC3F
FC3F
FC3F
FC3F
ENDCHAR
STARTCHAR 030A
ENCODING 778
SWIDTH 189 0
DWIDTH 10 0
BBX 12 12 -1 32
BITMAP
0200
3FC0
7FE0
7FF0
F0F0
E070
E070
F070
F0F0
7FE0
3FE0
1F80
ENDCHAR
STARTCHAR 030C
ENCODING 780
SWIDTH 132 0
DWIDTH 7 0
BBX 16 9 -3 34
BITMAP
FC1F
7C3F
7E3E
3E7E
3F7C
1FFC
1FF8
0FF8
0FF0
ENDCHAR
STARTCHAR 030F
ENCODING 783
SWIDTH 360 0
DWIDTH 19 0
BBX 17 10 1 33
BITMAP
FC7E00
7E3E00
7E3F00
3E1F00
3F1F00
1F0F00
0F0F80
0F8780
078780
078780
ENDCHAR
STARTCHAR 0311
ENCODING 785
SWIDTH 341 0
DWIDTH 18 0
BBX 14 7 2 36
BITMAP
0FC0
3FF0
7FF8
F878
F038
F03C
E03C
ENDCHAR
STARTCHAR 0326
ENCODING 806
SWIDTH 170 0
DWIDTH 9 0
BBX 7 14 1 -16
BITMAP
FE
FE
FE
FE
FE
FE
FE
0E
1E
1E
3C
FC
78
70
ENDCHAR
STARTCHAR 03A0
ENCODING 928
SWIDTH 587 0
DWIDTH 31 0
BBX 25 43 3 0
BITMAP
FFFFFF80
FFFFFF80
FFFFFF80
FFFFFF80
FFFFFF80
FE003F80
FE003F80
FE003F80
FE003F80
FE003F80
FE003F80
FE003F80
FE003F80
FE003F80
FE003F80
FE003F80
FE003F80
FE003F80
FE003F80
FE003F80
FE003F80
FE003F80
FE003F80
FE003F80
FE003F80
FE003F80
FE003F80
FE003F80
FE003F80
FE003F80
FE003F80
FE003F80
FE003F80
FE003F80
FE003F80
FE003F80
FE003F80
FE003F80
FE003F80
FE003F80
FE003F80
FE003F80
FE003F80
ENDCHAR
STARTCHAR 03C0
ENCODING 960
SWIDTH 568 0
DWIDTH 30 0
BBX 27 32 1 -1
BITMAP
FFFFFFE0
FFFFFFE0
FFFFFFE0
FFFFFFE0
FFFFFFE0
1FE0FE00
1FE0FE00
1FE0FE00
1FE0FE00
1FE0FE00
1FE0FE00
1FE0FE00
1FE0FE00
1FE0FE00
1FE0FE00
1FE0FE00
1FE0FE00
1FE0FE00
1FE0FE00
1FE0FE00
1FE0FE00
1FE0FE00
1FE0FE00
1FE0FE00
1FE0FE00
1FE0FF00
1FE0FFE0
1FE0FFE0
1FE07FE0
1FE03FC0
1FE00FC0
00000020
ENDCHAR
STARTCHAR 0400
ENCODING 1024
SWIDTH 435 0
DWIDTH 23 0
BBX 18 57 3 0
BITMAP
7F0000
3F8000
3F8000
1F8000
1F8000
0FC000
07C000
07C000
03E000
03E000
01E000
000000
000000
000000
FFFFC0
FFFFC0
FFFFC0
FFFFC0
FFFFC0
FF0000
FF0000
FF0000
FF0000
FF0000
FF0000
FF0000
FF0000
FF0000
FF0000
FF0000
FF0000
FF0000
FFFF00
FFFF00
FFFF00
FFFF00
FFFF00
FF0000
FF0000
FF0000
FF0000
FF0000
FF0000
FF0000
FF0000
FF0000
FF0000
FF0000
FF0000
FF0000
FF0000
FF0000
FFFFC0
FFFFC0
FFFFC0
FFFFC0
FFFFC0
ENDCHAR
STARTCHAR 0401
ENCODING 1025
SWIDTH 435 0
DWIDTH 23 0
BBX 18 54 3 0
BITMAP
7E1F80
7E1F80
7E1F80
7E1F80
7E1F80
7E1F80
7E1F80
000000
000000
000000
000000
FFFFC0
FFFFC0
FFFFC0
FFFFC0
FFFFC0
FF0000
FF0000
FF0000
FF0000
FF0000
FF0000
FF0000
FF0000
FF0000
FF0000
FF0000
FF0000
FF0000
FFFF00
FFFF00
FFFF00
FFFF00
FFFF00
FF0000
FF0000
FF0000
FF0000
FF0000
FF0000
FF0000
FF0000
FF0000
FF0000
FF0000
FF0000
FF0000
FF0000
FF0000
FFFFC0
FFFFC0
FFFFC0
FFFFC0
FFFFC0
ENDCHAR
STARTCHAR 0402
ENCODING 1026
SWIDTH 587 0
DWIDTH 31 0
BBX 29 43 0 0
BITMAP
FFFFF800
FFFFF800
FFFFF800
FFFFF800
FFFFF800
03FC0000
03FC0000
03FC0000
03FC0000
03FC0000
03FC0000
03FC0000
03FC0000
03FC0000
03FC0000
03FC0000
03FC0000
03FC0000
03FC7E00
03FDFF80
03FFFFE0
03FFFFF0
03FFFFF0
03FF0FF8
03FC07F8
03FC03F8
03FC03F8
03FC03F8
03FC03F8
03FC03F8
03FC03F8
03FC03F8
03FC03F8
03FC03F8
03FC03F8
03FC07F8
03FC07F8
03FC1FF0
03FC7FF0
03FC7FE0
03FC7FC0
03FC7F80
03FC7E00
ENDCHAR
STARTCHAR 0403
ENCODING 1027
SWIDTH 416 0
DWIDTH 22 0
BBX 18 57 3 0
BITMAP
003F80
003F00
007F00
007E00
007E00
00FC00
00FC00
00F800
00F000
01F000
01E000
000000
000000
000000
FFFFC0
FFFFC0
FFFFC0
FFFFC0
FFFFC0
FFFFC0
FF0000
FF0000
FF0000
FF0000
FF0000
FF0000
FF0000
FF0000
FF0000
FF0000
FF0000
FF0000
FF0000
FF0000
FF0000
FF0000
FF0000
FF0000
FF0000
FF0000
FF0000
FF0000
FF0000
FF0000
FF0000
FF0000
FF0000
FF0000
FF0000
FF0000
FF0000
FF0000
FF0000
FF0000
FF0000
FF0000
FF0000
ENDCHAR
STARTCHAR 0404
ENCODING 1028
SWIDTH 530 0
DWIDTH 28 0
BBX 23 45 3 -1
BITMAP
001000
03FF80
0FFFE0
1FFFF0
3FFFF8
7FFFFC
7FFFFC
FF81FE
FF01FE
FF00FE
FF00FE
FE00FE
FE00FE
FE00FE
FE00FE
FE0000
FE0000
FE0000
FE0000
FE0000
FFFF00
FFFF00
FFFF00
FFFF00
FFFF00
FE0000
FE0000
FE0000
FE0000
FE0000
FE00FE
FE00FE
FE00FE
FE00FE
FF00FE
FF00FE
FF01FE
7F81FE
7FFFFC
7FFFFC
3FFFF8
1FFFF0
0FFFE0
03FFC0
001000
ENDCHAR
STARTCHAR 0405
ENCODING 1029
SWIDTH 492 0
DWIDTH 26 0
BBX 23 45 2 -1
BITMAP
001000
03FF00
0FFFC0
1FFFE0
3FFFF0
7FFFF0
7FEFF8
7F03F8
FF03F8
FF01FC
FE01FC
FF01FC
FF01F8
FF0100
7F8000
7FC000
7FE000
3FF000
3FF800
1FFC00
0FFE00
07FF00
03FF80
01FFC0
007FE0
003FF0
001FF8
000FF8
0007FC
0003FC
0603FC
FE01FE
FE01FE
FE01FE
FE01FE
7F01FE
7F01FE
7F83FC
3FFFFC
3FFFF8
1FFFF8
0FFFF0
07FFE0
01FF80
000800
ENDCHAR
STARTCHAR 0406
ENCODING 1030
SWIDTH 265 0
DWIDTH 14 0
BBX 8 43 3 0
BITMAP
FF
FF
FF
FF
FF
FF
FF
FF
FF
FF
FF
FF
FF
FF
FF
FF
FF
FF
FF
FF
FF
FF
FF
FF
FF
FF
FF
FF
FF
FF
FF
FF
FF
FF
FF
FF
FF
FF
FF
FF
FF
FF
FF
ENDCHAR
STARTCHAR 0407
ENCODING 1031
SWIDTH 265 0
DWIDTH 14 0
BBX 16 54 -1 0
BITMAP
FC3F
FC3F
FC3F
FC3F
FC3F
FC3F
FC3F
0000
0000
0000
0000
0FF0
0FF0
0FF0
0FF0
0FF0
0FF0
0FF0
0FF0
0FF0
0FF0
0FF0
0FF0
0FF0
0FF0
0FF0
0FF0
0FF0
0FF0
0FF0
0FF0
0FF0
0FF0
0FF0
0FF0
0FF0
0FF0
0FF0
0FF0
0FF0
0FF0
0FF0
0FF0
0FF0
0FF0
0FF0
0FF0
0FF0
0FF0
0FF0
0FF0
0FF0
0FF0
0FF0
ENDCHAR
STARTCHAR 0408
ENCODING 1032
SWIDTH 322 0
DWIDTH 17 0
BBX 14 44 0 -1
BITMAP
03FC
03FC
03FC
03FC
03FC
03FC
03FC
03FC
03FC
03FC
03FC
03FC
03FC
03FC
03FC
03FC
03FC
03FC
03FC
03FC
03FC
03FC
03FC
03FC
03FC
03FC
03FC
03FC
03FC
03FC
03FC
03FC
03FC
03FC
03FC
03FC
07FC
07F8
FFF8
FFF8
FFF0
FFE0
FFC0
F000
ENDCHAR
STARTCHAR 0409
ENCODING 1033
SWIDTH 871 0
DWIDTH 46 0
BBX 43 43 1 0
BITMAP
00FFFFF80000
00FFFFF80000
00FFFFF80000
00FFFFF80000
00FFFFF80000
00FFFFF80000
00FE07F80000
00FE07F80000
00FE07F80000
01FE07F80000
01FC07F80000
01FC07F80000
01FC07F80000
01FC07F80000
01FC07F80000
01FC07F80000
01FC07F80000
01FC07F80000
01FC07FFE000
01FC07FFFC00
01FC07FFFE00
01FC07FFFF80
03FC07FFFF80
03F807F8FFC0
03F807F83FC0
03F807F81FE0
03FC07F81FE0
03F807F80FE0
03F807F80FE0
03F807F80FE0
03F807F80FE0
03F807F80FE0
07F807F80FE0
07F807F80FE0
07F007F81FE0
0FF007F81FE0
0FF007F83FC0
3FE007F87FC0
FFE007FFFF80
FFC007FFFF00
FF8007FFFE00
FF0007FFFC00
FC0007FFE000
ENDCHAR
STARTCHAR 040A
ENCODING 1034
SWIDTH 814 0
DWIDTH 43 0
BBX 38 43 3 0
BITMAP
FF00FF0000
FF00FF0000
FF00FF0000
FF00FF0000
FF00FF0000
FF00FF0000
FF00FF0000
FF00FF0000
FF00FF0000
FF00FF0000
FF00FF0000
FF00FF0000
FF00FF0000
FF00FF0000
FF00FF0000
FF00FF0000
FF00FF0000
FFFFFF0000
FFFFFFFC00
FFFFFFFF80
FFFFFFFFE0
FFFFFFFFF0
FFFFFFFFF0
FF00FF0FF8
FF00FF07F8
FF00FF03FC
FF00FF03FC
FF00FF01FC
FF00FF01FC
FF00FF01FC
FF00FF01FC
FF00FF01FC
FF00FF01FC
FF00FF01FC
FF00FF01FC
FF00FF03FC
FF00FF07F8
FF00FF0FF8
FF00FFFFF0
FF00FFFFF0
FF00FFFFC0
FF00FFFF80
FF00FFFC00
ENDCHAR
STARTCHAR 040B
ENCODING 1035
SWIDTH 549 0
DWIDTH 29 0
BBX 26 43 0 0
BITMAP
FFFFF000
FFFFF000
FFFFF000
FFFFF000
FFFFF000
FFFFF000
03FC0000
03FC0000
03FC0000
03FC0000
03FC0000
03FC0000
03FC0000
03FC0000
03FC0000
03FC0000
03FC0000
03FC0000
03FCFE00
03FFFF00
03FFFF80
03FFFFC0
03FF3FC0
03FC1FC0
03FC1FC0
03FC1FC0
03FC1FC0
03FC1FC0
03FC1FC0
03FC1FC0
03FC1FC0
03FC1FC0
03FC1FC0
03FC1FC0
03FC1FC0
03FC1FC0
03FC1FC0
03FC1FC0
03FC1FC0
03FC1FC0
03FC1FC0
03FC1FC0
03FC1FC0
ENDCHAR
STARTCHAR 040C
ENCODING 1036
SWIDTH 549 0
DWIDTH 29 0
BBX 25 57 3 0
BITMAP
0003F800
0003F000
0007F000
0007E000
0007E000
000FC000
000FC000
000F8000
000F0000
001F0000
001E0000
00000000
00000000
00000000
FF007F00
FF00FF00
FF00FE00
FF01FE00
FF01FE00
FF01FC00
FF03FC00
FF03F800
FF07F800
FF07F800
FF07F000
FF0FF000
FF0FE000
FF1FE000
FF1FE000
FF1FC000
FF3FC000
FF3F8000
FFFF8000
FFFF8000
FFFF0000
FFFF8000
FFFF8000
FF3FC000
FF3FC000
FF3FC000
FF1FE000
FF1FE000
FF1FF000
FF0FF000
FF0FF000
FF07F800
FF07F800
FF07FC00
FF03FC00
FF03FC00
FF01FE00
FF01FE00
FF01FF00
FF00FF00
FF00FF00
FF00FF80
FF007F80
ENDCHAR
STARTCHAR 040D
ENCODING 1037
SWIDTH 568 0
DWIDTH 30 0
BBX 24 57 3 0
BITMAP
0FE000
07F000
07F000
03F000
03F000
01F800
00F800
00F800
007C00
007C00
003C00
000000
000000
000000
FE001F
FE003F
FE003F
FE007F
FE007F
FE00FF
FE00FF
FE01FF
FE01FF
FE01FF
FE03FF
FE03FF
FE07FF
FE07FF
FE0FFF
FE0FFF
FE1FFF
FE1F7F
FE1F7F
FE3F7F
FE3E7F
FE7E7F
FE7C7F
FEFC7F
FEF87F
FFF87F
FFF87F
FFF07F
FFF07F
FFE07F
FFE07F
FFC07F
FFC07F
FFC07F
FF807F
FF807F
FF007F
FF007F
FE007F
FE007F
FE007F
FC007F
FC007F
ENDCHAR
STARTCHAR 040E
ENCODING 1038
SWIDTH 492 0
DWIDTH 26 0
BBX 25 61 1 -7
BITMAP
07807000
07807000
0780F000
03C1F000
03FFE000
01FFC000
007F0000
00000000
00000000
00000000
00000000
FE007F80
FF007F00
FF007F00
FF007F00
7F007F00
7F007F00
7F80FE00
7F80FE00
3F80FE00
3F80FE00
3FC0FE00
3FC1FC00
1FC1FC00
1FC1FC00
1FC1FC00
1FE1F800
0FE3F800
0FE3F800
0FE3F800
0FE3F800
07E3F000
07E3F000
07F3F000
07F3F000
03F7F000
03F7E000
03F7E000
03F7E000
01F7E000
01FFE000
01FFC000
01FFC000
01FFC000
00FFC000
00FF8000
00FF8000
00FF8000
007F8000
007F8000
007F0000
007F0000
007F0000
007F0000
00FE0000
47FE0000
3FFE0000
3FFC0000
3FF80000
3FF00000
3FC00000
ENDCHAR
STARTCHAR 040F
ENCODING 1039
SWIDTH 568 0
DWIDTH 30 0
BBX 24 52 3 -9
BITMAP
FF00FF
FF00FF
FF00FF
FF00FF
FF00FF
FF00FF
FF00FF
FF00FF
FF00FF
FF00FF
FF00FF
FF00FF
FF00FF
FF00FF
FF00FF
FF00FF
FF00FF
FF00FF
FF00FF
FF00FF
FF00FF
FF00FF
FF00FF
FF00FF
FF00FF
FF00FF
FF00FF
FF00FF
FF00FF
FF00FF
FF00FF
FF00FF
FF00FF
FF00FF
FF00FF
FF00FF
FF00FF
FFFFFF
FFFFFF
FFFFFF
FFFFFF
FFFFFF
FFFFFF
007F00
007E00
007E00
007E00
007E00
007E00
007E00
007E00
007E00
ENDCHAR
STARTCHAR 0410
ENCODING 1040
SWIDTH 530 0
DWIDTH 28 0
BBX 26 43 1 0
BITMAP
007F8000
007F8000
007F8000
007FC000
00FFC000
00FFC000
00FFC000
00FFC000
01FFE000
01FFE000
01FFE000
01FFE000
01F7F000
03F7F000
03F7F000
03F3F000
03F3F000
03F3F800
07F3F800
07E3F800
07E3F800
07E1FC00
0FE1FC00
0FE1FC00
0FE1FC00
0FC1FC00
0FC1FE00
1FC0FE00
1FFFFE00
1FFFFE00
1FFFFE00
3FFFFF00
3FFFFF00
3F807F00
3F807F00
3F807F80
7F807F80
7F007F80
7F007F80
7F003F80
FF003FC0
FF003FC0
FE003FC0
ENDCHAR
STARTCHAR 0411
ENCODING 1041
SWIDTH 530 0
DWIDTH 28 0
BBX 23 43 3 0
BITMAP
FFFFF0
FFFFF0
FFFFF0
FFFFF0
FFFFF0
FFFFF0
FF0000
FF0000
FF0000
FF0000
FF0000
FF0000
FF0000
FF0000
FF0000
FF0000
FF0000
FF0000
FFFE00
FFFFC0
FFFFE0
FFFFF0
FFFFF8
FF0FFC
FF03FC
FF01FC
FF01FE
FF01FE
FF00FE
FF00FE
FF00FE
FF00FE
FF00FE
FF01FE
FF01FE
FF01FC
FF03FC
FF0FFC
FFFFF8
FFFFF0
FFFFE0
FFFF80
FFFE00
ENDCHAR
STARTCHAR 0412
ENCODING 1042
SWIDTH 549 0
DWIDTH 29 0
BBX 25 43 3 0
BITMAP
FFFF0000
FFFFE000
FFFFF000
FFFFF800
FFFFFC00
FF07FC00
FF01FE00
FF00FE00
FF00FE00
FF007E00
FF007E00
FF007E00
FF007E00
FF00FE00
FF00FE00
FF00FE00
FF01FC00
FF03FC00
FFFFF800
FFFFE000
FFFFE000
FFFFF800
FFFFFC00
FF03FE00
FF01FE00
FF00FF00
FF007F00
FF007F00
FF007F80
FF007F80
FF007F80
FF007F80
FF007F80
FF007F00
FF007F00
FF00FF00
FF00FF00
FF03FE00
FFFFFE00
FFFFFC00
FFFFF800
FFFFE000
FFFF8000
ENDCHAR
STARTCHAR 0413
ENCODING 1043
SWIDTH 416 0
DWIDTH 22 0
BBX 18 43 3 0
BITMAP
FFFFC0
FFFFC0
FFFFC0
FFFFC0
FFFFC0
FFFFC0
FF0000
FF0000
FF0000
FF0000
FF0000
FF0000
FF0000
FF0000
FF0000
FF0000
FF0000
FF0000
FF0000
FF0000
FF0000
FF0000
FF0000
FF0000
FF0000
FF0000
FF0000
FF0000
FF0000
FF0000
FF0000
FF0000
FF0000
FF0000
FF0000
FF0000
FF0000
FF0000
FF0000
FF0000
FF0000
FF0000
FF0000
ENDCHAR
STARTCHAR 0414
ENCODING 1044
SWIDTH 663 0
DWIDTH 35 0
BBX 33 52 1 -9
BITMAP
003FFFF800
007FFFF800
007FFFF800
007FFFF800
007FFFF800
007F07F800
007F07F800
007E07F800
007E07F800
007E07F800
007E07F800
007E07F800
007E07F800
007E07F800
00FE07F800
00FE07F800
00FE07F800
00FE07F800
00FE07F800
00FE07F800
00FE07F800
00FE07F800
00FE07F800
00FE07F800
00FC07F800
01FC07F800
01FC07F800
01FC07F800
01FC07F800
01F807F800
03F807F800
03F807F800
03F807F800
07F007F800
07F007F800
0FE007F800
1FC007F800
3F8007F800
FFFFFFFF80
FFFFFFFF80
FFFFFFFF80
FFFFFFFF80
FFFFFFFF80
FC00001F80
FC00001F80
FC00001F80
FC00001F80
FC00001F80
FC00001F80
FC00001F80
F800001F80
F800001F80
ENDCHAR
STARTCHAR 0415
ENCODING 1045
SWIDTH 435 0
DWIDTH 23 0
BBX 18 43 3 0
BITMAP
FFFFC0
FFFFC0
FFFFC0
FFFFC0
FFFFC0
FF0000
FF0000
FF0000
FF0000
FF0000
FF0000
FF0000
FF0000
FF0000
FF0000
FF0000
FF0000
FF0000
FFFF00
FFFF00
FFFF00
FFFF00
FFFF00
FF0000
FF0000
FF0000
FF0000
FF0000
FF0000
FF0000
FF0000
FF0000
FF0000
FF0000
FF0000
FF0000
FF0000
FF0000
FFFFC0
FFFFC0
FFFFC0
FFFFC0
FFFFC0
ENDCHAR
STARTCHAR 0416
ENCODING 1046
SWIDTH 738 0
DWIDTH 39 0
BBX 39 43 0 0
BITMAP
7F00FE03FC
7F80FE03F8
3F80FE03F8
3FC0FE07F8
3FC0FE07F0
1FC0FE07F0
1FE0FE0FE0
0FE0FE0FE0
0FE0FE0FE0
07F0FE1FC0
07F0FE1FC0
07F0FE3F80
03F8FE3F80
03F8FE3F00
01FCFE7F00
01FCFE7F00
01FCFE7E00
00FEFEFE00
00FEFEFC00
007EFEFC00
007FFFF800
003FFFF800
007FFFFC00
007EFFFC00
00FEFEFE00
00FCFEFE00
01FCFE7E00
01FCFE7F00
01F8FE7F00
03F8FE3F80
03F0FE3F80
07F0FE1FC0
07F0FE1FC0
0FE0FE1FE0
0FE0FE0FE0
1FC0FE0FE0
1FC0FE07F0
1F80FE07F0
3F80FE03F8
3F80FE03F8
7F00FE03FC
7F00FE01FC
FE00FE01FE
ENDCHAR
STARTCHAR 0417
ENCODING 1047
SWIDTH 511 0
DWIDTH 27 0
BBX 24 45 1 -1
BITMAP
001000
01FF80
07FFE0
1FFFF0
1FFFF8
3FFFFC
7FFFFC
7F81FE
7F81FE
FF00FE
FF00FE
FF00FF
FF00FE
FF00FE
0000FE
0000FE
0001FE
0001FC
0007FC
00FFF8
00FFE0
00FFE0
00FFF0
00FFF8
0007FC
0003FC
0001FE
0000FE
0000FE
0000FE
0000FE
7F00FF
7F00FE
7F80FE
7F80FE
7F80FE
3F80FE
3FC1FE
3FFFFC
1FFFFC
1FFFF8
0FFFF0
07FFE0
01FFC0
000800
ENDCHAR
STARTCHAR 0418
ENCODING 1048
SWIDTH 568 0
DWIDTH 30 0
BBX 24 43 3 0
BITMAP
FE001F
FE003F
FE003F
FE007F
FE007F
FE00FF
FE00FF
FE01FF
FE01FF
FE01FF
FE03FF
FE03FF
FE07FF
FE07FF
FE0FFF
FE0FFF
FE1FFF
FE1F7F
FE1F7F
FE3F7F
FE3E7F
FE7E7F
FE7C7F
FEFC7F
FEF87F
FFF87F
FFF87F
FFF07F
FFF07F
FFE07F
FFE07F
FFC07F
FFC07F
FFC07F
FF807F
FF807F
FF007F
FF007F
FE007F
FE007F
FE007F
FC007F
FC007F
ENDCHAR
STARTCHAR 0419
ENCODING 1049
SWIDTH 568 0
DWIDTH 30 0
BBX 24 54 3 0
BITMAP
0F00E0
0F00E0
0F01E0
0783E0
07FFC0
03FF80
00FE00
000000
000000
000000
000000
FE001F
FE003F
FE003F
FE007F
FE007F
FE00FF
FE00FF
FE01FF
FE01FF
FE01FF
FE03FF
FE03FF
FE07FF
FE07FF
FE0FFF
FE0FFF
FE1FFF
FE1F7F
FE1F7F
FE3F7F
FE3E7F
FE7E7F
FE7C7F
FEFC7F
FEF87F
FFF87F
FFF87F
FFF07F
FFF07F
FFE07F
FFE07F
FFC07F
FFC07F
FFC07F
FF807F
FF807F
FF007F
FF007F
FE007F
FE007F
FE007F
FC007F
FC007F
ENDCHAR
STARTCHAR 041A
ENCODING 1050
SWIDTH 549 0
DWIDTH 29 0
BBX 25 43 3 0
BITMAP
FF007F00
FF00FF00
FF00FE00
FF01FE00
FF01FE00
FF01FC00
FF03FC00
FF03F800
FF07F800
FF07F800
FF07F000
FF0FF000
FF0FE000
FF1FE000
FF1FE000
FF1FC000
FF3FC000
FF3F8000
FFFF8000
FFFF8000
FFFF0000
FFFF8000
FFFF8000
FF3FC000
FF3FC000
FF3FC000
FF1FE000
FF1FE000
FF1FF000
FF0FF000
FF0FF000
FF07F800
FF07F800
FF07FC00
FF03FC00
FF03FC00
FF01FE00
FF01FE00
FF01FF00
FF00FF00
FF00FF00
FF00FF80
FF007F80
ENDCHAR
STARTCHAR 041B
ENCODING 1051
SWIDTH 625 0
DWIDTH 33 0
BBX 29 43 0 0
BITMAP
00FFFFF8
00FFFFF8
00FFFFF8
00FFFFF8
00FFFFF8
00FFFFF8
00FE07F8
00FE07F8
00FE07F8
00FE07F8
00FE07F8
00FE07F8
00FE07F8
00FE07F8
01FE07F8
01FE07F8
01FE07F8
01FC07F8
01FC07F8
01FC07F8
01FC07F8
01FC07F8
01FC07F8
01FC07F8
01FC07F8
01FC07F8
01FC07F8
01FC07F8
03FC07F8
03FC07F8
03FC07F8
03FC07F8
03F807F8
03F807F8
07F807F8
07F807F8
0FF007F8
1FF007F8
FFE007F8
FFE007F8
FFC007F8
FF8007F8
FC0007F8
ENDCHAR
STARTCHAR 041C
ENCODING 1052
SWIDTH 682 0
DWIDTH 36 0
BBX 30 43 3 0
BITMAP
7F8003F8
7F8003F8
7F8003F8
7F8007F8
7FC007F8
7FC007F8
7FC007F8
7FC00FF8
7FC00FF8
7FE00FF8
7FE00FF8
7FE01FF8
7FE01FFC
7FF01FFC
7FF01FFC
7FF03FFC
7DF03FFC
7DF03FFC
7DF83FFC
7DF87FFC
FCF87EFC
FCF87CFC
FCFC7CFC
FCFCFCFC
FC7CFCFC
FC7CF8FC
FC7CF8FC
FC7FF8FC
FC3FF8FC
FC3FF0FC
FC3FF0FC
FC3FF0FC
FC1FF0FC
FC1FE0FC
FC1FE0FC
FC1FE0FC
FC0FE0FC
FC0FE0FC
FC0FC0FC
FC0FC0FC
FC0FC0FC
FC07C0FC
FC0780FC
ENDCHAR
STARTCHAR 041D
ENCODING 1053
SWIDTH 587 0
DWIDTH 31 0
BBX 25 43 3 0
BITMAP
FF007F80
FF007F80
FF007F80
FF007F80
FF007F80
FF007F80
FF007F80
FF007F80
FF007F80
FF007F80
FF007F80
FF007F80
FF007F80
FF007F80
FF007F80
FF007F80
FF007F80
FF007F80
FFFFFF80
FFFFFF80
FFFFFF80
FFFFFF80
FFFFFF80
FF007F80
FF007F80
FF007F80
FF007F80
FF007F80
FF007F80
FF007F80
FF007F80
FF007F80
FF007F80
FF007F80
FF007F80
FF007F80
FF007F80
FF007F80
FF007F80
FF007F80
FF007F80
FF007F80
FF007F80
ENDCHAR
STARTCHAR 041E
ENCODING 1054
SWIDTH 568 0
DWIDTH 30 0
BBX 24 45 3 -1
BITMAP
001000
03FFC0
0FFFF0
1FFFF8
3FFFFC
7FFFFC
7FFFFE
FF81FE
FF00FF
FF00FF
FF00FF
FE00FF
FE00FF
FE00FF
FE00FF
FE00FF
FE00FF
FE00FF
FE00FF
FE00FF
FE00FF
FE00FF
FE00FF
FE00FF
FE00FF
FE00FF
FE00FF
FE00FF
FE00FF
FE00FF
FE00FF
FE00FF
FE00FF
FE00FF
FF00FF
FF00FF
FF00FF
7F81FE
7FFFFE
7FFFFC
3FFFFC
1FFFF8
0FFFF0
03FFC0
001000
ENDCHAR
STARTCHAR 041F
ENCODING 1055
SWIDTH 587 0
DWIDTH 31 0
BBX 25 43 3 0
BITMAP
FFFFFF80
FFFFFF80
FFFFFF80
FFFFFF80
FFFFFF80
FF007F80
FF007F80
FF007F80
FF007F80
FF007F80
FF007F80
FF007F80
FF007F80
FF007F80
FF007F80
FF007F80
FF007F80
FF007F80
FF007F80
FF007F80
FF007F80
FF007F80
FF007F80
FF007F80
FF007F80
FF007F80
FF007F80
FF007F80
FF007F80
FF007F80
FF007F80
FF007F80
FF007F80
FF007F80
FF007F80
FF007F80
FF007F80
FF007F80
FF007F80
FF007F80
FF007F80
FF007F80
FF007F80
ENDCHAR
STARTCHAR 0420
ENCODING 1056
SWIDTH 511 0
DWIDTH 27 0
BBX 24 43 3 0
BITMAP
FFFF00
FFFFE0
FFFFF0
FFFFF8
FFFFFC
FF03FC
FF01FE
FF00FE
FF00FE
FF00FE
FF00FE
FF00FF
FF00FF
FF00FE
FF00FE
FF00FE
FF00FE
FF01FE
FF07FC
FFFFFC
FFFFF8
FFFFF0
FFFFE0
FFFF00
FF0000
FF0000
FF0000
FF0000
FF0000
FF0000
FF0000
FF0000
FF0000
FF0000
FF0000
FF0000
FF0000
FF0000
FF0000
FF0000
FF0000
FF0000
FF0000
ENDCHAR
STARTCHAR 0421
ENCODING 1057
SWIDTH 549 0
DWIDTH 29 0
BBX 23 45 3 -1
BITMAP
001000
03FFC0
0FFFE0
1FFFF0
3FFFF8
7FFFFC
7FFFFC
FF81FE
FF01FE
FF00FE
FF00FE
FE00FE
FE00FE
FE00FE
FE00FE
FE00FE
FE00FE
FE0000
FE0000
FE0000
FE0000
FE0000
FE0000
FE0000
FE0000
FE0000
FE0000
FE0000
FE00FE
FE00FE
FE00FE
FE00FE
FE00FE
FE00FE
FF00FE
FF00FE
FF01FE
7F81FE
7FFFFC
7FFFFC
3FFFF8
1FFFF0
0FFFE0
03FF80
001000
ENDCHAR
STARTCHAR 0422
ENCODING 1058
SWIDTH 416 0
DWIDTH 22 0
BBX 22 43 0 0
BITMAP
FFFFFC
FFFFFC
FFFFFC
FFFFFC
FFFFFC
FFFFFC
01FE00
01FE00
01FE00
01FE00
01FE00
01FE00
01FE00
01FE00
01FE00
01FE00
01FE00
01FE00
01FE00
01FE00
01FE00
01FE00
01FE00
01FE00
01FE00
01FE00
01FE00
01FE00
01FE00
01FE00
01FE00
01FE00
01FE00
01FE00
01FE00
01FE00
01FE00
01FE00
01FE00
01FE00
01FE00
01FE00
01FE00
ENDCHAR
STARTCHAR 0423
ENCODING 1059
SWIDTH 492 0
DWIDTH 26 0
BBX 25 50 1 -7
BITMAP
FE007F80
FF007F00
FF007F00
FF007F00
7F007F00
7F007F00
7F80FE00
7F80FE00
3F80FE00
3F80FE00
3FC0FE00
3FC1FC00
1FC1FC00
1FC1FC00
1FC1FC00
1FE1F800
0FE3F800
0FE3F800
0FE3F800
0FE3F800
07E3F000
07E3F000
07F3F000
07F3F000
03F7F000
03F7E000
03F7E000
03F7E000
01F7E000
01FFE000
01FFC000
01FFC000
01FFC000
00FFC000
00FF8000
00FF8000
00FF8000
007F8000
007F8000
007F0000
007F0000
007F0000
007F0000
00FE0000
47FE0000
3FFE0000
3FFC0000
3FF80000
3FF00000
3FC00000
ENDCHAR
STARTCHAR 0424
ENCODING 1060
SWIDTH 720 0
DWIDTH 38 0
BBX 33 48 2 -2
BITMAP
0007F00000
0007F00000
0007F00000
0007F00000
0007F00000
0007F00000
0007F00000
0007F00000
01FFFFC000
07FFFFF800
0FFFFFFC00
1FFFFFFE00
3FFFFFFF00
7F87F0FF00
7F07F07F80
7F07F03F80
7F07F03F80
7E07F03F80
FE07F03F80
FE07F03F80
FE07F03F80
FE07F03F80
FE07F03F80
FE07F03F80
FE07F03F80
FE07F03F80
FE07F03F80
FE07F03F80
FE07F03F80
FE07F03F80
FE07F03F80
7E07F03F80
7F07F03F80
7F07F03F80
7F07F07F80
7FC7F0FF00
3FFFFFFF00
3FFFFFFE00
1FFFFFFC00
0FFFFFF800
01FFFFE000
0007F00000
0007F00000
0007F00000
0007F00000
0007F00000
0007F00000
0007F00000
ENDCHAR
STARTCHAR 0425
ENCODING 1061
SWIDTH 492 0
DWIDTH 26 0
BBX 25 43 1 0
BITMAP
FE007F00
FF007F00
7F007E00
7F80FE00
3F80FE00
3F80FC00
3FC1FC00
1FC1F800
1FE3F800
0FE3F800
0FE3F000
07F7F000
07F7F000
07FFE000
03FFE000
03FFC000
01FFC000
01FFC000
01FF8000
00FF8000
00FF0000
00FF0000
01FF0000
01FF8000
01FF8000
03FFC000
03FFC000
07FFE000
07FFE000
07EFE000
0FEFF000
0FE7F000
0FC7F800
1FC3F800
1F83FC00
3F83FC00
3F81FC00
3F01FE00
7F00FE00
7E00FF00
FE007F00
FE007F80
FC007F80
ENDCHAR
STARTCHAR 0426
ENCODING 1062
SWIDTH 663 0
DWIDTH 35 0
BBX 31 52 3 -9
BITMAP
FF003FC0
FF003FC0
FF003FC0
FF003FC0
FF003FC0
FF003FC0
FF003FC0
FF003FC0
FF003FC0
FF003FC0
FF003FC0
FF003FC0
FF003FC0
FF003FC0
FF003FC0
FF003FC0
FF003FC0
FF003FC0
FF003FC0
FF003FC0
FF003FC0
FF003FC0
FF003FC0
FF003FC0
FF003FC0
FF003FC0
FF003FC0
FF003FC0
FF003FC0
FF003FC0
FF003FC0
FF003FC0
FF003FC0
FF003FC0
FF003FC0
FF003FC0
FF003FC0
FF003FC0
FFFFFFFE
FFFFFFFE
FFFFFFFE
FFFFFFFE
FFFFFFFE
000000FE
000000FE
000000FE
000000FE
000000FE
000000FE
000000FE
0000007E
0000007E
ENDCHAR
STARTCHAR 0427
ENCODING 1063
SWIDTH 568 0
DWIDTH 30 0
BBX 25 43 2 0
BITMAP
FF007F80
FF007F80
FF007F80
FF007F80
FF007F80
FF007F80
FF007F80
FF007F80
FF007F80
FF007F80
FF007F80
FF007F80
FF007F80
FF007F80
FF007F80
FF007F80
7F007F80
7F007F80
7F807F80
7FC07F80
3FFFFF80
1FFFFF80
0FFFFF80
07FFFF80
01FF7F80
00007F80
00007F80
00007F80
00007F80
00007F80
00007F80
00007F80
00007F80
00007F80
00007F80
00007F80
00007F80
00007F80
00007F80
00007F80
00007F80
00007F80
00007F80
ENDCHAR
STARTCHAR 0428
ENCODING 1064
SWIDTH 795 0
DWIDTH 42 0
BBX 35 43 3 0
BITMAP
FF03FC0FE0
FF03FC0FE0
FF03FC0FE0
FF03FC0FE0
FF03FC0FE0
FF03FC0FE0
FF03FC0FE0
FF03FC0FE0
FF03FC0FE0
FF03FC0FE0
FF03FC0FE0
FF03FC0FE0
FF03FC0FE0
FF03FC0FE0
FF03FC0FE0
FF03FC0FE0
FF03FC0FE0
FF03FC0FE0
FF03FC0FE0
FF03FC0FE0
FF03FC0FE0
FF03FC0FE0
FF03FC0FE0
FF03FC0FE0
FF03FC0FE0
FF03FC0FE0
FF03FC0FE0
FF03FC0FE0
FF03FC0FE0
FF03FC0FE0
FF03FC0FE0
FF03FC0FE0
FF03FC0FE0
FF03FC0FE0
FF03FC0FE0
FF03FC0FE0
FF03FC0FE0
FF03FC0FE0
FFFFFFFFE0
FFFFFFFFE0
FFFFFFFFE0
FFFFFFFFE0
FFFFFFFFE0
ENDCHAR
STARTCHAR 0429
ENCODING 1065
SWIDTH 852 0
DWIDTH 45 0
BBX 40 52 3 -9
BITMAP
FF03FC0FE0
FF03FC0FE0
FF03FC0FE0
FF03FC0FE0
FF03FC0FE0
FF03FC0FE0
FF03FC0FE0
FF03FC0FE0
FF03FC0FE0
FF03FC0FE0
FF03FC0FE0
FF03FC0FE0
FF03FC0FE0
FF03FC0FE0
FF03FC0FE0
FF03FC0FE0
FF03FC0FE0
FF03FC0FE0
FF03FC0FE0
FF03FC0FE0
FF03FC0FE0
FF03FC0FE0
FF03FC0FE0
FF03FC0FE0
FF03FC0FE0
FF03FC0FE0
FF03FC0FE0
FF03FC0FE0
FF03FC0FE0
FF03FC0FE0
FF03FC0FE0
FF03FC0FE0
FF03FC0FE0
FF03FC0FE0
FF03FC0FE0
FF03FC0FE0
FF03FC0FE0
FF03FC0FE0
FFFFFFFFFF
FFFFFFFFFF
FFFFFFFFFF
FFFFFFFFFF
FFFFFFFFFF
000000003F
000000003F
000000003F
000000003F
000000003F
000000003F
000000003F
000000003F
000000001F
ENDCHAR
STARTCHAR 042A
ENCODING 1066
SWIDTH 606 0
DWIDTH 32 0
BBX 30 43 0 0
BITMAP
FFFE0000
FFFE0000
FFFE0000
FFFE0000
FFFE0000
01FE0000
01FE0000
01FE0000
01FE0000
01FE0000
01FE0000
01FE0000
01FE0000
01FE0000
01FE0000
01FE0000
01FE0000
01FE0000
01FFFC00
01FFFF80
01FFFFC0
01FFFFF0
01FFFFF0
01FE1FF8
01FE07F8
01FE03FC
01FE03FC
01FE01FC
01FE01FC
01FE01FC
01FE01FC
01FE01FC
01FE01FC
01FE01FC
01FE03FC
01FE03F8
01FE07F8
01FE0FF8
01FFFFF0
01FFFFE0
01FFFFC0
01FFFF80
01FFFC00
ENDCHAR
STARTCHAR 042B
ENCODING 1067
SWIDTH 776 0
DWIDTH 41 0
BBX 35 43 3 0
BITMAP
FF00001FE0
FF00001FE0
FF00001FE0
FF00001FE0
FF00001FE0
FF00001FE0
FF00001FE0
FF00001FE0
FF00001FE0
FF00001FE0
FF00001FE0
FF00001FE0
FF00001FE0
FF00001FE0
FF00001FE0
FF00001FE0
FF00001FE0
FF00001FE0
FFFE001FE0
FFFFC01FE0
FFFFF01FE0
FFFFF81FE0
FFFFF81FE0
FF0FFC1FE0
FF03FC1FE0
FF01FE1FE0
FF01FE1FE0
FF00FE1FE0
FF00FE1FE0
FF00FE1FE0
FF00FE1FE0
FF00FE1FE0
FF00FE1FE0
FF00FE1FE0
FF01FE1FE0
FF01FE1FE0
FF03FC1FE0
FF07FC1FE0
FFFFF81FE0
FFFFF01FE0
FFFFE01FE0
FFFFC01FE0
FFFE001FE0
ENDCHAR
STARTCHAR 042C
ENCODING 1068
SWIDTH 530 0
DWIDTH 28 0
BBX 23 43 3 0
BITMAP
FF0000
FF0000
FF0000
FF0000
FF0000
FF0000
FF0000
FF0000
FF0000
FF0000
FF0000
FF0000
FF0000
FF0000
FF0000
FF0000
FF0000
FF0000
FFFE00
FFFFC0
FFFFF0
FFFFF8
FFFFF8
FF0FFC
FF03FC
FF01FE
FF01FE
FF00FE
FF00FE
FF00FE
FF00FE
FF00FE
FF00FE
FF00FE
FF01FE
FF01FE
FF03FC
FF07FC
FFFFF8
FFFFF0
FFFFE0
FFFFC0
FFFE00
ENDCHAR
STARTCHAR 042D
ENCODING 1069
SWIDTH 549 0
DWIDTH 29 0
BBX 23 44 3 0
BITMAP
001000
07FF80
1FFFE0
3FFFF0
3FFFF8
7FFFF8
7FFFFC
FF03FC
FF01FE
FE01FE
FE01FE
FE01FE
FE01FE
FE01FE
FE01FE
0001FE
0001FE
0001FE
0001FE
00FFFE
00FFFE
00FFFE
00FFFE
00FFFE
0001FE
0001FE
0001FE
0001FE
0001FE
FE01FE
FE01FE
FE01FE
FE01FE
FE01FE
FE01FE
FE01FE
FF03FE
FF87FC
7FFFFC
7FFFF8
3FFFF8
1FFFF0
0FFFC0
01FF00
ENDCHAR
STARTCHAR 042E
ENCODING 1070
SWIDTH 776 0
DWIDTH 41 0
BBX 35 45 3 -1
BITMAP
0000010000
FF003FF800
FF007FFE00
FF00FFFF00
FF01FFFF80
FF03FFFF80
FF03FFFFC0
FF07F81FC0
FF07F01FE0
FF07F00FE0
FF07F00FE0
FF07F00FE0
FF07F00FE0
FF07F00FE0
FF07F00FE0
FF07F00FE0
FF07F00FE0
FF07F00FE0
FF07F00FE0
FFFFF00FE0
FFFFF00FE0
FFFFF00FE0
FFFFF00FE0
FFFFF00FE0
FFFFF00FE0
FF07F00FE0
FF07F00FE0
FF07F00FE0
FF07F00FE0
FF07F00FE0
FF07F00FE0
FF07F00FE0
FF07F00FE0
FF07F00FE0
FF07F00FE0
FF07F00FE0
FF07F01FE0
FF03F81FC0
FF03FFFFC0
FF03FFFF80
FF01FFFF80
FF00FFFF00
FF007FFE00
FF001FF800
0000010000
ENDCHAR
STARTCHAR 042F
ENCODING 1071
SWIDTH 568 0
DWIDTH 30 0
BBX 26 43 1 0
BITMAP
001FFFC0
00FFFFC0
03FFFFC0
07FFFFC0
0FFFFFC0
0FFC3FC0
1FF03FC0
1FE03FC0
1FC03FC0
3FC03FC0
3FC03FC0
3FC03FC0
3FC03FC0
3FC03FC0
3FC03FC0
1FC03FC0
1FC03FC0
1FE03FC0
0FF03FC0
0FF83FC0
07FFFFC0
03FFFFC0
01FFFFC0
00FFFFC0
00FFFFC0
01FE3FC0
01FC3FC0
03FC3FC0
03FC3FC0
03F83FC0
07F83FC0
07F03FC0
0FF03FC0
0FF03FC0
1FE03FC0
1FE03FC0
3FC03FC0
3FC03FC0
3FC03FC0
7F803FC0
7F803FC0
FF003FC0
FF003FC0
ENDCHAR
STARTCHAR 0430
ENCODING 1072
SWIDTH 454 0
DWIDTH 24 0
BBX 20 31 2 0
BITMAP
01FC00
0FFF00
1FFF80
3FFFC0
3FFFE0
7F9FE0
7F0FE0
7F0FE0
7F0FE0
FE0FE0
000FE0
000FE0
003FE0
00FFE0
03FFE0
0FFFE0
1FEFE0
3FCFE0
7F8FE0
7F0FE0
FE0FE0
FE0FE0
FE0FE0
FE0FE0
FE0FE0
FF1FE0
7FFFF0
7FF7F0
3FF7F0
1FE7F0
0F87F0
ENDCHAR
STARTCHAR 0431
ENCODING 1073
SWIDTH 454 0
DWIDTH 24 0
BBX 19 45 3 1
BITMAP
000100
000F80
01FF80
0FFF80
1FFF80
3FFF80
7FFE00
7FE000
FF0000
FE0000
FE0000
FE0000
FE0000
FC0000
FC0000
FC0000
FC7C00
FDFF00
FFFF80
FFFFC0
FFFFC0
FF1FC0
FE0FE0
FE0FE0
FE0FE0
FE0FE0
FE0FE0
FE0FE0
FE0FE0
FE0FE0
FE0FE0
FE0FE0
FE0FE0
FE0FE0
FE0FE0
FE0FE0
FE0FE0
FE0FE0
FE1FC0
FF1FC0
7FFFC0
7FFF80
3FFF80
1FFE00
07F800
ENDCHAR
STARTCHAR 0432
ENCODING 1074
SWIDTH 454 0
DWIDTH 24 0
BBX 20 31 3 0
BITMAP
FFFC00
FFFF00
FFFF80
FFFFC0
FFFFE0
FE1FE0
FE0FE0
FE0FE0
FE0FE0
FE0FE0
FE0FE0
FE1FC0
FFFF80
FFFF00
FFFF00
FFFFC0
FFFFE0
FE1FE0
FE0FE0
FE0FF0
FE07F0
FE07F0
FE07F0
FE0FF0
FE0FF0
FE1FE0
FFFFE0
FFFFC0
FFFFC0
FFFF00
FFFC00
ENDCHAR
STARTCHAR 0433
ENCODING 1075
SWIDTH 322 0
DWIDTH 17 0
BBX 14 31 3 0
BITMAP
FFFC
FFFC
FFFC
FFFC
FFFC
FE00
FE00
FE00
FE00
FE00
FE00
FE00
FE00
FE00
FE00
FE00
FE00
FE00
FE00
FE00
FE00
FE00
FE00
FE00
FE00
FE00
FE00
FE00
FE00
FE00
FE00
ENDCHAR
STARTCHAR 0434
ENCODING 1076
SWIDTH 549 0
DWIDTH 29 0
BBX 27 39 1 -8
BITMAP
00FFFE00
00FFFE00
00FFFE00
01FFFE00
01FFFE00
01F8FE00
01F8FE00
01F8FE00
01F8FE00
01F8FE00
01F8FE00
01F8FE00
01F8FE00
01F8FE00
01F0FE00
03F0FE00
03F0FE00
03F0FE00
07F0FE00
07E0FE00
07E0FE00
0FE0FE00
1FC0FE00
1FC0FE00
3F80FE00
7F00FE00
FFFFFFE0
FFFFFFE0
FFFFFFE0
FFFFFFE0
FFFFFFE0
F80007E0
F80007E0
F80003E0
F80003E0
F80003E0
F80003E0
F80003E0
F80003E0
ENDCHAR
STARTCHAR 0435
ENCODING 1077
SWIDTH 454 0
DWIDTH 24 0
BBX 20 31 2 0
BITMAP
03FC00
0FFF00
1FFF80
3FFFC0
7FFFC0
7F9FE0
7F0FE0
7F0FE0
FE07E0
FE07E0
FE07E0
FE07E0
FFFFF0
FFFFF0
FFFFF0
FFFFF0
FE0000
FE0000
FE0000
FE0000
FE07E0
FE07E0
FE07E0
7F0FE0
7F0FE0
7F0FE0
7FFFE0
3FFFC0
1FFF80
0FFF00
03FC00
ENDCHAR
STARTCHAR 0436
ENCODING 1078
SWIDTH 625 0
DWIDTH 33 0
BBX 33 31 0 0
BITMAP
7E07E07F00
7F07E07F00
3F07E07E00
3F87E0FE00
3F87E0FC00
1F87E0FC00
1FC7E1F800
0FC7E1F800
0FE7E3F800
07E7E3F000
07E7E3F000
07F7E7E000
03F7E7E000
03FFEFE000
01FFEFC000
01FFFFC000
01FFEFC000
03F7EFE000
03F7E7E000
07E7E7F000
07E7E3F000
0FE7E3F000
0FC7E1F800
0FC7E1F800
1F87E1FC00
1F87E0FC00
3F07E0FE00
3F07E07E00
7F07E07F00
7E07E03F00
FE07E03F80
ENDCHAR
STARTCHAR 0437
ENCODING 1079
SWIDTH 416 0
DWIDTH 22 0
BBX 18 32 2 -1
BITMAP
07F000
1FFE00
3FFF00
7FFF80
7FFF80
FE3FC0
FC1FC0
FC1FC0
FC0FC0
FC0FC0
001FC0
001F80
003F80
03FF00
03FE00
03FE00
03FF00
003F80
001F80
000FC0
000FC0
FC0FC0
FC0FC0
FC0FC0
FC0FC0
FE1FC0
7FFF80
7FFF80
3FFF00
3FFE00
0FFC00
008000
ENDCHAR
STARTCHAR 0438
ENCODING 1080
SWIDTH 492 0
DWIDTH 26 0
BBX 20 31 3 0
BITMAP
FC03F0
FC03F0
FC07F0
FC07F0
FC0FF0
FC0FF0
FC1FF0
FC1FF0
FC3FF0
FC3FF0
FC7FF0
FC7FF0
FCFFF0
FCFFF0
FCFBF0
FDFBF0
FDF3F0
FFF3F0
FFE3F0
FFE3F0
FFC3F0
FFC3F0
FF83F0
FF83F0
FF83F0
FF03F0
FF03F0
FE03F0
FE03F0
FC03F0
FC03F0
ENDCHAR
STARTCHAR 0439
ENCODING 1081
SWIDTH 492 0
DWIDTH 26 0
BBX 20 42 3 0
BITMAP
3C0380
3C0380
3C0780
1E0F80
1FFF00
0FFE00
03F800
000000
000000
000000
000000
FC03F0
FC03F0
FC07F0
FC07F0
FC0FF0
FC0FF0
FC1FF0
FC1FF0
FC3FF0
FC3FF0
FC7FF0
FC7FF0
FCFFF0
FCFFF0
FCFBF0
FDFBF0
FDF3F0
FFF3F0
FFE3F0
FFE3F0
FFC3F0
FFC3F0
FF83F0
FF83F0
FF83F0
FF03F0
FF03F0
FE03F0
FE03F0
FC03F0
FC03F0
ENDCHAR
STARTCHAR 043A
ENCODING 1082
SWIDTH 454 0
DWIDTH 24 0
BBX 21 31 3 0
BITMAP
FE07F8
FE07F0
FE07F0
FE0FF0
FE0FE0
FE1FE0
FE1FC0
FE1FC0
FE3FC0
FE3F80
FE7F80
FE7F00
FE7F00
FFFF00
FFFE00
FFFE00
FFFF00
FEFF00
FE7F00
FE7F80
FE3F80
FE3F80
FE3FC0
FE1FC0
FE1FE0
FE1FE0
FE0FE0
FE0FF0
FE07F0
FE07F8
FE07F8
ENDCHAR
STARTCHAR 043B
ENCODING 1083
SWIDTH 530 0
DWIDTH 28 0
BBX 24 31 1 0
BITMAP
03FFFF
03FFFF
03FFFF
03FFFF
03FFFF
03F07F
03F07F
03F07F
03F07F
03F07F
03F07F
07F07F
07F07F
07F07F
07F07F
07F07F
07F07F
07F07F
07F07F
07E07F
07E07F
07E07F
0FE07F
0FE07F
0FE07F
3FC07F
FFC07F
FF807F
FF807F
FF007F
FC007F
ENDCHAR
STARTCHAR 043C
ENCODING 1084
SWIDTH 568 0
DWIDTH 30 0
BBX 24 31 3 0
BITMAP
F8003F
FC003F
FC003F
FE007F
FE007F
FE00FF
FF00FF
FF00FF
FF81FF
FF81FF
FF83FF
FFC3FF
FFC3FF
FFE7FF
FFE7FF
FFEFFF
FFFFBF
FDFFBF
FDFF3F
FCFF3F
FCFF3F
FCFE3F
FC7E3F
FC7C3F
FC3C3F
FC3C3F
FC383F
FC003F
FC003F
FC003F
FC003F
ENDCHAR
STARTCHAR 043D
ENCODING 1085
SWIDTH 492 0
DWIDTH 26 0
BBX 20 31 3 0
BITMAP
FE07F0
FE07F0
FE07F0
FE07F0
FE07F0
FE07F0
FE07F0
FE07F0
FE07F0
FE07F0
FE07F0
FE07F0
FE07F0
FFFFF0
FFFFF0
FFFFF0
FFFFF0
FFFFF0
FE07F0
FE07F0
FE07F0
FE07F0
FE07F0
FE07F0
FE07F0
FE07F0
FE07F0
FE07F0
FE07F0
FE07F0
FE07F0
ENDCHAR
STARTCHAR 043E
ENCODING 1086
SWIDTH 454 0
DWIDTH 24 0
BBX 20 31 2 0
BITMAP
03FC00
0FFF00
1FFF80
3FFFC0
7FFFE0
7F9FE0
7F0FE0
FF0FF0
FE07F0
FE07F0
FE07F0
FE07F0
FE07F0
FE07F0
FE07F0
FE07F0
FE07F0
FE07F0
FE07F0
FE07F0
FE07F0
FE07F0
FE07F0
FF0FF0
7F0FE0
7F9FE0
7FFFE0
3FFFC0
1FFF80
0FFF00
03FC00
ENDCHAR
STARTCHAR 043F
ENCODING 1087
SWIDTH 473 0
DWIDTH 25 0
BBX 19 31 3 0
BITMAP
FFFFE0
FFFFE0
FFFFE0
FFFFE0
FFFFE0
FE0FE0
FE0FE0
FE0FE0
FE0FE0
FE0FE0
FE0FE0
FE0FE0
FE0FE0
FE0FE0
FE0FE0
FE0FE0
FE0FE0
FE0FE0
FE0FE0
FE0FE0
FE0FE0
FE0FE0
FE0FE0
FE0FE0
FE0FE0
FE0FE0
FE0FE0
FE0FE0
FE0FE0
FE0FE0
FE0FE0
ENDCHAR
STARTCHAR 0440
ENCODING 1088
SWIDTH 473 0
DWIDTH 25 0
BBX 20 41 3 -10
BITMAP
FE3F00
FEFF80
FFFFC0
FFFFE0
FFFFE0
FF1FE0
FE0FF0
FE07F0
FE07F0
FE07F0
FE07F0
FE07F0
FE07F0
FE07F0
FE07F0
FE07F0
FE07F0
FE07F0
FE07F0
FE07F0
FE07F0
FE07F0
FE07F0
FE0FF0
FE0FF0
FF0FE0
FFFFE0
FFFFC0
FFFFC0
FEFF80
FE3E00
FE0000
FE0000
FE0000
FE0000
FE0000
FE0000
FE0000
FE0000
FE0000
FE0000
ENDCHAR
STARTCHAR 0441
ENCODING 1089
SWIDTH 435 0
DWIDTH 23 0
BBX 19 31 2 0
BITMAP
03FC00
0FFF00
1FFF80
3FFFC0
7FFFC0
7F9FE0
7F0FE0
FF0FE0
FE0FE0
FE07E0
FE07E0
FE07E0
FE0000
FE0000
FE0000
FE0000
FE0000
FE0000
FE0000
FE07E0
FE07E0
FE07E0
FE0FE0
7F0FE0
7F0FE0
7F8FE0
7FFFC0
3FFFC0
1FFF80
0FFF00
03FC00
ENDCHAR
STARTCHAR 0442
ENCODING 1090
SWIDTH 378 0
DWIDTH 20 0
BBX 18 31 1 0
BITMAP
FFFFC0
FFFFC0
FFFFC0
FFFFC0
FFFFC0
07F000
07F000
07F000
07F000
07F000
07F000
07F000
07F000
07F000
07F000
07F000
07F000
07F000
07F000
07F000
07F000
07F000
07F000
07F000
07F000
07F000
07F000
07F000
07F000
07F000
07F000
ENDCHAR
STARTCHAR 0443
ENCODING 1091
SWIDTH 435 0
DWIDTH 23 0
BBX 21 39 1 -8
BITMAP
FC03F8
FC03F8
FE03F0
7E03F0
7E03F0
7E03F0
7E07E0
7F07E0
3F07E0
3F07E0
3F07C0
3F0FC0
1F8FC0
1F8FC0
1F8F80
1F8F80
0F8F80
0FCF80
0FDF00
0FDF00
07DF00
07DF00
07DE00
07FE00
03FE00
03FE00
03FC00
03FC00
03FC00
01FC00
01F800
01FC00
01F800
07F800
3FF800
3FF000
3FE000
3FC000
3F0000
ENDCHAR
STARTCHAR 0444
ENCODING 1092
SWIDTH 663 0
DWIDTH 35 0
BBX 30 52 2 -9
BITMAP
000FE000
000FE000
000FE000
000FE000
000FE000
000FE000
000FE000
000FE000
000FE000
000FE000
000FE000
000FE000
00FFFE00
07FFFF80
0FFFFFE0
1FFFFFF0
3F8FE7F8
7F0FE1F8
7E0FE1FC
7E0FE1FC
FE0FE0FC
FE0FE0FC
FE0FE0FC
FE0FE0FC
FE0FE0FC
FE0FE0FC
FE0FE0FC
FE0FE0FC
FE0FE0FC
FE0FE0FC
FE0FE0FC
FE0FE0FC
FE0FE1FC
7E0FE1FC
7F0FE3FC
7F8FE7F8
3FFFFFF8
1FFFFFF0
0FFFFFE0
07FFFF80
00FFFE00
000FE000
000FE000
000FE000
000FE000
000FE000
000FE000
000FE000
000FE000
000FE000
000FE000
000FE000
ENDCHAR
STARTCHAR 0445
ENCODING 1093
SWIDTH 416 0
DWIDTH 22 0
BBX 22 31 0 0
BITMAP
7F01F8
7F03F8
3F83F0
3F83F0
1FC7E0
1FC7E0
0FEFC0
0FEFC0
0FFFC0
07FF80
07FF80
03FF00
03FF00
01FE00
01FE00
01FE00
01FE00
03FF00
03FF00
07FF00
07FF80
0FFF80
0FDFC0
0FDFC0
1F8FE0
1F8FE0
3F8FF0
3F07F0
7F07F8
7E03F8
FE03FC
ENDCHAR
STARTCHAR 0446
ENCODING 1094
SWIDTH 530 0
DWIDTH 28 0
BBX 24 39 3 -8
BITMAP
FE07F0
FE07F0
FE07F0
FE07F0
FE07F0
FE07F0
FE07F0
FE07F0
FE07F0
FE07F0
FE07F0
FE07F0
FE07F0
FE07F0
FE07F0
FE07F0
FE07F0
FE07F0
FE07F0
FE07F0
FE07F0
FE07F0
FE07F0
FE07F0
FE07F0
FE07F0
FFFFFF
FFFFFF
FFFFFF
FFFFFF
FFFFFF
00001F
00001F
00001F
00001F
00001F
00001F
00001F
00001F
ENDCHAR
STARTCHAR 0447
ENCODING 1095
SWIDTH 473 0
DWIDTH 25 0
BBX 20 31 2 0
BITMAP
FE07F0
FE07F0
FE07F0
FE07F0
FE07F0
FE07F0
FE07F0
FE07F0
FE07F0
FE07F0
FE07F0
FE07F0
FE07F0
FF07F0
FFFFF0
7FFFF0
7FFFF0
1FFFF0
07FFF0
0007F0
0007F0
0007F0
0007F0
0007F0
0007F0
0007F0
0007F0
0007F0
0007F0
0007F0
0007F0
ENDCHAR
STARTCHAR 0448
ENCODING 1096
SWIDTH 682 0
DWIDTH 36 0
BBX 30 31 3 0
BITMAP
FE1FC1FC
FE1FC1FC
FE1FC1FC
FE1FC1FC
FE1FC1FC
FE1FC1FC
FE1FC1FC
FE1FC1FC
FE1FC1FC
FE1FC1FC
FE1FC1FC
FE1FC1FC
FE1FC1FC
FE1FC1FC
FE1FC1FC
FE1FC1FC
FE1FC1FC
FE1FC1FC
FE1FC1FC
FE1FC1FC
FE1FC1FC
FE1FC1FC
FE1FC1FC
FE1FC1FC
FE1FC1FC
FE1FC1FC
FFFFFFFC
FFFFFFFC
FFFFFFFC
FFFFFFFC
FFFFFFFC
ENDCHAR
STARTCHAR 0449
ENCODING 1097
SWIDTH 738 0
DWIDTH 39 0
BBX 34 39 3 -8
BITMAP
FE1FC1FC00
FE1FC1FC00
FE1FC1FC00
FE1FC1FC00
FE1FC1FC00
FE1FC1FC00
FE1FC1FC00
FE1FC1FC00
FE1FC1FC00
FE1FC1FC00
FE1FC1FC00
FE1FC1FC00
FE1FC1FC00
FE1FC1FC00
FE1FC1FC00
FE1FC1FC00
FE1FC1FC00
FE1FC1FC00
FE1FC1FC00
FE1FC1FC00
FE1FC1FC00
FE1FC1FC00
FE1FC1FC00
FE1FC1FC00
FE1FC1FC00
FE1FC1FC00
FFFFFFFFC0
FFFFFFFFC0
FFFFFFFFC0
FFFFFFFFC0
FFFFFFFFC0
0000000FC0
0000000FC0
0000000FC0
0000000FC0
0000000FC0
0000000FC0
00000007C0
00000007C0
ENDCHAR
STARTCHAR 044A
ENCODING 1098
SWIDTH 511 0
DWIDTH 27 0
BBX 26 31 0 0
BITMAP
FFF80000
FFF80000
FFF80000
FFF80000
FFF80000
03F80000
03F80000
03F80000
03F80000
03F80000
03F80000
03F80000
03F80000
03FFF000
03FFFE00
03FFFF00
03FFFF80
03F87F80
03F81FC0
03F81FC0
03F81FC0
03F80FC0
03F80FC0
03F81FC0
03F81FC0
03F81FC0
03F87F80
03FFFF80
03FFFF00
03FFFC00
03FFE000
ENDCHAR
STARTCHAR 044B
ENCODING 1099
SWIDTH 682 0
DWIDTH 36 0
BBX 30 31 3 0
BITMAP
FE0001FC
FE0001FC
FE0001FC
FE0001FC
FE0001FC
FE0001FC
FE0001FC
FE0001FC
FE0001FC
FE0001FC
FE0001FC
FE0001FC
FE0001FC
FFF801FC
FFFF01FC
FFFFC1FC
FFFFE1FC
FE1FE1FC
FE0FE1FC
FE07F1FC
FE07F1FC
FE07F1FC
FE07F1FC
FE07F1FC
FE07F1FC
FE0FE1FC
FE1FE1FC
FFFFC1FC
FFFFC1FC
FFFF01FC
FFF801FC
ENDCHAR
STARTCHAR 044C
ENCODING 1100
SWIDTH 454 0
DWIDTH 24 0
BBX 20 31 3 0
BITMAP
FE0000
FE0000
FE0000
FE0000
FE0000
FE0000
FE0000
FE0000
FE0000
FE0000
FE0000
FE0000
FE0000
FFF800
FFFF00
FFFFC0
FFFFE0
FE1FE0
FE0FE0
FE07F0
FE07F0
FE07F0
FE07F0
FE07F0
FE07F0
FE0FE0
FE1FE0
FFFFC0
FFFFC0
FFFF00
FFF800
ENDCHAR
STARTCHAR 044D
ENCODING 1101
SWIDTH 435 0
DWIDTH 23 0
BBX 19 31 2 0
BITMAP
03F800
1FFE00
3FFF80
7FFF80
7FFFC0
7F1FC0
FE0FE0
FE0FE0
FE0FE0
FE0FE0
000FE0
000FE0
000FE0
07FFE0
07FFE0
07FFE0
07FFE0
000FE0
000FE0
000FE0
FE0FE0
FE0FE0
FE0FE0
FE0FE0
FE0FE0
7F1FC0
7FFFC0
7FFF80
3FFF80
1FFF00
03F800
ENDCHAR
STARTCHAR 044E
ENCODING 1102
SWIDTH 644 0
DWIDTH 34 0
BBX 28 31 3 0
BITMAP
FE00FE00
FE03FF80
FE07FFC0
FE0FFFE0
FE0FFFE0
FE1FC7F0
FE1F87F0
FE1F83F0
FE1F83F0
FE1F83F0
FE1F83F0
FE1F83F0
FE1F83F0
FFFF83F0
FFFF83F0
FFFF83F0
FFFF83F0
FFFF83F0
FE1F83F0
FE1F83F0
FE1F83F0
FE1F83F0
FE1F83F0
FE1F83F0
FE1F87F0
FE1FC7F0
FE0FFFE0
FE0FFFE0
FE07FFC0
FE03FF80
FE00FE00
ENDCHAR
STARTCHAR 044F
ENCODING 1103
SWIDTH 473 0
DWIDTH 25 0
BBX 21 31 1 0
BITMAP
00FFF8
07FFF8
1FFFF8
1FFFF8
3FC3F8
3F83F8
7F03F8
7F03F8
7F03F8
7E03F8
7F03F8
7F03F8
7F03F8
7F83F8
3FC3F8
3FFFF8
1FFFF8
0FFFF8
07FFF8
0FE3F8
0FE3F8
0FE3F8
1FC3F8
1FC3F8
3FC3F8
3F83F8
7F83F8
7F83F8
7F03F8
FF03F8
FE03F8
ENDCHAR
STARTCHAR 0450
ENCODING 1104
SWIDTH 454 0
DWIDTH 24 0
BBX 20 45 2 0
BITMAP
3F8000
1FC000
1FC000
0FC000
0FC000
07E000
03E000
03E000
01F000
01F000
00F000
000000
000000
000000
03FC00
0FFF00
1FFF80
3FFFC0
7FFFC0
7F9FE0
7F0FE0
7F0FE0
FE07E0
FE07E0
FE07E0
FE07E0
FFFFF0
FFFFF0
FFFFF0
FFFFF0
FE0000
FE0000
FE0000
FE0000
FE07E0
FE07E0
FE07E0
7F0FE0
7F0FE0
7F0FE0
7FFFE0
3FFFC0
1FFF80
0FFF00
03FC00
ENDCHAR
STARTCHAR 0451
ENCODING 1105
SWIDTH 454 0
DWIDTH 24 0
BBX 20 41 2 0
BITMAP
3F0FC0
3F0FC0
3F0FC0
3F0FC0
3F0FC0
3F0FC0
3F0FC0
000000
000000
000000
03FC00
0FFF00
1FFF80
3FFFC0
7FFFC0
7F9FE0
7F0FE0
7F0FE0
FE07E0
FE07E0
FE07E0
FE07E0
FFFFF0
FFFFF0
FFFFF0
FFFFF0
FE0000
FE0000
FE0000
FE0000
FE07E0
FE07E0
FE07E0
7F0FE0
7F0FE0
7F0FE0
7FFFE0
3FFFC0
1FFF80
0FFF00
03FC00
ENDCHAR
STARTCHAR 0452
ENCODING 1106
SWIDTH 492 0
DWIDTH 26 0
BBX 24 51 -1 -8
BITMAP
0FE000
0FE000
0FE000
0FE000
0FE000
0FE000
0FE000
FFFFE0
FFFFE0
FFFFE0
FFFFE0
0FE000
0FE000
0FE000
0FE000
0FE000
0FE000
0FE1F0
0FE7FC
0FFFFE
0FFFFF
0FFFFF
0FF8FF
0FE07F
0FE07F
0FE07F
0FE07F
0FE07F
0FE07F
0FE07F
0FE07F
0FE07F
0FE07F
0FE07F
0FE07F
0FE07F
0FE07F
0FE07F
0FE07F
0FE07F
0FE07F
0FE07F
0FE07F
00007F
0000FF
0000FF
0001FE
001FFE
001FFC
001FF8
001FC0
ENDCHAR
STARTCHAR 0453
ENCODING 1107
SWIDTH 322 0
DWIDTH 17 0
BBX 15 45 3 0
BITMAP
00FE
00FC
01FC
01F8
01F8
03F0
03F0
03E0
03C0
07C0
0780
0000
0000
0000
FFFC
FFFC
FFFC
FFFC
FFFC
FE00
FE00
FE00
FE00
FE00
FE00
FE00
FE00
FE00
FE00
FE00
FE00
FE00
FE00
FE00
FE00
FE00
FE00
FE00
FE00
FE00
FE00
FE00
FE00
FE00
FE00
ENDCHAR
STARTCHAR 0454
ENCODING 1108
SWIDTH 435 0
DWIDTH 23 0
BBX 19 31 2 0
BITMAP
03FC00
0FFF00
1FFF80
3FFFC0
7FFFE0
7F8FE0
7F0FE0
7F0FE0
FF07E0
FE07E0
FE0000
FE0000
FE0000
FFFE00
FFFE00
FFFE00
FFFE00
FE0000
FE0000
FE0000
FE07E0
FE07E0
FF07E0
7F0FE0
7F0FE0
7F8FE0
7FFFC0
3FFFC0
1FFF80
0FFF00
03FC00
ENDCHAR
STARTCHAR 0455
ENCODING 1109
SWIDTH 397 0
DWIDTH 21 0
BBX 19 31 1 0
BITMAP
03F800
0FFE00
1FFF00
3FFF00
3FFF80
7F1FC0
7F0FC0
7E07C0
7F0780
7F0600
7F8000
3FC000
3FF000
1FF800
0FFC00
07FE00
03FF00
01FF80
007FC0
003FC0
001FE0
0C0FE0
7C0FE0
FC0FE0
7E0FE0
7F1FE0
7FFFC0
3FFFC0
1FFF80
0FFE00
03F800
ENDCHAR
STARTCHAR 0456
ENCODING 1110
SWIDTH 246 0
DWIDTH 13 0
BBX 7 41 3 0
BITMAP
FE
FE
FE
FE
FE
FE
00
00
00
00
FE
FE
FE
FE
FE
FE
FE
FE
FE
FE
FE
FE
FE
FE
FE
FE
FE
FE
FE
FE
FE
FE
FE
FE
FE
FE
FE
FE
FE
FE
FE
ENDCHAR
STARTCHAR 0457
ENCODING 1111
SWIDTH 246 0
DWIDTH 13 0
BBX 16 41 -1 0
BITMAP
FC3F
FC3F
FC3F
FC3F
FC3F
FC3F
FC3F
0000
0000
0000
0FE0
0FE0
0FE0
0FE0
0FE0
0FE0
0FE0
0FE0
0FE0
0FE0
0FE0
0FE0
0FE0
0FE0
0FE0
0FE0
0FE0
0FE0
0FE0
0FE0
0FE0
0FE0
0FE0
0FE0
0FE0
0FE0
0FE0
0FE0
0FE0
0FE0
0FE0
ENDCHAR
STARTCHAR 0458
ENCODING 1112
SWIDTH 246 0
DWIDTH 13 0
BBX 12 50 -1 -8
BITMAP
0FF0
0FF0
0FF0
0FF0
0FF0
0FF0
0000
0000
0000
0000
0000
0FF0
0FF0
0FF0
0FF0
0FF0
0FF0
0FF0
0FF0
0FF0
0FF0
0FF0
0FF0
0FF0
0FF0
0FF0
0FF0
0FF0
0FF0
0FF0
0FF0
0FF0
0FF0
0FF0
0FF0
0FF0
0FF0
0FF0
0FF0
0FF0
0FF0
0FF0
0FF0
0FF0
1FE0
FFE0
FFE0
FFC0
FF80
FE00
ENDCHAR
STARTCHAR 0459
ENCODING 1113
SWIDTH 738 0
DWIDTH 39 0
BBX 36 31 1 0
BITMAP
03FFFF0000
03FFFF0000
03FFFF0000
03FFFF0000
03FFFF0000
03F07F0000
03F07F0000
03F07F0000
03F07F0000
03F07F0000
03F07F0000
03F07F0000
03F07F0000
07F07FFC00
07F07FFF80
07F07FFFC0
07F07FFFE0
07F07F1FF0
07F07F07F0
07F07F07F0
07E07F03F0
07E07F03F0
0FE07F03F0
0FE07F03F0
0FE07F07F0
3FC07F07F0
FFC07F0FE0
FFC07FFFE0
FF807FFFC0
FF007FFF80
FC007FFC00
ENDCHAR
STARTCHAR 045A
ENCODING 1114
SWIDTH 682 0
DWIDTH 36 0
BBX 32 31 3 0
BITMAP
FE0FF000
FE0FF000
FE0FF000
FE0FF000
FE0FF000
FE0FF000
FE0FF000
FE0FF000
FE0FF000
FE0FF000
FE0FF000
FE0FF000
FE0FF000
FFFFFFC0
FFFFFFF0
FFFFFFFC
FFFFFFFC
FFFFFFFE
FE0FF1FE
FE0FF0FE
FE0FF07F
FE0FF07F
FE0FF07F
FE0FF07F
FE0FF07E
FE0FF0FE
FE0FF1FE
FE0FFFFC
FE0FFFFC
FE0FFFF0
FE0FFF80
ENDCHAR
STARTCHAR 045B
ENCODING 1115
SWIDTH 492 0
DWIDTH 26 0
BBX 24 43 -1 0
BITMAP
0FE000
0FE000
0FE000
0FE000
0FE000
0FE000
0FE000
FFFFE0
FFFFE0
FFFFE0
FFFFE0
0FE000
0FE000
0FE000
0FE000
0FE000
0FE000
0FE1F8
0FEFFC
0FFFFE
0FFFFF
0FFFFF
0FF07F
0FE07F
0FE07F
0FE07F
0FE07F
0FE07F
0FE07F
0FE07F
0FE07F
0FE07F
0FE07F
0FE07F
0FE07F
0FE07F
0FE07F
0FE07F
0FE07F
0FE07F
0FE07F
0FE07F
0FE07F
ENDCHAR
STARTCHAR 045C
ENCODING 1116
SWIDTH 454 0
DWIDTH 24 0
BBX 21 45 3 0
BITMAP
000FE0
000FC0
001FC0
001F80
001F80
003F00
003F00
003E00
003C00
007C00
007800
000000
000000
000000
FE07F8
FE07F0
FE07F0
FE0FF0
FE0FE0
FE1FE0
FE1FC0
FE1FC0
FE3FC0
FE3F80
FE7F80
FE7F00
FE7F00
FFFF00
FFFE00
FFFE00
FFFF00
FEFF00
FE7F00
FE7F80
FE3F80
FE3F80
FE3FC0
FE1FC0
FE1FE0
FE1FE0
FE0FE0
FE0FF0
FE07F0
FE07F8
FE07F8
ENDCHAR
STARTCHAR 045D
ENCODING 1117
SWIDTH 492 0
DWIDTH 26 0
BBX 20 45 3 0
BITMAP
3F8000
1FC000
1FC000
0FC000
0FC000
07E000
03E000
03E000
01F000
01F000
00F000
000000
000000
000000
FC03F0
FC03F0
FC07F0
FC07F0
FC0FF0
FC0FF0
FC1FF0
FC1FF0
FC3FF0
FC3FF0
FC7FF0
FC7FF0
FCFFF0
FCFFF0
FCFBF0
FDFBF0
FDF3F0
FFF3F0
FFE3F0
FFE3F0
FFC3F0
FFC3F0
FF83F0
FF83F0
FF83F0
FF03F0
FF03F0
FE03F0
FE03F0
FC03F0
FC03F0
ENDCHAR
STARTCHAR 045E
ENCODING 1118
SWIDTH 435 0
DWIDTH 23 0
BBX 21 50 1 -8
BITMAP
1E01C0
1E01C0
1E03C0
0F07C0
0FFF80
07FF00
01FC00
000000
000000
000000
000000
FC03F8
FC03F8
FE03F0
7E03F0
7E03F0
7E03F0
7E07E0
7F07E0
3F07E0
3F07E0
3F07C0
3F0FC0
1F8FC0
1F8FC0
1F8F80
1F8F80
0F8F80
0FCF80
0FDF00
0FDF00
07DF00
07DF00
07DE00
07FE00
03FE00
03FE00
03FC00
03FC00
03FC00
01FC00
01F800
01FC00
01F800
07F800
3FF800
3FF000
3FE000
3FC000
3F0000
ENDCHAR
STARTCHAR 045F
ENCODING 1119
SWIDTH 492 0
DWIDTH 26 0
BBX 20 39 3 -8
BITMAP
FE0FF0
FE0FF0
FE0FF0
FE0FF0
FE0FF0
FE0FF0
FE0FF0
FE0FF0
FE0FF0
FE0FF0
FE0FF0
FE0FF0
FE0FF0
FE0FF0
FE0FF0
FE0FF0
FE0FF0
FE0FF0
FE0FF0
FE0FF0
FE0FF0
FE0FF0
FE0FF0
FE0FF0
FE0FF0
FE0FF0
FFFFF0
FFFFF0
FFFFF0
FFFFF0
FFFFF0
01F800
01F800
01F800
01F800
01F800
01F800
01F800
01F000
ENDCHAR
STARTCHAR 0490
ENCODING 1168
SWIDTH 416 0
DWIDTH 22 0
BBX 18 49 3 0
BITMAP
0003C0
0003C0
0003C0
0003C0
0003C0
0003C0
FFFFC0
FFFFC0
FFFFC0
FFFFC0
FFFFC0
FFFFC0
FF0000
FF0000
FF0000
FF0000
FF0000
FF0000
FF0000
FF0000
FF0000
FF0000
FF0000
FF0000
FF0000
FF0000
FF0000
FF0000
FF0000
FF0000
FF0000
FF0000
FF0000
FF0000
FF0000
FF0000
FF0000
FF0000
FF0000
FF0000
FF0000
FF0000
FF0000
FF0000
FF0000
FF0000
FF0000
FF0000
FF0000
ENDCHAR
STARTCHAR 0491
ENCODING 1169
SWIDTH 322 0
DWIDTH 17 0
BBX 14 37 3 0
BITMAP
003C
003C
003C
003C
003C
003C
FFFC
FFFC
FFFC
FFFC
FFFC
FE00
FE00
FE00
FE00
FE00
FE00
FE00
FE00
FE00
FE00
FE00
FE00
FE00
FE00
FE00
FE00
FE00
FE00
FE00
FE00
FE00
FE00
FE00
FE00
FE00
FE00
ENDCHAR
STARTCHAR 04AE
ENCODING 1198
SWIDTH 492 0
DWIDTH 26 0
BBX 25 43 0 0
BITMAP
FF003F80
7F003F80
7F803F80
7F807F00
3F807F00
3FC07F00
3FC0FE00
1FC0FE00
1FE0FE00
1FE1FC00
0FE1FC00
0FF1F800
0FF1F800
07F3F800
07F3F000
07FBF000
03FFF000
03FFE000
03FFE000
01FFE000
01FFC000
01FFC000
00FFC000
00FF8000
00FF8000
007F8000
007F0000
007F8000
007F8000
007F8000
007F8000
007F8000
007F8000
007F8000
007F8000
007F8000
007F8000
007F8000
007F8000
007F8000
007F8000
007F8000
007F8000
ENDCHAR
STARTCHAR 04AF
ENCODING 1199
SWIDTH 416 0
DWIDTH 22 0
BBX 22 40 0 -9
BITMAP
FE01FC
7F03F8
7F03F8
7F03F8
3F03F0
3F03F0
3F87F0
3F87F0
1F87E0
1F87E0
1FC7E0
1FCFC0
0FCFC0
0FCFC0
0FCFC0
07EF80
07FF80
07FF80
07FF00
03FF00
03FF00
03FF00
03FE00
01FE00
01FE00
01FE00
00FC00
00FC00
00FC00
00FC00
00FC00
00FC00
00FC00
00FC00
00FC00
00FC00
00FC00
00FC00
00FC00
00FC00
ENDCHAR
STARTCHAR 04B0
ENCODING 1200
SWIDTH 492 0
DWIDTH 26 0
BBX 25 43 1 0
BITMAP
FE007F80
FE007F00
7F007F00
7F00FE00
7F00FE00
3F80FE00
3F81FC00
3F81FC00
1FC1FC00
1FC3F800
1FC3F800
0FE3F800
0FE3F000
0FE7F000
07F7E000
07F7E000
07FFE000
03FFC000
03FFC000
03FFC000
01FF8000
01FF8000
00FF8000
7FFFFE00
7FFFFE00
7FFFFE00
7FFFFE00
7FFFFE00
00FF0000
00FF0000
00FF0000
00FF0000
00FF0000
00FF0000
00FF0000
00FF0000
00FF0000
00FF0000
00FF0000
00FF0000
00FF0000
00FF0000
00FF0000
ENDCHAR
STARTCHAR 04B1
ENCODING 1201
SWIDTH 416 0
DWIDTH 22 0
BBX 22 40 0 -9
BITMAP
FE01FC
7F03F8
7F03F8
7F03F8
3F03F0
3F83F0
3F87F0
3F87F0
1F87E0
1F87E0
1FC7E0
1FCFC0
0FCFC0
0FCFC0
0FEFC0
07EF80
07EF80
07FF80
07FF00
03FF00
03FF00
03FF00
03FE00
01FE00
01FE00
01FE00
00FC00
3FFFF0
3FFFF0
3FFFF0
3FFFF0
3FFFF0
00FC00
00FC00
00FC00
00FC00
00FC00
00FC00
00FC00
00FC00
ENDCHAR
STARTCHAR 04C0
ENCODING 1216
SWIDTH 284 0
DWIDTH 15 0
BBX 8 43 3 0
BITMAP
FF
FF
FF
FF
FF
FF
FF
FF
FF
FF
FF
FF
FF
FF
FF
FF
FF
FF
FF
FF
FF
FF
FF
FF
FF
FF
FF
FF
FF
FF
FF
FF
FF
FF
FF
FF
FF
FF
FF
FF
FF
FF
FF
ENDCHAR
STARTCHAR 04E8
ENCODING 1256
SWIDTH 568 0
DWIDTH 30 0
BBX 24 45 3 -1
BITMAP
001000
03FFC0
0FFFF0
1FFFF8
3FFFFC
7FFFFC
7FFFFE
FF81FE
FF00FF
FF00FF
FF00FF
FF00FF
FE00FF
FE00FF
FE00FF
FE00FF
FE00FF
FE00FF
FE00FF
FE00FF
FFFFFF
FFFFFF
FFFFFF
FFFFFF
FFFFFF
FE00FF
FE00FF
FE00FF
FE00FF
FE00FF
FE00FF
FE00FF
FE00FF
FE00FF
FF00FF
FF00FF
FF00FF
7F81FE
7FFFFE
7FFFFC
3FFFFC
1FFFF8
0FFFF0
03FFC0
001000
ENDCHAR
STARTCHAR 04E9
ENCODING 1257
SWIDTH 454 0
DWIDTH 24 0
BBX 20 31 2 0
BITMAP
03FC00
0FFF00
1FFF80
3FFFC0
7FFFE0
7F9FE0
7F0FE0
FF0FF0
FE07F0
FE07F0
FE07F0
FE07F0
FE07F0
FFFFF0
FFFFF0
FFFFF0
FFFFF0
FE07F0
FE07F0
FE07F0
FE07F0
FE07F0
FE07F0
FF0FF0
7F0FE0
7F9FE0
7FFFE0
3FFFC0
1FFF80
0FFF00
03FC00
ENDCHAR
STARTCHAR 1E02
ENCODING 7682
SWIDTH 549 0
DWIDTH 29 0
BBX 25 54 3 0
BITMAP
007F0000
007F0000
007F0000
007F0000
007F0000
007F0000
007F0000
00000000
00000000
00000000
00000000
FFFF0000
FFFFC000
FFFFF000
FFFFF800
FFFFFC00
FF07FC00
FF01FE00
FF00FE00
FF00FE00
FF00FE00
FF00FE00
FF00FE00
FF00FE00
FF00FE00
FF00FE00
FF00FE00
FF01FC00
FF07FC00
FFFFF800
FFFFE000
FFFFC000
FFFFF800
FFFFFC00
FF03FE00
FF01FE00
FF00FF00
FF00FF00
FF007F00
FF007F00
FF007F80
FF007F80
FF007F80
FF007F00
FF007F00
FF007F00
FF00FF00
FF01FF00
FF03FE00
FFFFFE00
FFFFFC00
FFFFF800
FFFFE000
FFFF8000
ENDCHAR
STARTCHAR 1E03
ENCODING 7683
SWIDTH 473 0
DWIDTH 25 0
BBX 20 53 3 0
BITMAP
03F800
03F800
03F800
03F800
03F800
03F800
03F800
000000
000000
000000
FE0000
FE0000
FE0000
FE0000
FE0000
FE0000
FE0000
FE0000
FE0000
FE0000
FE0000
FE0000
FE1F00
FE7F80
FFFFC0
FFFFE0
FFFFE0
FF0FE0
FE0FF0
FE07F0
FE07F0
FE07F0
FE07F0
FE07F0
FE07F0
FE07F0
FE07F0
FE07F0
FE07F0
FE07F0
FE07F0
FE07F0
FE07F0
FE07F0
FE07F0
FE07F0
FE0FF0
FF0FE0
FFFFE0
FFFFE0
FFFFC0
FEFF80
FE3E00
ENDCHAR
STARTCHAR 1E0A
ENCODING 7690
SWIDTH 549 0
DWIDTH 29 0
BBX 24 54 3 0
BITMAP
00FE00
00FE00
00FE00
00FE00
00FE00
00FE00
00FE00
000000
000000
000000
000000
FFFE00
FFFFE0
FFFFF0
FFFFF8
FFFFFC
FF07FC
FF01FE
FF01FE
FF00FE
FF00FF
FF00FF
FF00FF
FF00FF
FF00FF
FF00FF
FF00FF
FF00FF
FF00FF
FF00FF
FF00FF
FF00FF
FF00FF
FF00FF
FF00FF
FF00FF
FF00FF
FF00FF
FF00FF
FF00FF
FF00FF
FF00FF
FF00FF
FF00FF
FF00FE
FF01FE
FF01FE
FF01FE
FF07FC
FFFFFC
FFFFF8
FFFFF0
FFFFC0
FFFF00
ENDCHAR
STARTCHAR 1E0B
ENCODING 7691
SWIDTH 473 0
DWIDTH 25 0
BBX 20 53 2 0
BITMAP
01FC00
01FC00
01FC00
01FC00
01FC00
01FC00
01FC00
000000
000000
000000
0007F0
0007F0
0007F0
0007F0
0007F0
0007F0
0007F0
0007F0
0007F0
0007F0
0007F0
0007F0
07C7F0
1FF7F0
3FFFF0
3FFFF0
7FFFF0
7F8FF0
7F07F0
7F07F0
FF07F0
FF07F0
FF07F0
FF07F0
FF07F0
FF07F0
FF07F0
FF07F0
FF07F0
FF07F0
FF07F0
FF07F0
FF07F0
FF07F0
FF07F0
FF07F0
7F07F0
7F8FF0
7FFFF0
3FFFF0
3FFFF0
1FF7F0
07C7F0
ENDCHAR
STARTCHAR 1E1E
ENCODING 7710
SWIDTH 416 0
DWIDTH 22 0
BBX 18 54 3 0
BITMAP
07F000
07F000
07F000
07F000
07F000
07F000
07F000
000000
000000
000000
000000
FFFFC0
FFFFC0
FFFFC0
FFFFC0
FFFFC0
FF0000
FF0000
FF0000
FF0000
FF0000
FF0000
FF0000
FF0000
FF0000
FF0000
FF0000
FF0000
FF0000
FFFF00
FFFF00
FFFF00
FFFF00
FFFF00
FF0000
FF0000
FF0000
FF0000
FF0000
FF0000
FF0000
FF0000
FF0000
FF0000
FF0000
FF0000
FF0000
FF0000
FF0000
FF0000
FF0000
FF0000
FF0000
FF0000
ENDCHAR
STARTCHAR 1E1F
ENCODING 7711
SWIDTH 303 0
DWIDTH 16 0
BBX 15 52 1 0
BITMAP
0FE0
0FE0
0FE0
0FE0
0FE0
0FE0
0FE0
0000
0000
0000
0000
01FE
07FE
0FFE
0FFE
0FFE
1FE0
1FE0
1FE0
1FC0
1FC0
FFFE
FFFE
FFFE
FFFE
FFFE
1FC0
1FC0
1FC0
1FC0
1FC0
1FC0
1FC0
1FC0
1FC0
1FC0
1FC0
1FC0
1FC0
1FC0
1FC0
1FC0
1FC0
1FC0
1FC0
1FC0
1FC0
1FC0
1FC0
1FC0
1FC0
1FC0
ENDCHAR
STARTCHAR 1E40
ENCODING 7744
SWIDTH 682 0
DWIDTH 36 0
BBX 30 54 3 0
BITMAP
001FC000
001FC000
001FC000
001FC000
001FC000
001FC000
001FC000
00000000
00000000
00000000
00000000
7F8003F8
7F8003F8
7F8007F8
7FC007F8
7FC007F8
7FC007F8
7FC00FF8
7FC00FF8
7FE00FF8
7FE00FF8
7FE00FF8
7FE01FF8
7FE01FFC
7FF01FFC
7FF01EFC
7FF03EFC
7FF03EFC
7FF03EFC
7FF83EFC
7CF87CFC
FCF87CFC
FCF87CFC
FCF87CFC
FCFC7CFC
FC7CF8FC
FC7CF8FC
FC7CF8FC
FC7EF8FC
FC3FF0FC
FC3FF0FC
FC3FF0FC
FC3FF0FC
FC3FF0FC
FC1FE0FC
FC1FE0FC
FC1FE0FC
FC1FE0FC
FC0FE0FC
FC0FC0FC
FC0FC0FC
FC0FC0FC
FC07C0FC
FC07C0FC
ENDCHAR
STARTCHAR 1E41
ENCODING 7745
SWIDTH 720 0
DWIDTH 38 0
BBX 32 42 3 0
BITMAP
000FE000
000FE000
000FE000
000FE000
000FE000
000FE000
000FE000
00000000
00000000
00000000
00000000
FE1F00F8
FE7FC3FE
FFFFCFFE
FFFFFFFF
FFFFFFFF
FF8FFC7F
FE0FF07F
FE07F03F
FE07F03F
FE07F03F
FE07F03F
FE07F03F
FE07F03F
FE07F03F
FE07F03F
FE07F03F
FE07F03F
FE07F03F
FE07F03F
FE07F03F
FE07F03F
FE07F03F
FE07F03F
FE07F03F
FE07F03F
FE07F03F
FE07F03F
FE07F03F
FE07F03F
FE07F03F
FE07F03F
ENDCHAR
STARTCHAR 1E56
ENCODING 7766
SWIDTH 511 0
DWIDTH 27 0
BBX 24 54 3 0
BITMAP
00FE00
00FE00
00FE00
00FE00
00FE00
00FE00
00FE00
000000
000000
000000
000000
FFFF00
FFFFE0
FFFFF0
FFFFF8
FFFFFC
FF03FC
FF01FE
FF00FE
FF00FE
FF00FE
FF00FE
FF00FF
FF00FF
FF00FE
FF00FE
FF00FE
FF00FE
FF01FE
FF07FC
FFFFFC
FFFFF8
FFFFF0
FFFFE0
FFFF00
FF0000
FF0000
FF0000
FF0000
FF0000
FF0000
FF0000
FF0000
FF0000
FF0000
FF0000
FF0000
FF0000
FF0000
FF0000
FF0000
FF0000
FF0000
FF0000
ENDCHAR
STARTCHAR 1E57
ENCODING 7767
SWIDTH 473 0
DWIDTH 25 0
BBX 20 52 3 -10
BITMAP
03F800
03F800
03F800
03F800
03F800
03F800
03F800
000000
000000
000000
000000
FE3F00
FEFF80
FFFFC0
FFFFE0
FFFFE0
FF1FE0
FE0FF0
FE07F0
FE07F0
FE07F0
FE07F0
FE07F0
FE07F0
FE07F0
FE07F0
FE07F0
FE07F0
FE07F0
FE07F0
FE07F0
FE07F0
FE07F0
FE07F0
FE0FF0
FE0FF0
FF0FE0
FFFFE0
FFFFC0
FFFFC0
FEFF80
FE3E00
FE0000
FE0000
FE0000
FE0000
FE0000
FE0000
FE0000
FE0000
FE0000
FE0000
ENDCHAR
STARTCHAR 1E60
ENCODING 7776
SWIDTH 492 0
DWIDTH 26 0
BBX 23 55 2 -1
BITMAP
00FE00
00FE00
00FE00
00FE00
00FE00
00FE00
00FE00
000000
000000
000000
001000
03FF00
0FFFC0
1FFFE0
3FFFF0
7FFFF0
7FEFF8
7F03F8
FF03F8
FF01FC
FE01FC
FF01FC
FF01F8
FF0100
7F8000
7FC000
7FE000
3FF000
3FF800
1FFC00
0FFE00
07FF00
03FF80
01FFC0
007FE0
003FF0
001FF8
000FF8
0007FC
0003FC
0603FC
FE01FE
FE01FE
FE01FE
FE01FE
7F01FE
7F01FE
7F83FC
3FFFFC
3FFFF8
1FFFF8
0FFFF0
07FFE0
01FF80
000800
ENDCHAR
STARTCHAR 1E61
ENCODING 7777
SWIDTH 397 0
DWIDTH 21 0
BBX 19 42 1 0
BITMAP
03F800
03F800
03F800
03F800
03F800
03F800
03F800
000000
000000
000000
000000
03F800
0FFE00
1FFF00
3FFF00
3FFF80
7F1FC0
7F0FC0
7E07C0
7F0780
7F0600
7F8000
3FC000
3FF000
1FF800
0FFC00
07FE00
03FF00
01FF80
007FC0
003FC0
001FE0
0C0FE0
7C0FE0
FC0FE0
7E0FE0
7F1FE0
7FFFC0
3FFFC0
1FFF80
0FFE00
03F800
ENDCHAR
STARTCHAR 1E6A
ENCODING 7786
SWIDTH 416 0
DWIDTH 22 0
BBX 22 54 0 0
BITMAP
01FC00
01FC00
01FC00
01FC00
01FC00
01FC00
01FC00
000000
000000
000000
000000
FFFFFC
FFFFFC
FFFFFC
FFFFFC
FFFFFC
FFFFFC
01FE00
01FE00
01FE00
01FE00
01FE00
01FE00
01FE00
01FE00
01FE00
01FE00
01FE00
01FE00
01FE00
01FE00
01FE00
01FE00
01FE00
01FE00
01FE00
01FE00
01FE00
01FE00
01FE00
01FE00
01FE00
01FE00
01FE00
01FE00
01FE00
01FE00
01FE00
01FE00
01FE00
01FE00
01FE00
01FE00
01FE00
ENDCHAR
STARTCHAR 1E6B
ENCODING 7787
SWIDTH 341 0
DWIDTH 18 0
BBX 15 50 1 0
BITMAP
0FE0
0FE0
0FE0
0FE0
0FE0
0FE0
0FE0
0000
0000
0000
1FC0
1FC0
1FC0
1FC0
1FC0
1FC0
1FC0
1FC0
1FC0
FFFE
FFFE
FFFE
FFFE
FFFE
1FC0
1FC0
1FC0
1FC0
1FC0
1FC0
1FC0
1FC0
1FC0
1FC0
1FC0
1FC0
1FC0
1FC0
1FC0
1FC0
1FC0
1FC0
1FC0
1FE0
1FFE
0FFE
0FFE
07FE
07FE
01FE
ENDCHAR
STARTCHAR 1E80
ENCODING 7808
SWIDTH 720 0
DWIDTH 38 0
BBX 34 57 2 0
BITMAP
007F000000
003F800000
003F800000
001F800000
001F800000
000FC00000
0007C00000
0007C00000
0003E00000
0003E00000
0001E00000
0000000000
0000000000
0000000000
FC01F00FC0
FE01F00FC0
FE03F00FC0
FE03F01FC0
FE03F01FC0
7E03F81FC0
7E03F81F80
7E07F81F80
7E07F81F80
7F07F81F80
7F07FC1F80
7F07FC3F80
3F07FC3F80
3F0FFC3F00
3F0FFC3F00
3F0FFC3F00
3F0FFE3F00
3F8FFE3F00
3F9F7E3F00
1F9F3E7F00
1F9F3E7E00
1F9F3F7E00
1F9F3F7E00
1F9E3F7E00
1FBE1F7E00
1FFE1F7E00
0FFE1FFE00
0FFE1FFC00
0FFE1FFC00
0FFC1FFC00
0FFC0FFC00
0FFC0FFC00
0FFC0FFC00
07FC0FFC00
07F80FF800
07F807F800
07F807F800
07F807F800
07F807F800
07F007F800
03F007F800
03F003F000
03F003F000
ENDCHAR
STARTCHAR 1E81
ENCODING 7809
SWIDTH 606 0
DWIDTH 32 0
BBX 29 45 1 0
BITMAP
03F80000
01FC0000
01FC0000
00FC0000
00FC0000
007E0000
003E0000
003E0000
001F0000
001F0000
000F0000
00000000
00000000
00000000
FC0FC0F8
FC0FC1F8
FE0FC1F8
FE0FC1F8
7E1FC1F0
7E1FC1F0
7E1FE1F0
7E1FE1F0
7E1FE3F0
7F1FE3F0
3F3FE3F0
3F3FE3E0
3F3FF3E0
3F3FF3E0
3F3DF7E0
3F3DF7E0
1F3CF7E0
1FFCF7C0
1FFCFFC0
1FF8FFC0
1FF8FFC0
1FF8FFC0
0FF87FC0
0FF87FC0
0FF07F80
0FF07F80
0FF07F80
0FF03F80
07F03F80
07E03F80
07E03F00
ENDCHAR
STARTCHAR 1E82
ENCODING 7810
SWIDTH 720 0
DWIDTH 38 0
BBX 34 57 2 0
BITMAP
00003F8000
00003F0000
00007F0000
00007E0000
00007E0000
0000FC0000
0000FC0000
0000F80000
0000F00000
0001F00000
0001E00000
0000000000
0000000000
0000000000
FC01F00FC0
FE01F00FC0
FE03F00FC0
FE03F01FC0
FE03F01FC0
7E03F81FC0
7E03F81F80
7E07F81F80
7E07F81F80
7F07F81F80
7F07FC1F80
7F07FC3F80
3F07FC3F80
3F0FFC3F00
3F0FFC3F00
3F0FFC3F00
3F0FFE3F00
3F8FFE3F00
3F9F7E3F00
1F9F3E7F00
1F9F3E7E00
1F9F3F7E00
1F9F3F7E00
1F9E3F7E00
1FBE1F7E00
1FFE1F7E00
0FFE1FFE00
0FFE1FFC00
0FFE1FFC00
0FFC1FFC00
0FFC0FFC00
0FFC0FFC00
0FFC0FFC00
07FC0FFC00
07F80FF800
07F807F800
07F807F800
07F807F800
07F807F800
07F007F800
03F007F800
03F003F000
03F003F000
ENDCHAR
ENDFONT
